<svg width="267" height="255" viewBox="0 0 267 255" fill="none" xmlns="http://www.w3.org/2000/svg">
<path d="M244.862 195.545C255.393 196.123 259.692 204.951 259.747 214.358C259.801 223.764 253.77 232.502 245.816 237.531C237.863 242.559 228.244 244.316 218.837 244.572C210.775 244.791 202.104 243.733 196.024 238.443C189.943 233.153 188.168 222.433 194.285 217.191C200.116 212.199 210.665 214.51 218.108 212.649C224.298 211.105 226.541 207.469 229.496 203.316C232.002 199.718 235.708 197.131 239.949 196.019C241.553 195.612 243.21 195.452 244.862 195.545Z" fill="white"/>
<path d="M54.9205 209.032C54.349 219.405 45.66 223.625 36.3994 223.686C27.1389 223.746 18.5229 217.806 13.5977 209.974C8.67257 202.143 6.90923 192.675 6.65994 183.421C6.44712 175.48 7.48688 166.967 12.6978 160.966C17.9088 154.964 28.4401 153.225 33.6024 159.257C38.5154 164.991 36.2353 175.382 38.0655 182.703C39.5917 188.784 43.167 191.003 47.2591 193.91C50.7811 196.386 53.3105 200.032 54.3976 204.198C54.8143 205.774 54.9906 207.403 54.9205 209.032Z" fill="white"/>
<path d="M240 106.037C241.97 94.0281 233.833 82.6949 221.823 80.724C209.814 78.7531 198.481 86.8908 196.51 98.9001C194.539 110.909 202.677 122.243 214.686 124.213C226.695 126.184 238.029 118.047 240 106.037Z" fill="white"/>
<path d="M110.69 64.3473L106.002 56.084C108.9 51.3795 109.934 45.7613 108.9 40.3336C107.866 34.9058 104.839 30.0612 100.414 26.7518C95.9896 23.4425 90.4871 21.9078 84.9883 22.4494C79.4896 22.9911 74.3923 25.5699 70.6984 29.679C67.0044 33.788 64.981 39.1302 65.0259 44.6554C65.0707 50.1805 67.1806 55.4891 70.9408 59.5377C74.7009 63.5863 79.8394 66.082 85.3462 66.5343C90.853 66.9866 96.3299 65.3628 100.7 61.982L110.69 64.3473Z" fill="#EDEDED"/>
<path d="M110.69 64.3471L100.67 62.0669H100.554L100.627 61.9697L100.743 62.0791C97.6613 64.4833 93.9986 66.0294 90.1264 66.5604C88.9646 66.7243 87.7903 66.7833 86.618 66.7367C86.0099 66.7367 85.4019 66.6881 84.7938 66.6395L82.9271 66.3537C79.9544 65.7857 77.1295 64.6151 74.6263 62.914C72.1232 61.2128 69.9949 59.0172 68.3725 56.4623C66.7501 53.9074 65.668 51.0473 65.1929 48.0584C64.7178 45.0694 64.8598 42.0149 65.61 39.0828C66.4436 35.7076 68.0718 32.5806 70.3588 29.9621C72.6702 27.2847 75.5891 25.1998 78.8714 23.8817C82.0229 22.6352 85.4144 22.1136 88.7948 22.3555C91.996 22.5723 95.1101 23.492 97.9154 25.0491C102.947 27.8501 106.709 32.4785 108.422 37.9762C109.104 40.3137 109.428 42.741 109.383 45.1754C109.261 49.0509 108.12 52.8259 106.075 56.1203V56.0412L110.697 64.3471L105.942 56.1203V56.0777V56.0412C107.953 52.7524 109.064 48.9927 109.164 45.139C109.197 42.7299 108.867 40.3296 108.185 38.0187C106.479 32.5863 102.753 28.0158 97.7756 25.2498C95.0107 23.7185 91.9423 22.8154 88.7887 22.6048C85.4552 22.3675 82.1111 22.885 79.0052 24.1188C75.7564 25.4274 72.8701 27.4983 70.5899 30.1567C68.3386 32.734 66.7336 35.8105 65.9079 39.1315C65.1037 42.3153 65.0144 45.6377 65.6465 48.8602C66.2552 51.9059 67.5096 54.7858 69.3251 57.3059C72.5985 61.8542 77.4781 64.9885 82.9758 66.074L84.7999 66.3597C85.4079 66.4145 86.016 66.4327 86.624 66.4631C87.7837 66.5126 88.9456 66.4597 90.096 66.305C93.9367 65.7962 97.5754 64.2841 100.646 61.921L101.132 61.544L100.755 62.0305L100.706 61.9089L110.69 64.3471Z" fill="#263238"/>
<path d="M93.6348 33.0027H79.3092C78.6174 33.0027 78.0566 33.5635 78.0566 34.2553V55.4274C78.0566 56.1192 78.6174 56.68 79.3092 56.68H93.6348C94.3265 56.68 94.8873 56.1192 94.8873 55.4274V34.2553C94.8873 33.5635 94.3265 33.0027 93.6348 33.0027Z" fill="#263238"/>
<path d="M94.0239 34.4253H78.835V52.1194H94.0239V34.4253Z" fill="#EDEDED"/>
<path d="M86.472 55.6644C87.1772 55.6644 87.7489 55.0927 87.7489 54.3875C87.7489 53.6823 87.1772 53.1106 86.472 53.1106C85.7668 53.1106 85.1951 53.6823 85.1951 54.3875C85.1951 55.0927 85.7668 55.6644 86.472 55.6644Z" fill="#455A64"/>
<path d="M88.6001 39.8187L94.2063 46.4343L99.4538 39.8187H96.7297V30.7163L91.2816 30.6494L91.3485 39.8309L88.6001 39.8187Z" fill="#355BE1"/>
<path d="M88.9468 42.3179C88.2293 43.2942 87.4298 44.2075 86.5572 45.048C85.7608 45.9579 84.8882 46.7981 83.9486 47.5592C84.6606 46.5803 85.4583 45.6666 86.3322 44.8291C87.1279 43.9165 88.0028 43.0761 88.9468 42.3179Z" fill="#263238"/>
<path d="M87.8401 41.5088C87.4776 42.0796 87.0307 42.5921 86.5146 43.0289C86.0741 43.5341 85.557 43.967 84.9823 44.3119C85.3424 43.7393 85.7896 43.2264 86.3078 42.7918C86.7473 42.2855 87.2645 41.8524 87.8401 41.5088Z" fill="#263238"/>
<path d="M226.104 39.4053V49.6873H222.571L230.19 58.5587L237.334 49.8697H233.722V39.4053H226.104Z" fill="#355BE1"/>
<path opacity="0.3" d="M226.104 39.4053V49.6873H222.571L230.19 58.5587L237.334 49.8697H233.722V39.4053H226.104Z" fill="black"/>
<path d="M250.936 16.4637C249.99 12.7828 248.036 9.43852 245.295 6.80617C242.553 4.17382 239.132 2.35758 235.416 1.56128C231.7 0.764985 227.835 1.02014 224.256 2.29812C220.677 3.57609 217.524 5.82631 215.153 8.79623C214.499 8.71561 213.841 8.675 213.183 8.67462C210.883 8.56808 208.586 8.92904 206.429 9.73566C204.273 10.5423 202.303 11.7778 200.638 13.3676C198.973 14.9573 197.647 16.8682 196.742 18.9848C195.836 21.1013 195.369 23.3795 195.369 25.6817C195.369 27.9838 195.836 30.262 196.742 32.3786C197.647 34.4951 198.973 36.406 200.638 37.9958C202.303 39.5855 204.273 40.821 206.429 41.6277C208.586 42.4343 210.883 42.7952 213.183 42.6887H250.219C253.641 42.6956 256.931 41.365 259.386 38.9807C261.842 36.5964 263.268 33.3472 263.362 29.926C263.455 26.5048 262.209 23.1824 259.887 20.6674C257.566 18.1524 254.354 16.644 250.936 16.4637Z" fill="#355BE1"/>
<path d="M254.852 38.1041C254.822 38.0555 255.557 37.5995 256.53 36.6205C257.807 35.3531 258.787 33.8181 259.399 32.1263C260.011 30.4345 260.24 28.628 260.069 26.8371C259.941 25.4629 259.674 24.6359 259.729 24.6238C259.829 24.8007 259.902 24.9912 259.947 25.1893C260.105 25.7207 260.22 26.2635 260.294 26.8127C260.532 28.6411 260.329 30.4998 259.701 32.2335C259.074 33.9673 258.041 35.5257 256.688 36.7786C256.285 37.1594 255.849 37.5052 255.387 37.8123C255.226 37.9381 255.045 38.0367 254.852 38.1041Z" fill="#263238"/>
<path d="M215.627 13.7702C215.627 13.8249 214.685 13.5878 213.164 13.5574C211.181 13.5042 209.21 13.8885 207.392 14.683C205.574 15.4775 203.954 16.6626 202.645 18.1542C201.636 19.2973 201.186 20.1425 201.131 20.106C201.202 19.8904 201.302 19.6858 201.429 19.498C201.739 18.9711 202.088 18.469 202.475 17.9961C203.765 16.4309 205.405 15.1919 207.264 14.3795C209.122 13.5671 211.146 13.2042 213.171 13.3202C213.784 13.3524 214.394 13.4338 214.995 13.5634C215.213 13.6048 215.426 13.6743 215.627 13.7702Z" fill="#263238"/>
<path d="M227.113 5.36668C227.113 5.42748 226.438 5.47004 225.392 5.74366C224.028 6.11803 222.742 6.73602 221.598 7.5678C220.46 8.3971 219.483 9.42745 218.716 10.608C218.108 11.514 217.877 12.1464 217.822 12.1281C217.842 11.9681 217.887 11.8122 217.956 11.666C218.108 11.2565 218.298 10.8617 218.521 10.4864C218.846 9.9147 219.225 9.37516 219.652 8.8751C220.184 8.28115 220.774 7.74325 221.416 7.26986C222.062 6.80586 222.755 6.41052 223.483 6.09025C224.081 5.83044 224.702 5.62688 225.337 5.4822C225.764 5.38898 226.197 5.33202 226.633 5.31195C226.795 5.30506 226.957 5.32353 227.113 5.36668Z" fill="#263238"/>
<path d="M243.038 42.5429C243.038 42.6341 238.04 42.7009 231.874 42.7009C225.708 42.7009 220.704 42.6341 220.704 42.5429C220.704 42.4517 225.702 42.3848 231.874 42.3848C238.046 42.3848 243.038 42.4577 243.038 42.5429Z" fill="#263238"/>
<path d="M244.29 73.1823C244.205 73.1823 244.132 69.0841 244.132 64.0616C244.132 59.0391 244.205 54.9409 244.29 54.9409C244.375 54.9409 244.454 59.0331 244.454 64.0616C244.454 69.0901 244.381 73.1823 244.29 73.1823Z" fill="#263238"/>
<path d="M247.866 81.1719C247.78 81.1719 247.707 75.9001 247.707 69.3941C247.707 62.888 247.78 57.6162 247.866 57.6162C247.951 57.6162 248.03 62.888 248.03 69.3941C248.03 75.9001 247.957 81.1719 247.866 81.1719Z" fill="#263238"/>
<path d="M19.2587 91.6245V97.9239H17.0941L21.7578 103.36L26.1357 98.0394H23.9224V91.6245H19.2587Z" fill="#355BE1"/>
<path opacity="0.3" d="M19.2587 91.6245V97.9239H17.0941L21.7578 103.36L26.1357 98.0394H23.9224V91.6245H19.2587Z" fill="black"/>
<path d="M34.472 77.5845C33.8916 75.3295 32.6944 73.2807 31.0147 71.668C29.335 70.0553 27.2391 68.9425 24.9623 68.4544C22.6855 67.9663 20.3177 68.1223 18.1245 68.9047C15.9313 69.6872 13.9995 71.0653 12.5458 72.8844C12.1421 72.838 11.7361 72.8137 11.3297 72.8114C9.94034 72.7778 8.55826 73.0225 7.26482 73.531C5.97138 74.0395 4.79271 74.8016 3.79817 75.7724C2.80363 76.7432 2.01331 77.9031 1.47371 79.1839C0.934107 80.4647 0.656128 81.8404 0.656128 83.2302C0.656128 84.6201 0.934107 85.9958 1.47371 87.2766C2.01331 88.5574 2.80363 89.7173 3.79817 90.6881C4.79271 91.6589 5.97138 92.421 7.26482 92.9295C8.55826 93.438 9.94034 93.6827 11.3297 93.6491H34.0281C36.1219 93.6496 38.1332 92.8331 39.6342 91.3733C41.1352 89.9136 42.0074 87.9258 42.0653 85.8328C42.1231 83.7398 41.362 81.7068 39.9439 80.1664C38.5258 78.626 36.5626 77.6997 34.472 77.5845Z" fill="#355BE1"/>
<path d="M36.8677 90.8278C36.8677 90.7853 37.2812 90.4934 37.8649 89.8914C38.6289 89.1093 39.2194 88.1749 39.5978 87.1491C39.9606 86.1179 40.1055 85.0227 40.0235 83.9326C39.9566 83.0935 39.8046 82.5827 39.8532 82.5706C40.0761 82.9839 40.2087 83.4399 40.2424 83.9083C40.4011 85.0353 40.2819 86.184 39.8951 87.2544C39.5083 88.3248 38.8656 89.2844 38.023 90.0495C37.6969 90.3873 37.3032 90.6525 36.8677 90.8278Z" fill="#263238"/>
<path d="M12.8377 75.9186C12.8377 75.9733 12.2296 75.8456 11.3237 75.8334C10.1165 75.8109 8.91871 76.0498 7.8125 76.5336C6.7063 77.0175 5.71782 77.7348 4.91485 78.6365C4.30681 79.3236 4.00278 79.8526 3.96022 79.804C4.13117 79.3181 4.3979 78.8715 4.7446 78.4906C5.53232 77.5177 6.54212 76.7481 7.68909 76.2465C8.83606 75.745 10.0867 75.5262 11.3358 75.6085C11.852 75.6121 12.3623 75.7175 12.8377 75.9186Z" fill="#263238"/>
<path d="M19.8728 70.7745C19.5299 70.8862 19.1806 70.9776 18.8269 71.0481C18.0035 71.2817 17.2275 71.6583 16.5346 72.1608C15.8447 72.6631 15.2462 73.2801 14.7652 73.985C14.5833 74.3023 14.3801 74.6071 14.1572 74.897C14.2099 74.5291 14.345 74.1779 14.5524 73.8694C14.9917 73.09 15.5955 72.4157 16.3218 71.8933C17.0455 71.3636 17.8752 70.9964 18.754 70.8171C19.1185 70.7161 19.5016 70.7015 19.8728 70.7745Z" fill="#263238"/>
<path d="M29.6319 93.5519C29.6319 93.637 26.5917 93.71 22.7914 93.71C18.9911 93.71 15.9448 93.637 15.9448 93.5519C15.9448 93.4668 19.0094 93.3938 22.7793 93.3938C26.5492 93.3938 29.6319 93.4607 29.6319 93.5519Z" fill="#263238"/>
<path d="M30.3981 112.316C30.2415 110.454 30.1887 108.584 30.24 106.716C30.1886 104.846 30.2414 102.974 30.3981 101.11C30.5585 102.974 30.6113 104.846 30.5562 106.716C30.6111 108.584 30.5583 110.454 30.3981 112.316Z" fill="#263238"/>
<path d="M32.587 117.217C32.5019 117.217 32.4289 113.982 32.4289 109.999C32.4289 106.017 32.5019 102.782 32.587 102.782C32.6721 102.782 32.7451 106.017 32.7451 109.999C32.7451 113.982 32.6782 117.217 32.587 117.217Z" fill="#263238"/>
<path d="M129.357 197.801V227.273H119.234L141.056 252.69L161.529 227.79H151.18V197.801H129.357Z" fill="#355BE1"/>
<path opacity="0.3" d="M129.357 197.801V227.273H119.234L141.056 252.69L161.529 227.79H151.18V197.801H129.357Z" fill="black"/>
<path d="M200.523 132.054C197.808 121.507 192.208 111.925 184.351 104.383C176.495 96.8406 166.692 91.6364 156.043 89.354C145.394 87.0715 134.32 87.801 124.062 91.4606C113.805 95.1202 104.77 101.565 97.9702 110.073C96.0976 109.847 94.2136 109.73 92.3275 109.72C79.399 109.72 67 114.856 57.8582 123.998C48.7164 133.14 43.5805 145.539 43.5805 158.467C43.5805 171.396 48.7164 183.795 57.8582 192.936C67 202.078 79.399 207.214 92.3275 207.214H198.468C208.269 207.221 217.685 203.402 224.712 196.57C231.739 189.737 235.821 180.432 236.089 170.634C236.357 160.837 232.789 151.322 226.146 144.116C219.503 136.91 210.31 132.582 200.523 132.054Z" fill="#355BE1"/>
<path d="M104.349 140.925C104.316 140.82 104.299 140.712 104.3 140.602C104.3 140.359 104.263 140.055 104.239 139.684C104.239 139.478 104.239 139.259 104.203 139.015C104.166 138.772 104.142 138.511 104.111 138.231C104.032 137.666 103.984 137.015 103.826 136.322C103.759 135.969 103.686 135.598 103.607 135.215C103.528 134.832 103.406 134.449 103.303 134.042C103.114 133.221 102.798 132.376 102.494 131.482C101.763 129.576 100.853 127.743 99.7761 126.009C98.6636 124.286 97.3913 122.672 95.9758 121.188C95.3009 120.531 94.6685 119.886 94.0118 119.363C93.6896 119.096 93.4038 118.822 93.0815 118.585L92.1755 117.916C91.6161 117.472 91.0506 117.15 90.5764 116.84L89.9075 116.414L89.2995 116.098L88.4969 115.642C88.3972 115.598 88.305 115.538 88.2232 115.466C88.3261 115.497 88.4258 115.538 88.5212 115.587L89.3603 115.989L89.9683 116.287C90.1811 116.402 90.4061 116.542 90.6554 116.688C91.2209 117.007 91.7689 117.356 92.2971 117.734L93.2153 118.391C93.5375 118.622 93.8233 118.901 94.1699 119.163C94.8682 119.735 95.5359 120.344 96.1704 120.987C99.0955 123.944 101.342 127.503 102.756 131.415C103.064 132.264 103.328 133.128 103.546 134.005C103.643 134.419 103.765 134.808 103.838 135.221C103.911 135.635 103.972 135.981 104.032 136.334C104.147 136.974 104.228 137.619 104.276 138.268C104.276 138.553 104.33 138.815 104.343 139.064C104.355 139.313 104.343 139.526 104.343 139.733V140.657C104.35 140.746 104.352 140.835 104.349 140.925Z" fill="#263238"/>
<path d="M84.4047 131.5C84.3621 131.543 83.7237 130.892 82.5806 130.047C79.5506 127.796 75.9507 126.44 72.1891 126.131C70.748 126.009 69.8481 126.064 69.8481 126.009C70.0455 125.951 70.2504 125.923 70.4561 125.924C71.0311 125.885 71.608 125.885 72.183 125.924C76.0172 126.105 79.6974 127.488 82.7022 129.877C83.1559 130.232 83.5846 130.618 83.9851 131.032C84.1426 131.171 84.2834 131.328 84.4047 131.5Z" fill="#263238"/>
<path d="M106.732 173.109C106.413 173.141 106.091 173.141 105.771 173.109C105.163 173.109 104.251 173.109 103.145 173.054C100.931 172.975 97.8729 172.792 94.5043 172.446C91.1357 172.099 88.1016 171.698 85.9126 171.339C84.8181 171.163 83.9365 171.011 83.3284 170.889C83.0086 170.843 82.6933 170.77 82.386 170.67C82.7081 170.68 83.0292 170.712 83.3467 170.768L85.9491 171.12C88.1381 171.418 91.1722 171.801 94.5347 172.13C97.8972 172.458 100.95 172.677 103.157 172.811L105.771 172.969C106.095 172.993 106.416 173.04 106.732 173.109Z" fill="#263238"/>
<path d="M198.93 131.755C198.818 131.781 198.704 131.795 198.59 131.798L197.611 131.865C197.191 131.865 196.668 131.913 196.072 131.993C195.476 132.072 194.783 132.108 194.035 132.242L192.856 132.43C192.448 132.497 192.029 132.601 191.591 132.686C190.715 132.85 189.797 133.111 188.824 133.367C184.63 134.56 180.653 136.418 177.046 138.87C176.226 139.447 175.435 139.982 174.748 140.554C174.395 140.834 174.049 141.089 173.739 141.356L172.839 142.141C172.231 142.627 171.775 143.126 171.337 143.539C170.899 143.953 170.54 144.33 170.249 144.646L169.574 145.351C169.497 145.438 169.412 145.515 169.318 145.582C169.377 145.484 169.446 145.392 169.525 145.309C169.689 145.108 169.902 144.865 170.133 144.561C170.364 144.257 170.741 143.843 171.191 143.418C171.641 142.992 172.085 142.475 172.662 141.977L173.556 141.174C173.866 140.894 174.213 140.633 174.56 140.347C175.247 139.739 176.037 139.216 176.858 138.626C180.492 136.125 184.521 134.253 188.776 133.087C189.755 132.838 190.685 132.582 191.567 132.43C192.01 132.345 192.436 132.248 192.85 132.187L194.066 132.023C194.82 131.901 195.513 131.871 196.115 131.816C196.632 131.765 197.152 131.741 197.671 131.743H198.65C198.744 131.738 198.838 131.742 198.93 131.755Z" fill="#263238"/>
<path d="M195.926 207.542C195.926 207.633 172.425 207.7 143.446 207.7C114.466 207.7 90.9594 207.633 90.9594 207.542C90.9594 207.451 114.454 207.384 143.446 207.384C172.438 207.384 195.926 207.457 195.926 207.542Z" fill="#263238"/>
<path d="M69.1792 228.636C69.0941 228.636 69.0211 224.239 69.0211 218.822C69.0211 213.404 69.0941 209.002 69.1792 209.002C69.2643 209.002 69.3373 213.392 69.3373 218.822C69.3373 224.251 69.2643 228.636 69.1792 228.636Z" fill="#263238"/>
<path d="M73.168 246.743C73.0829 246.743 73.0099 240.559 73.0099 232.934C73.0099 225.309 73.0829 219.125 73.168 219.125C73.2531 219.125 73.3261 225.303 73.3261 232.934C73.3261 240.565 73.2471 246.743 73.168 246.743Z" fill="#263238"/>
<g opacity="0.3">
<path d="M213.985 151.584C212.769 144.646 203.569 137.599 195.641 139.186C188.733 140.56 181.297 142.165 174.468 143.892C171.647 144.603 168.728 141.18 166.369 139.484C165.153 138.596 164.399 137.173 163.627 135.835C159.231 128.363 151.995 122.756 143.914 119.625C135.833 116.494 126.944 115.746 118.328 116.688C111.639 117.424 104.343 119.728 101.211 125.687C99.9585 128.089 99.4599 130.971 97.5202 132.856C94.93 135.361 90.8317 135.161 87.4571 136.431C80.7078 138.973 77.2906 148.623 78.1418 155.779C78.9931 162.936 85.3593 172.16 98.7424 173.632C98.7424 173.632 147.222 174.057 171.161 175.219C179.46 175.62 181.966 174.477 190.265 174.258C204.913 173.905 216.174 164.31 213.985 151.584Z" fill="black"/>
</g>
<path d="M124.931 186.455C125.746 186.249 126.658 185.409 127.363 184.96C129.09 183.849 130.799 182.708 132.489 181.536C126.408 179.773 121.27 178.38 115.202 176.672C114.994 179.104 115.22 181.555 115.871 183.908C116.43 185.786 117.501 187.787 119.398 188.286C121.118 188.736 122.87 187.787 124.39 186.851L124.809 186.589" fill="#D9D9D9"/>
<path d="M125.971 183.099C125.879 183.099 125.916 182.302 125.703 181.372C125.49 180.442 125.095 179.748 125.205 179.7C125.602 180.16 125.88 180.71 126.013 181.303C126.147 181.896 126.132 182.513 125.971 183.099Z" fill="#263238"/>
<path d="M127.278 182.777C127.215 182.325 127.183 181.87 127.181 181.415C127.086 180.97 127.023 180.519 126.992 180.065C127.273 180.452 127.447 180.907 127.497 181.382C127.547 181.858 127.472 182.339 127.278 182.777Z" fill="#263238"/>
<path d="M119.264 177.803C119.319 177.803 119.142 178.411 119.13 179.451C119.111 180.771 119.44 182.074 120.085 183.226C120.701 184.395 121.545 185.429 122.566 186.267C123.022 186.57 123.504 186.833 124.007 187.051C123.853 187.06 123.7 187.035 123.557 186.978C123.159 186.859 122.782 186.681 122.438 186.449C121.342 185.636 120.442 184.586 119.805 183.379C119.134 182.179 118.823 180.81 118.911 179.438C118.931 179.027 118.994 178.62 119.1 178.222C119.127 178.073 119.183 177.931 119.264 177.803Z" fill="#455A64"/>
<path d="M124.007 179.207C124.539 180.331 124.873 181.539 124.992 182.777C125.206 183.995 125.206 185.242 124.992 186.461C124.894 186.461 124.961 184.813 124.688 182.813C124.414 180.813 123.909 179.238 124.007 179.207Z" fill="#455A64"/>
<path d="M122.632 185.677C122.271 185.471 121.945 185.208 121.666 184.899C120.924 184.216 120.307 183.409 119.842 182.515C119.377 181.608 119.185 180.586 119.288 179.572C119.306 179.149 119.445 178.739 119.69 178.393C119.738 178.393 119.556 178.849 119.513 179.609C119.478 180.573 119.687 181.531 120.121 182.394C120.575 183.256 121.144 184.054 121.812 184.765C122.114 185.041 122.389 185.347 122.632 185.677Z" fill="#355BE1"/>
<path d="M131.133 182.381C130.478 182.912 129.759 183.36 128.993 183.713C128.276 184.157 127.508 184.512 126.706 184.771C127.359 184.234 128.078 183.784 128.847 183.433C129.562 182.989 130.33 182.636 131.133 182.381Z" fill="#355BE1"/>
<path d="M121.453 185.762C120.949 186.312 120.313 186.724 119.606 186.96C118.898 187.196 118.143 187.248 117.409 187.112C117.409 187.021 118.388 187.039 119.507 186.656C120.626 186.273 121.398 185.689 121.453 185.762Z" fill="#455A64"/>
<path d="M119.392 182.649C119.392 182.74 118.571 182.856 117.659 183.257C116.747 183.658 116.108 184.218 116.041 184.151C116.394 183.607 116.915 183.192 117.525 182.971C118.094 182.659 118.751 182.545 119.392 182.649Z" fill="#455A64"/>
<path d="M118.99 179.882C118.335 179.656 117.667 179.47 116.99 179.323C116.297 179.287 115.603 179.287 114.91 179.323C115.561 178.978 116.312 178.872 117.032 179.025C117.767 179.064 118.463 179.369 118.99 179.882Z" fill="#455A64"/>
<path d="M165.542 171.09C165.579 171.145 142.734 176.654 142.734 176.654L139.378 168.792L140.916 166.414C140.916 166.414 150.572 164.231 158.428 159.786L165.542 171.09Z" fill="#FFBE9D"/>
<path d="M111.937 148.689C111.937 148.689 110.891 147.163 106.465 144.992C102.786 143.168 93.343 141.685 89.5184 149.072C85.6937 156.46 88.6306 167.794 94.9908 170.214C101.351 172.634 111.937 175.948 116.272 177.347C120.608 178.745 134.866 182.314 134.866 182.314L140.728 178.879L141.421 167.934C141.421 167.934 133.34 159.634 126.463 157.342C119.586 155.05 111.937 148.689 111.937 148.689Z" fill="#263238"/>
<path d="M98.7424 143.533C98.8032 143.442 105.224 143.624 109.912 145.394C111.676 146.056 113.402 146.768 113.402 146.768L115.993 139.386L135.408 132.917H156.902L163.894 146.768V147.467C163.894 147.467 172.292 147.607 175.928 145.929C179.564 144.25 190.892 139.35 193.829 138.371C196.765 137.392 209.917 135.513 212.854 143.515C215.791 151.517 213.712 159.865 208.799 162.917C206.482 164.352 167.397 174.47 167.397 174.47L158.161 159.78C158.161 159.78 144.09 166.754 139.378 165.994C134.666 165.234 98.7424 143.533 98.7424 143.533Z" fill="#263238"/>
<path d="M138.387 136.486C138.428 136.578 138.461 136.674 138.484 136.772C138.539 136.991 138.612 137.264 138.697 137.593C138.873 138.31 139.098 139.362 139.305 140.663C139.779 143.266 140.254 146.896 140.619 150.915C140.983 154.934 141.178 158.582 141.257 161.252C141.3 162.571 141.312 163.641 141.312 164.383C141.312 164.724 141.312 164.991 141.312 165.234C141.328 165.333 141.328 165.434 141.312 165.532C141.292 165.434 141.28 165.335 141.275 165.234C141.275 165.003 141.275 164.724 141.233 164.383C141.19 163.599 141.141 162.559 141.075 161.264C140.941 158.625 140.704 154.983 140.345 150.964C139.986 146.944 139.542 143.333 139.129 140.724C138.928 139.423 138.734 138.371 138.594 137.647C138.533 137.313 138.478 137.039 138.436 136.808C138.402 136.704 138.385 136.595 138.387 136.486Z" fill="#455A64"/>
<path d="M163.682 147.808C163.682 147.893 158.817 148.507 152.792 149.176C146.766 149.845 141.883 150.319 141.847 150.228C141.81 150.137 146.711 149.529 152.737 148.86C158.763 148.191 163.67 147.723 163.682 147.808Z" fill="#455A64"/>
<path d="M160.471 147.838C160.239 147.849 160.006 147.83 159.778 147.784C159.334 147.723 158.696 147.644 157.899 147.565C155.834 147.34 153.756 147.244 151.679 147.279C149.603 147.319 147.532 147.486 145.477 147.777L143.61 148.063C143.383 148.115 143.15 148.144 142.917 148.148C143.13 148.053 143.355 147.986 143.586 147.948C144.017 147.832 144.65 147.698 145.44 147.559C149.567 146.838 153.78 146.764 157.93 147.34C158.72 147.455 159.358 147.565 159.796 147.662C160.027 147.698 160.253 147.757 160.471 147.838Z" fill="#455A64"/>
<path d="M163.445 146.999C162.112 146.345 160.716 145.827 159.279 145.454C157.818 145.186 156.332 145.07 154.847 145.108C155.267 144.961 155.709 144.887 156.154 144.889C158.306 144.765 160.45 145.238 162.35 146.257C162.752 146.445 163.121 146.695 163.445 146.999Z" fill="#455A64"/>
<path d="M145.544 159.02C144.991 159.574 144.316 159.991 143.574 160.236C142.871 160.575 142.097 160.74 141.318 160.716C141.318 160.625 142.297 160.406 143.452 159.938C144.607 159.47 145.489 158.947 145.544 159.02Z" fill="#455A64"/>
<path d="M144.51 161.744C143.503 162.284 142.339 162.451 141.22 162.218C141.756 162.07 142.307 161.982 142.862 161.957C143.402 161.827 143.955 161.756 144.51 161.744Z" fill="#455A64"/>
<path d="M177.545 146.464C177.457 146.538 177.361 146.604 177.259 146.659L176.414 147.163L173.264 148.987L162.818 154.861L152.323 160.656L149.125 162.383L148.243 162.839C148.142 162.895 148.037 162.941 147.927 162.979C148.015 162.903 148.111 162.838 148.213 162.784L149.064 162.273L152.214 160.449L162.66 154.575L173.155 148.781L176.353 147.06L177.229 146.604C177.327 146.542 177.433 146.494 177.545 146.464Z" fill="#455A64"/>
<path d="M193.944 143.369C193.815 143.411 193.683 143.444 193.549 143.467L192.418 143.698C191.433 143.904 190.016 144.233 188.289 144.719C183.799 146.026 179.442 147.755 175.277 149.881C170.376 152.314 166.156 154.928 163.068 156.795L159.419 159.02L158.422 159.628C158.308 159.701 158.188 159.764 158.063 159.817C158.164 159.725 158.274 159.643 158.392 159.574L159.352 158.929C160.192 158.376 161.408 157.579 162.928 156.619C165.968 154.697 170.224 152.076 175.119 149.608C179.299 147.471 183.685 145.764 188.21 144.512C189.955 144.05 191.384 143.758 192.375 143.594C192.868 143.497 193.257 143.454 193.518 143.418C193.658 143.384 193.801 143.367 193.944 143.369Z" fill="#455A64"/>
<path d="M203.569 140.602C203.569 140.657 202.864 140.602 201.745 140.602C200.271 140.646 198.807 140.867 197.386 141.259C195.966 141.656 194.599 142.219 193.312 142.937C192.321 143.497 191.749 143.91 191.719 143.867C191.688 143.825 191.834 143.728 192.084 143.527C192.438 143.244 192.809 142.984 193.196 142.749C194.471 141.957 195.853 141.353 197.301 140.955C198.746 140.554 200.24 140.36 201.739 140.377C202.193 140.382 202.646 140.414 203.095 140.475C203.259 140.494 203.418 140.537 203.569 140.602Z" fill="#455A64"/>
<path d="M200.189 143.175C200.189 143.266 198.559 143.053 196.54 143.126C194.522 143.199 192.953 143.515 192.935 143.424C194.087 143.01 195.304 142.804 196.528 142.816C197.76 142.718 198.999 142.839 200.189 143.175Z" fill="#455A64"/>
<path d="M193.135 140.694C193.178 140.779 191.779 141.521 190.223 142.682C188.666 143.843 187.541 144.962 187.475 144.895C188.176 143.928 189.042 143.092 190.034 142.427C190.96 141.674 192.01 141.088 193.135 140.694Z" fill="#455A64"/>
<path d="M213.706 147.632C213.685 147.675 213.663 147.718 213.639 147.759L213.438 148.118C213.25 148.44 212.97 148.896 212.562 149.462C211.421 151.079 210.042 152.514 208.47 153.718C206.13 155.468 203.601 156.951 200.931 158.139C197.939 159.519 194.528 160.735 190.953 161.988L172.626 168.402L167.056 170.306L165.542 170.81L165.141 170.938C165.096 170.955 165.049 170.966 165.001 170.968L165.129 170.908L165.518 170.75L167.02 170.19L172.553 168.19L190.849 161.69C194.424 160.437 197.83 159.257 200.815 157.871C203.471 156.703 205.993 155.251 208.337 153.542C209.91 152.362 211.308 150.966 212.49 149.395C212.903 148.842 213.207 148.392 213.408 148.088L213.639 147.741C213.683 147.664 213.706 147.628 213.706 147.632Z" fill="#455A64"/>
<path d="M140.077 179.268C139.926 179.225 139.778 179.172 139.633 179.11L138.381 178.605C137.299 178.161 135.736 177.499 133.821 176.654C129.984 174.969 124.7 172.561 118.984 169.758C113.269 166.955 108.118 164.286 104.488 162.158C102.664 161.112 101.229 160.224 100.232 159.586L99.1072 158.838C98.9725 158.757 98.8462 158.664 98.7302 158.558C98.8739 158.622 99.0121 158.697 99.1437 158.783L100.293 159.482C101.296 160.09 102.755 160.948 104.586 161.957C108.234 164.006 113.378 166.657 119.112 169.473C124.846 172.288 130.093 174.714 133.9 176.447L138.43 178.52L139.646 179.074C139.796 179.124 139.94 179.189 140.077 179.268Z" fill="#455A64"/>
<path d="M100.25 147.37C100.412 147.228 100.595 147.111 100.792 147.023C101.304 146.751 101.836 146.519 102.385 146.33C104.211 145.699 106.157 145.491 108.076 145.722C109.992 145.905 111.859 146.437 113.585 147.291C114.1 147.562 114.581 147.893 115.02 148.276C115.19 148.405 115.339 148.559 115.464 148.732C114.831 148.274 114.168 147.858 113.481 147.485C111.749 146.706 109.9 146.217 108.009 146.038C106.137 145.809 104.238 145.975 102.433 146.525C101.065 146.969 100.275 147.425 100.25 147.37Z" fill="#455A64"/>
<path d="M141.415 167.94C141.309 167.882 141.213 167.808 141.129 167.721L140.351 167.058C139.676 166.45 138.679 165.66 137.438 164.663C134.958 162.674 131.455 160.011 127.594 157.062L124.785 154.904C123.867 154.223 122.961 153.639 122.037 153.08C120.212 152.003 118.571 151.085 117.251 150.179C116.196 149.484 115.212 148.686 114.314 147.796C114.07 147.557 113.839 147.305 113.621 147.042C113.536 146.956 113.463 146.86 113.402 146.756C113.402 146.756 113.749 147.109 114.4 147.71C115.322 148.556 116.317 149.319 117.373 149.991C118.698 150.866 120.371 151.76 122.189 152.83C123.095 153.371 124.013 153.955 124.967 154.654C125.922 155.354 126.792 156.077 127.783 156.813C131.644 159.762 135.128 162.45 137.578 164.493C138.794 165.508 139.785 166.353 140.43 166.961C140.764 167.265 141.008 167.508 141.172 167.679C141.261 167.758 141.342 167.846 141.415 167.94Z" fill="#455A64"/>
<path d="M125.381 152.781C126.117 153.01 126.84 153.28 127.546 153.59C128.877 154.107 130.72 154.806 132.793 155.445C134.866 156.083 136.764 156.606 138.144 156.947C138.9 157.11 139.647 157.313 140.381 157.555C140.177 157.563 139.972 157.543 139.773 157.494C139.378 157.439 138.807 157.336 138.107 157.19C136.284 156.809 134.482 156.334 132.708 155.767C130.931 155.207 129.184 154.558 127.473 153.821C126.822 153.535 126.293 153.292 125.934 153.116C125.738 153.026 125.552 152.914 125.381 152.781Z" fill="#455A64"/>
<path d="M132.106 147.394C131.386 147.563 130.657 147.689 129.923 147.771C128.573 147.972 126.706 148.258 124.657 148.622C122.608 148.987 120.76 149.37 119.422 149.65C118.706 149.831 117.979 149.965 117.245 150.051C117.422 149.961 117.61 149.893 117.805 149.851C118.169 149.741 118.705 149.595 119.367 149.431C120.699 149.097 122.541 148.683 124.603 148.312C126.664 147.941 128.531 147.704 129.893 147.546C130.574 147.473 131.109 147.425 131.51 147.4C131.707 147.369 131.908 147.367 132.106 147.394Z" fill="#455A64"/>
<path d="M129.224 143.825C129.224 143.874 128.385 143.947 127.047 144.147C123.546 144.664 120.145 145.718 116.966 147.273C115.749 147.881 115.014 148.288 114.989 148.239C115.132 148.102 115.294 147.985 115.47 147.893C115.786 147.68 116.26 147.4 116.862 147.072C118.437 146.232 120.088 145.544 121.793 145.017C123.497 144.491 125.245 144.124 127.017 143.922C127.698 143.849 128.233 143.813 128.628 143.807C128.826 143.781 129.027 143.788 129.224 143.825Z" fill="#455A64"/>
<path d="M153.655 174.525L150.007 183.038C151.351 184.254 156.458 185.032 158.258 184.941C160.058 184.85 162.66 184.868 164.454 184.668C166.739 184.483 169.036 184.5 171.319 184.716C173.602 184.933 175.903 184.89 178.177 184.589C180.457 184.276 182.583 183.26 184.258 181.682C185.068 180.967 185.68 180.055 186.036 179.035C186.393 178.015 186.481 176.92 186.292 175.856C186.103 174.792 185.644 173.794 184.959 172.959C184.274 172.123 183.386 171.477 182.379 171.084C180.545 170.304 178.536 170.029 176.56 170.287C174.594 170.546 172.657 170.986 170.771 171.601C168.747 172.209 166.673 172.817 164.569 172.634C164.144 172.598 163.718 172.634 163.299 172.537C160.55 172.026 157.686 172.002 155.212 173.559C154.725 173.869 154.172 174.142 153.655 174.525Z" fill="#D9D9D9"/>
<path d="M154.184 175.48C154.281 175.368 154.389 175.267 154.506 175.176C154.834 174.905 155.184 174.663 155.552 174.452C156.924 173.663 158.507 173.321 160.082 173.473C161.067 173.571 162.125 173.771 163.268 173.941C164.472 174.156 165.698 174.215 166.916 174.118C168.255 173.938 169.574 173.635 170.857 173.212C172.253 172.749 173.697 172.444 175.162 172.3C176.636 172.157 178.123 172.285 179.552 172.677C180.23 172.872 180.886 173.137 181.51 173.467C182.116 173.775 182.663 174.186 183.127 174.683C183.981 175.612 184.582 176.745 184.872 177.973C185.014 178.532 185.033 179.115 184.927 179.681C184.812 180.202 184.606 180.698 184.319 181.147C183.838 181.909 183.192 182.554 182.428 183.032C181.86 183.393 181.259 183.701 180.634 183.95C180.123 184.163 179.722 184.303 179.448 184.4C179.312 184.457 179.169 184.497 179.023 184.521C179.151 184.449 179.285 184.388 179.424 184.339C179.692 184.224 180.087 184.065 180.585 183.84C181.192 183.57 181.775 183.25 182.33 182.886C183.059 182.409 183.672 181.776 184.124 181.031C184.403 180.589 184.588 180.094 184.669 179.578C184.75 179.061 184.723 178.534 184.592 178.028C184.299 176.853 183.713 175.772 182.89 174.884C181.935 173.943 180.744 173.278 179.442 172.956C178.057 172.582 176.615 172.459 175.186 172.592C172.219 172.811 169.586 174.166 166.947 174.416C165.707 174.507 164.46 174.437 163.238 174.209C162.095 174.021 161.043 173.808 160.07 173.698C158.534 173.539 156.985 173.84 155.619 174.562C155.125 174.842 154.646 175.149 154.184 175.48Z" fill="#455A64"/>
<path d="M179.047 184.558C179.047 184.558 178.913 184.442 178.719 184.187C178.596 184.037 178.484 183.879 178.384 183.713C178.242 183.498 178.114 183.275 178.001 183.044C177.691 182.45 177.437 181.83 177.241 181.189C177.003 180.396 176.841 179.581 176.755 178.757C176.682 177.938 176.682 177.114 176.755 176.295C176.818 175.628 176.943 174.969 177.126 174.325C177.191 174.074 177.272 173.829 177.369 173.589C177.432 173.406 177.507 173.227 177.594 173.054C177.74 172.768 177.825 172.616 177.843 172.628C177.861 172.64 177.6 173.285 177.345 174.379C177.192 175.017 177.092 175.665 177.047 176.319C176.999 177.119 177.011 177.922 177.083 178.721C177.175 179.518 177.327 180.306 177.539 181.08C177.718 181.705 177.945 182.315 178.22 182.904C178.664 183.992 179.084 184.528 179.047 184.558Z" fill="#263238"/>
<path d="M155.899 173.334C155.978 173.376 155.899 173.692 155.722 174.057C155.546 174.422 155.406 174.714 155.321 174.665C155.236 174.617 155.272 174.3 155.431 173.917C155.589 173.534 155.826 173.291 155.899 173.334Z" fill="#455A64"/>
<path d="M158.495 172.324C158.574 172.36 158.495 172.671 158.392 173.035C158.288 173.4 158.136 173.692 158.051 173.643C157.966 173.595 157.966 173.291 158.088 172.908C158.209 172.525 158.416 172.288 158.495 172.324Z" fill="#455A64"/>
<path d="M161.833 172.257C161.912 172.288 161.87 172.646 161.736 173.06C161.602 173.473 161.42 173.789 161.341 173.759C161.262 173.729 161.298 173.376 161.432 172.962C161.566 172.549 161.748 172.233 161.833 172.257Z" fill="#455A64"/>
<path d="M164.965 172.653C165.05 172.653 165.019 173.036 164.898 173.455C164.776 173.875 164.606 174.197 164.527 174.173C164.448 174.148 164.472 173.79 164.594 173.364C164.715 172.938 164.88 172.628 164.965 172.653Z" fill="#455A64"/>
<path d="M167.604 174.307C167.519 174.307 167.446 173.881 167.452 173.358C167.458 172.835 167.525 172.416 167.616 172.416C167.707 172.416 167.768 172.841 167.768 173.358C167.768 173.875 167.689 174.307 167.604 174.307Z" fill="#455A64"/>
<path d="M170.534 173.558C170.443 173.558 170.322 173.194 170.255 172.719C170.188 172.245 170.206 171.85 170.291 171.838C170.376 171.826 170.504 172.203 170.571 172.677C170.638 173.151 170.632 173.546 170.534 173.558Z" fill="#455A64"/>
<path d="M173.246 170.901C173.331 170.901 173.471 171.242 173.556 171.698C173.641 172.154 173.641 172.537 173.556 172.549C173.471 172.561 173.331 172.209 173.246 171.753C173.161 171.297 173.161 170.914 173.246 170.901Z" fill="#455A64"/>
<path d="M176.749 170.257C176.834 170.257 176.797 170.774 176.676 171.37C176.554 171.965 176.372 172.44 176.286 172.421C176.201 172.403 176.238 171.905 176.366 171.309C176.493 170.713 176.663 170.239 176.749 170.257Z" fill="#455A64"/>
<path d="M179.752 170.342C179.831 170.378 179.619 170.95 179.272 171.558C178.925 172.166 178.585 172.689 178.512 172.646C178.578 172.21 178.743 171.794 178.992 171.43C179.333 170.792 179.655 170.305 179.752 170.342Z" fill="#455A64"/>
<path d="M182.811 171.145C182.884 171.193 182.604 171.753 182.203 172.397C181.801 173.042 181.382 173.528 181.309 173.48C181.236 173.431 181.516 172.872 181.917 172.227C182.318 171.583 182.738 171.096 182.811 171.145Z" fill="#455A64"/>
<path d="M184.781 172.993C184.848 173.042 184.58 173.546 184.173 174.124C183.765 174.702 183.388 175.127 183.322 175.079C183.255 175.03 183.516 174.519 183.93 173.942C184.343 173.364 184.708 172.938 184.781 172.993Z" fill="#455A64"/>
<path d="M186.155 175.34C186.228 175.389 185.954 175.881 185.492 176.392C185.03 176.903 184.568 177.219 184.513 177.158C184.459 177.098 184.811 176.678 185.261 176.179C185.711 175.681 186.082 175.286 186.155 175.34Z" fill="#455A64"/>
<path d="M185.954 178.921C186.021 178.97 185.869 179.268 185.511 179.426C185.152 179.584 184.823 179.499 184.836 179.426C184.848 179.353 185.097 179.274 185.383 179.146C185.669 179.019 185.887 178.861 185.954 178.921Z" fill="#455A64"/>
<path d="M184.009 181.986C184.009 182.065 183.954 182.168 183.82 182.15C183.686 182.132 183.644 181.998 183.699 181.931C183.718 181.902 183.744 181.878 183.775 181.861C183.806 181.844 183.84 181.835 183.875 181.834C183.908 181.846 183.938 181.867 183.961 181.893C183.984 181.92 184.001 181.952 184.009 181.986Z" fill="#455A64"/>
<path d="M162.806 183.196C163.238 182.286 163.57 181.332 163.797 180.35C163.927 179.342 163.947 178.323 163.858 177.31C164.21 178.294 164.298 179.353 164.113 180.381C163.929 181.409 163.478 182.371 162.806 183.172V183.196Z" fill="#263238"/>
<path d="M165.311 182.91C165.712 182.071 166.018 181.19 166.223 180.284C166.33 179.358 166.33 178.424 166.223 177.499C166.59 178.396 166.699 179.377 166.539 180.333C166.379 181.289 165.956 182.182 165.317 182.91H165.311Z" fill="#263238"/>
<path d="M168.467 182.928C169.561 181.186 169.948 179.091 169.549 177.073C169.723 177.331 169.831 177.627 169.866 177.936C170.008 178.671 170.008 179.427 169.866 180.162C169.734 180.899 169.46 181.604 169.057 182.235C168.759 182.716 168.497 182.953 168.467 182.928Z" fill="#263238"/>
<path d="M172.03 182.716C172.395 181.769 172.67 180.79 172.851 179.791C172.923 178.778 172.902 177.76 172.79 176.751C173.166 177.732 173.294 178.79 173.161 179.832C173.029 180.874 172.64 181.867 172.03 182.722V182.716Z" fill="#263238"/>
<path d="M162.168 180.046C162.005 180.117 161.827 180.142 161.651 180.119C161.169 180.088 160.702 179.936 160.295 179.675C159.711 179.281 159.201 178.787 158.787 178.216C158.507 177.894 158.284 177.526 158.13 177.128C158.054 176.899 158.035 176.654 158.076 176.416C158.122 176.161 158.255 175.929 158.453 175.76C158.645 175.606 158.871 175.502 159.113 175.456C159.355 175.41 159.604 175.425 159.839 175.498C160.253 175.634 160.626 175.87 160.927 176.185C161.428 176.689 161.816 177.295 162.064 177.961C162.233 178.403 162.333 178.868 162.362 179.341C162.389 179.513 162.379 179.69 162.332 179.858C162.239 179.235 162.08 178.623 161.858 178.034C161.592 177.414 161.205 176.854 160.721 176.386C160.454 176.106 160.121 175.897 159.754 175.778C159.568 175.723 159.372 175.713 159.181 175.749C158.991 175.784 158.812 175.865 158.659 175.985C158.521 176.113 158.425 176.281 158.384 176.466C158.342 176.65 158.358 176.843 158.428 177.018C158.572 177.385 158.777 177.724 159.036 178.022C159.42 178.578 159.892 179.066 160.435 179.469C160.945 179.823 161.547 180.023 162.168 180.046Z" fill="#263238"/>
<path d="M162.022 179.955C162.01 180.115 161.971 180.271 161.906 180.417C161.77 180.838 161.595 181.245 161.383 181.633C161.076 182.225 160.608 182.718 160.033 183.056C159.681 183.256 159.284 183.365 158.878 183.372C158.643 183.389 158.407 183.344 158.194 183.243C157.981 183.142 157.798 182.987 157.662 182.795C157.555 182.586 157.511 182.351 157.535 182.118C157.559 181.885 157.649 181.664 157.796 181.481C158.032 181.154 158.345 180.891 158.708 180.715C159.304 180.45 159.934 180.27 160.581 180.18C161.155 180.037 161.741 179.95 162.332 179.919C161.779 180.127 161.21 180.288 160.629 180.399C160.012 180.519 159.412 180.713 158.842 180.977C158.527 181.136 158.255 181.37 158.051 181.658C157.943 181.793 157.874 181.956 157.854 182.128C157.833 182.3 157.862 182.474 157.936 182.631C158.042 182.771 158.18 182.883 158.339 182.959C158.497 183.034 158.672 183.069 158.848 183.062C159.203 183.061 159.552 182.971 159.863 182.801C160.401 182.494 160.85 182.052 161.164 181.518C161.718 180.581 161.943 179.925 162.022 179.955Z" fill="#263238"/>
<path d="M161.772 182.546C161.699 182.485 162.052 182.017 162.155 181.329C162.259 180.642 162.089 180.113 162.155 180.065C162.31 180.243 162.417 180.457 162.468 180.688C162.519 180.918 162.512 181.157 162.447 181.384C162.344 182.169 161.821 182.612 161.772 182.546Z" fill="#263238"/>
<path d="M163.128 178.295C163.207 178.295 163.128 178.782 162.867 179.28C162.605 179.779 162.259 180.095 162.192 180.046C162.125 179.998 162.338 179.603 162.587 179.134C162.836 178.666 163.043 178.265 163.128 178.295Z" fill="#263238"/>
<path d="M172.863 173.771C172.446 174.048 171.992 174.263 171.513 174.41C169.24 175.258 166.815 175.622 164.393 175.48C163.893 175.478 163.396 175.406 162.916 175.267C164.602 175.288 166.287 175.2 167.962 175.006C169.621 174.701 171.258 174.289 172.863 173.771Z" fill="#355BE1"/>
<path d="M171.355 183.628C170.257 183.864 169.14 183.994 168.017 184.017C166.903 184.145 165.779 184.17 164.661 184.09C165.758 183.854 166.876 183.723 167.999 183.701C169.113 183.573 170.237 183.548 171.355 183.628Z" fill="#355BE1"/>
<path d="M179.424 183.865C180.186 183.758 180.916 183.488 181.564 183.075C182.249 182.607 182.799 181.967 183.157 181.22C183.57 180.297 183.685 179.268 183.486 178.277C183.292 177.279 182.825 176.355 182.136 175.608C181.567 175.003 180.885 174.516 180.129 174.173C179.411 173.881 178.666 173.663 177.904 173.522C178.115 173.484 178.331 173.484 178.542 173.522C179.117 173.589 179.679 173.735 180.214 173.954C181.019 174.28 181.746 174.771 182.349 175.395C183.09 176.173 183.593 177.148 183.796 178.204C184.011 179.261 183.879 180.36 183.419 181.336C183.027 182.12 182.428 182.783 181.686 183.251C181.19 183.564 180.636 183.771 180.056 183.859C179.848 183.901 179.633 183.903 179.424 183.865Z" fill="#355BE1"/>
<path d="M140.959 168.919L156.768 175.942C156.922 177.952 156.588 179.969 155.795 181.822C154.64 184.193 151.132 183.719 151.132 183.719L137.22 180.484L140.321 178.66L140.959 168.919Z" fill="#FFBE9D"/>
<path d="M155.09 183.068C154.464 182.631 153.893 182.12 153.387 181.548C152.883 180.969 152.598 180.231 152.585 179.463C152.654 178.771 152.887 178.106 153.266 177.523C153.589 176.819 154.145 176.247 154.841 175.906C155.716 175.577 156.665 175.954 157.522 176.374L157.686 179.9L155.09 183.068Z" fill="#D9D9D9"/>
<path d="M156.793 175.942C156.756 176.021 153.187 174.513 148.815 172.573C144.443 170.634 140.91 168.998 140.959 168.925C141.008 168.852 144.571 170.348 148.943 172.288C153.315 174.227 156.829 175.857 156.793 175.942Z" fill="#EB996E"/>
<path d="M174.791 112.188C174.943 112.197 175.095 112.175 175.239 112.124C175.383 112.073 175.515 111.994 175.628 111.891C175.741 111.789 175.833 111.665 175.898 111.527C175.963 111.39 176 111.24 176.007 111.088C176.183 106.09 172.887 94.7679 171.307 90.0677C170.34 87.1977 167.05 85.1 164.788 83.5555C162.028 81.6888 152.269 79.4026 149.052 78.5148H147.97L133.018 77.4021L124.803 81.3362C124.803 81.3362 113.415 85.6533 110.113 91.6729C106.811 97.6926 104.3 115.283 104.3 115.283C104.3 115.283 102.786 120.312 104.3 122.58C105.242 123.997 108.751 125.225 111.907 125.827C110.198 131.518 111.548 135.744 111.487 136.468C111.359 137.963 110.21 141.448 112.904 141.235C115.597 141.022 136.66 135.458 142.917 135.209C148.214 135.066 153.452 136.351 158.082 138.93C161.237 140.7 161.213 140.827 162.338 137.714C163.463 134.601 159.869 131.093 159.869 131.093C159.869 131.093 163.092 119.448 164.594 111.836L174.791 112.188Z" fill="#455A64"/>
<path d="M124.633 105.427C124.633 105.427 124.444 105.263 124.159 104.923C123.873 104.582 123.423 104.053 122.943 103.481C121.635 101.893 120.213 100.404 118.686 99.0245C117.836 98.2766 116.925 97.6013 115.962 97.0058C115.176 96.5263 114.348 96.1192 113.487 95.7897C112.01 95.2303 111.055 95.0904 111.055 95.0296C111.286 95.0249 111.517 95.0494 111.742 95.1026C112.011 95.1411 112.278 95.198 112.539 95.2728C112.89 95.3537 113.235 95.4573 113.573 95.583C114.461 95.8919 115.317 96.2891 116.126 96.7686C117.111 97.3596 118.041 98.0373 118.905 98.7934C120.46 100.181 121.885 101.707 123.161 103.354C123.654 103.962 124.043 104.497 124.299 104.862C124.427 105.04 124.539 105.229 124.633 105.427Z" fill="#263238"/>
<path d="M121.891 122.239C121.648 122.284 121.401 122.303 121.155 122.294C120.681 122.294 119.994 122.324 119.142 122.294C116.931 122.281 114.722 122.116 112.533 121.802C110.343 121.494 108.195 120.939 106.13 120.148C105.507 119.908 104.898 119.634 104.306 119.327C104.079 119.23 103.864 119.105 103.668 118.956C103.668 118.907 104.628 119.369 106.221 119.941C108.297 120.666 110.437 121.192 112.612 121.51C114.79 121.814 116.981 122.006 119.179 122.087L121.185 122.166C121.422 122.165 121.659 122.19 121.891 122.239Z" fill="#263238"/>
<path d="M153.509 127.943C153.46 128.105 153.386 128.259 153.29 128.399C153.062 128.791 152.812 129.171 152.542 129.536C150.749 131.966 148.324 133.858 145.532 135.008C145.112 135.186 144.681 135.336 144.242 135.458C144.086 135.517 143.922 135.551 143.756 135.562C143.756 135.507 144.407 135.282 145.44 134.808C146.78 134.18 148.046 133.407 149.216 132.503C150.379 131.588 151.435 130.546 152.366 129.396C153.053 128.514 153.436 127.919 153.509 127.943Z" fill="#263238"/>
<path d="M153.752 132.613C153.471 132.931 153.135 133.196 152.761 133.397C151.905 133.951 150.987 134.402 150.025 134.741C149.063 135.08 148.065 135.308 147.052 135.422C146.633 135.494 146.205 135.494 145.787 135.422C147.184 135.187 148.564 134.855 149.916 134.431C151.235 133.914 152.517 133.307 153.752 132.613Z" fill="#263238"/>
<path d="M171.264 90.0678C171.265 90.2427 171.24 90.4167 171.191 90.5846C171.096 91.0468 170.976 91.5035 170.832 91.9527C170.367 93.4374 169.737 94.8652 168.953 96.209C168.165 97.5556 167.231 98.8117 166.169 99.9546C165.761 100.386 165.415 100.721 165.159 100.94C164.904 101.159 164.764 101.274 164.746 101.256C164.728 101.238 165.232 100.702 166.004 99.8026C167.006 98.634 167.901 97.3785 168.68 96.0509C169.451 94.7176 170.1 93.3175 170.619 91.8676C171.021 90.767 171.215 90.0556 171.264 90.0678Z" fill="#263238"/>
<path d="M175.095 109.513C174.61 109.608 174.116 109.646 173.623 109.629C172.711 109.629 171.452 109.629 170.066 109.629C168.68 109.629 167.421 109.483 166.515 109.385C166.022 109.364 165.532 109.287 165.056 109.154C165.545 109.107 166.038 109.107 166.527 109.154L170.078 109.306L173.623 109.428C174.115 109.406 174.608 109.435 175.095 109.513Z" fill="#263238"/>
<path d="M163.238 92.0803C163.33 92.3412 163.4 92.6098 163.445 92.8829C163.566 93.491 163.724 94.2024 163.907 95.0901C164.284 96.9568 164.825 99.541 165.123 102.441C165.405 104.921 165.393 107.425 165.086 109.902C164.946 110.845 164.807 111.605 164.673 112.122C164.621 112.395 164.546 112.664 164.448 112.924C164.454 112.646 164.489 112.369 164.551 112.097C164.648 111.58 164.758 110.814 164.861 109.872C165.104 107.41 165.085 104.93 164.807 102.472C164.484 99.5958 163.98 96.9994 163.663 95.1327C163.499 94.1963 163.372 93.4302 163.299 92.9073C163.247 92.6348 163.227 92.3574 163.238 92.0803Z" fill="#263238"/>
<path d="M124.633 107.531C124.645 107.767 124.63 108.003 124.59 108.236C124.542 108.686 124.463 109.331 124.359 110.127C124.147 111.727 123.824 113.934 123.38 116.354C123.021 118.427 122.542 120.477 121.945 122.495C121.761 123.105 121.542 123.704 121.289 124.289C121.201 124.504 121.089 124.708 120.954 124.897C120.906 124.897 121.331 123.973 121.733 122.416C122.134 120.859 122.626 118.695 123.07 116.281C123.514 113.867 123.867 111.672 124.141 110.085C124.266 109.343 124.376 108.717 124.469 108.206C124.497 107.975 124.552 107.749 124.633 107.531Z" fill="#263238"/>
<path d="M122.584 97.8447C122.844 98.219 123.048 98.6285 123.192 99.0608C124.016 101.06 124.549 103.167 124.773 105.318C124.838 105.761 124.838 106.212 124.773 106.655C124.676 106.655 124.487 104.637 123.867 102.21C123.247 99.7844 122.499 97.8812 122.584 97.8447Z" fill="#263238"/>
<path d="M139.792 119.406C139.839 119.286 139.896 119.17 139.962 119.059C140.096 118.816 140.278 118.494 140.503 118.08L142.546 114.463C144.328 111.362 146.802 107.057 149.648 102.107L149.849 102.32C148.025 103.195 146.115 104.059 144.084 104.862C141.652 105.834 139.22 106.655 136.976 107.294L136.502 107.434L136.818 107.05L145.331 96.7137L147.824 93.7343L148.499 92.9438C148.574 92.8496 148.658 92.7622 148.748 92.6824C148.688 92.7874 148.619 92.8871 148.541 92.9803L147.903 93.7951L145.471 96.8353L137.031 107.263L136.867 107.02C139.104 106.351 141.506 105.53 143.945 104.588C145.963 103.785 147.897 102.928 149.691 102.065L150.147 101.846L149.891 102.277L142.692 114.578L140.57 118.153L139.962 119.108C139.914 119.212 139.857 119.312 139.792 119.406Z" fill="white"/>
<g opacity="0.3">
<path d="M150.7 136.048C151.417 136.237 152.792 134.066 153.588 132.734C151.156 134.084 148.809 135.702 146.085 135.112C147.599 134.707 148.99 133.935 150.135 132.865C151.281 131.795 152.145 130.46 152.652 128.977C150.749 131.879 147.94 134.071 144.662 135.209C144.662 135.209 149.563 135.75 150.7 136.048Z" fill="black"/>
</g>
<path d="M122.584 71.5042C122.584 71.5042 122.997 71.6744 123.8 71.8447C124.898 72.1072 126.052 71.9937 127.077 71.5224C127.768 71.1832 128.343 70.6482 128.731 69.9841C128.957 69.614 129.098 69.1986 129.144 68.7676C129.191 68.3365 129.141 67.9006 128.999 67.4911C128.855 67.036 128.593 66.6273 128.239 66.3068C127.886 65.9862 127.453 65.7654 126.986 65.6669C126.483 65.6099 125.975 65.7163 125.537 65.9704C125.099 66.2244 124.754 66.6126 124.554 67.0776C124.462 67.3115 124.419 67.5619 124.429 67.813C124.438 68.0641 124.499 68.3106 124.609 68.5369C124.838 68.9816 125.199 69.3447 125.642 69.5767C126.065 69.8169 126.543 69.9407 127.029 69.9354C127.498 69.9244 127.959 69.8167 128.385 69.6192C129.183 69.2345 129.879 68.6656 130.415 67.9593C130.901 67.3539 131.295 66.6797 131.583 65.9588C131.999 64.9063 132.206 63.7827 132.191 62.651C132.191 61.8545 132.088 61.4349 132.118 61.4045C132.161 61.5053 132.19 61.6118 132.203 61.7207C132.26 62.028 132.297 62.3388 132.313 62.651C132.369 63.8063 132.18 64.9605 131.759 66.0378C131.477 66.7875 131.083 67.4906 130.592 68.1234C130.038 68.8709 129.312 69.4737 128.476 69.8807C128.015 70.0999 127.514 70.222 127.004 70.2394C126.464 70.247 125.932 70.1128 125.46 69.8503C124.96 69.5871 124.554 69.1748 124.299 68.6707C124.168 68.4067 124.094 68.118 124.083 67.8235C124.071 67.5291 124.122 67.2355 124.232 66.9621C124.456 66.432 124.846 65.9893 125.344 65.7008C125.842 65.4123 126.421 65.2937 126.992 65.3629C127.511 65.4661 127.992 65.7067 128.386 66.0598C128.779 66.4128 129.071 66.8651 129.23 67.3695C129.382 67.8184 129.432 68.2953 129.379 68.7661C129.325 69.237 129.168 69.6902 128.92 70.0935C128.495 70.7912 127.876 71.3493 127.138 71.6988C126.064 72.1753 124.858 72.2614 123.727 71.942C123.424 71.8654 123.129 71.7617 122.845 71.6319C122.754 71.5987 122.666 71.5559 122.584 71.5042Z" fill="#263238"/>
<path d="M170.255 58.0847C170.382 56.8488 170.244 55.6 169.848 54.4222C169.453 53.2443 168.81 52.1649 167.962 51.2563C167.099 50.361 166.022 49.6994 164.833 49.3336C163.644 48.9678 162.382 48.9097 161.164 49.1646C159.412 49.4904 157.799 50.3382 156.537 51.5968C156.149 51.9863 155.832 52.4412 155.601 52.9406C155.558 53.0136 155.522 53.0926 155.479 53.1717C155.437 53.2507 155.388 53.3723 155.345 53.4757V53.5243C154.593 55.246 154.405 57.1619 154.81 58.9967C155.136 60.3815 155.81 61.6602 156.768 62.7124C157.725 63.7646 158.935 64.5554 160.283 65.0103C161.646 65.4207 163.096 65.4494 164.475 65.0935C165.853 64.7376 167.108 64.0106 168.102 62.9916C169.341 61.6382 170.098 59.913 170.255 58.0847Z" fill="#263238"/>
<path d="M169.166 62.1463C169.112 62.1463 169.002 61.4531 168.558 60.4133C168.008 59.0562 167.153 57.8437 166.06 56.8695C164.967 55.8953 163.664 55.1855 162.253 54.795C161.17 54.491 160.429 54.4666 160.465 54.4058C160.63 54.3784 160.799 54.3784 160.964 54.4058C161.417 54.43 161.866 54.4951 162.308 54.6004C163.78 54.9398 165.144 55.6447 166.272 56.65C167.401 57.6553 168.258 58.9286 168.765 60.3525C168.919 60.7794 169.035 61.2188 169.112 61.6659C169.156 61.822 169.174 61.9842 169.166 62.1463Z" fill="#455A64"/>
<path d="M166.789 57.3428C166.678 57.8444 166.491 58.3262 166.235 58.7717C165.668 59.8775 164.939 60.892 164.071 61.7815C163.197 62.663 162.194 63.4072 161.097 63.9887C160.658 64.261 160.181 64.466 159.681 64.5968C159.62 64.4934 161.845 63.63 163.846 61.5565C165.846 59.4831 166.692 57.282 166.789 57.3428Z" fill="#455A64"/>
<path d="M160.228 54.7281C160.137 54.6734 160.866 53.512 161.444 51.9554C161.769 51.0042 161.983 50.0187 162.083 49.0186C162.189 49.3059 162.226 49.6141 162.192 49.9185C162.16 50.6537 162.008 51.3787 161.742 52.0649C161.412 53.0411 160.898 53.9451 160.228 54.7281Z" fill="#355BE1"/>
<path d="M160.319 52.6122C160.468 49.1422 159.296 45.7448 157.039 43.1046C154.782 40.4644 151.609 38.7776 148.158 38.3839C146.377 38.1852 144.574 38.3478 142.856 38.8619C141.139 39.3759 139.543 40.231 138.164 41.3758C136.785 42.5207 135.65 43.9318 134.829 45.525C134.007 47.1182 133.516 48.8606 133.383 50.6482L132.167 80.6613C132.145 81.2423 132.318 81.8138 132.659 82.2848C134.552 84.8826 137.392 86.6302 140.564 87.1492C143.313 87.4176 146.075 86.7906 148.438 85.3615C148.823 85.1336 149.141 84.8087 149.361 84.4192C149.581 84.0297 149.694 83.5894 149.691 83.1421V76.4536C149.691 76.4423 149.695 76.4315 149.703 76.4235C149.711 76.4156 149.722 76.4111 149.733 76.4111C150.361 76.4469 150.99 76.4184 151.612 76.3259C153.381 75.8577 157.875 74.0336 159.267 67.3634C159.675 65.1014 160.07 58.8386 160.319 52.6122Z" fill="#FFBE9D"/>
<path d="M150.645 62.5962C151.28 62.4372 151.931 62.3555 152.585 62.353C152.889 62.353 153.193 62.2922 153.242 62.0915C153.277 61.7858 153.22 61.4765 153.077 61.2038C152.828 60.468 152.561 59.6958 152.287 58.8932C151.192 55.6037 150.414 52.91 150.548 52.8675C150.682 52.8249 151.679 55.4577 152.773 58.7412C153.035 59.556 153.29 60.3282 153.527 61.0639C153.701 61.4302 153.738 61.8465 153.631 62.2374C153.581 62.3409 153.509 62.4318 153.42 62.5034C153.33 62.575 153.226 62.6254 153.114 62.6509C152.944 62.6875 152.77 62.7018 152.597 62.6935C151.945 62.7414 151.289 62.7087 150.645 62.5962Z" fill="#263238"/>
<path d="M157.431 57.0873C157.417 57.3712 157.293 57.6384 157.085 57.8324C156.877 58.0265 156.602 58.1321 156.318 58.1271C156.179 58.1319 156.039 58.1089 155.909 58.0594C155.778 58.0098 155.659 57.9347 155.557 57.8385C155.456 57.7423 155.375 57.6268 155.319 57.4989C155.262 57.371 155.232 57.2331 155.23 57.0934C155.241 56.8084 155.364 56.5394 155.572 56.3447C155.781 56.15 156.058 56.0454 156.343 56.0536C156.482 56.0488 156.621 56.0718 156.752 56.1213C156.883 56.1708 157.002 56.2459 157.104 56.3422C157.205 56.4384 157.286 56.5538 157.342 56.6818C157.398 56.8097 157.429 56.9476 157.431 57.0873Z" fill="#263238"/>
<path d="M158.525 53.7858C158.416 53.9013 157.534 53.8466 156.415 54.2236C155.297 54.6006 154.555 55.1904 154.409 55.16C154.263 55.1296 154.409 54.9654 154.756 54.6979C155.227 54.3284 155.76 54.0444 156.33 53.8588C156.878 53.6641 157.458 53.5774 158.039 53.6034C158.422 53.6338 158.58 53.725 158.525 53.7858Z" fill="#263238"/>
<path d="M146.024 56.3395C146.01 56.6234 145.886 56.8906 145.678 57.0846C145.471 57.2787 145.195 57.3843 144.911 57.3793C144.772 57.3833 144.633 57.3597 144.503 57.3099C144.372 57.26 144.253 57.1849 144.152 57.0888C144.051 56.9928 143.97 56.8776 143.913 56.7501C143.857 56.6225 143.826 56.4851 143.823 56.3456C143.836 56.0612 143.959 55.793 144.167 55.5987C144.375 55.4043 144.651 55.2992 144.936 55.3058C145.075 55.3009 145.215 55.324 145.345 55.3735C145.476 55.423 145.595 55.4981 145.697 55.5944C145.798 55.6906 145.879 55.806 145.935 55.934C145.992 56.0619 146.022 56.1998 146.024 56.3395Z" fill="#263238"/>
<path d="M146.413 54.7586C146.237 54.7586 145.592 54.0654 144.437 53.5425C143.282 53.0196 142.272 52.8858 142.187 52.7521C142.102 52.6183 142.351 52.6244 142.795 52.6669C143.43 52.7442 144.047 52.9293 144.619 53.2142C145.19 53.4734 145.706 53.8386 146.14 54.2904C146.444 54.5701 146.492 54.7525 146.413 54.7586Z" fill="#263238"/>
<path d="M149.636 76.3684C149.636 76.3684 145.045 76.5022 139.475 72.8296C139.475 72.8296 141.008 78.8675 149.636 78.5148V76.3684Z" fill="#EB996E"/>
<path d="M150.019 65.375C149.802 65.0852 149.518 64.8535 149.19 64.7007C148.862 64.5479 148.501 64.4788 148.14 64.4994C147.879 64.5102 147.622 64.5727 147.385 64.6834C147.148 64.794 146.936 64.9505 146.76 65.1439C146.596 65.3303 146.492 65.5625 146.464 65.8093C146.436 66.056 146.484 66.3055 146.602 66.5242C146.784 66.7444 147.027 66.9061 147.301 66.9893C147.574 67.0725 147.866 67.0736 148.14 66.9924C148.705 66.8244 149.232 66.5476 149.691 66.1776C149.829 66.0914 149.951 65.98 150.049 65.8493C150.092 65.7854 150.115 65.7103 150.115 65.6334C150.115 65.5566 150.092 65.4815 150.049 65.4176" fill="#EB996E"/>
<path d="M147.125 63.2228C147.313 63.2228 147.258 64.4875 148.341 65.4421C149.423 66.3968 150.773 66.3238 150.773 66.5001C150.773 66.5792 150.457 66.7312 149.879 66.719C149.127 66.6895 148.407 66.4018 147.842 65.9042C147.313 65.4362 146.982 64.7837 146.918 64.0801C146.875 63.5207 147.033 63.2106 147.125 63.2228Z" fill="#263238"/>
<path d="M147.21 50.0524C147.046 50.3442 145.902 49.9976 144.504 49.9186C143.105 49.8395 141.932 50.022 141.798 49.7058C141.743 49.5598 141.981 49.2984 142.479 49.0977C143.14 48.8232 143.857 48.7086 144.571 48.7633C145.287 48.8009 145.983 49.0094 146.602 49.3713C147.076 49.6146 147.289 49.9125 147.21 50.0524Z" fill="#263238"/>
<path d="M158.501 50.2225C158.282 50.4778 157.48 50.1617 156.501 50.1009C155.522 50.04 154.677 50.186 154.5 49.9002C154.421 49.7603 154.567 49.4989 154.938 49.2921C155.444 49.0197 156.018 48.8994 156.591 48.9458C157.164 48.9921 157.711 49.2032 158.167 49.5536C158.501 49.8333 158.598 50.113 158.501 50.2225Z" fill="#263238"/>
<path d="M149.155 36.8455C148.547 35.8058 147.331 35.3497 146.067 35.1734C140.801 34.4802 135 37.7515 132.142 42.2267C129.285 46.7019 129.248 53.3236 131.492 58.1271L133.468 58.4372C137.566 58.115 144.255 46.556 149.885 40.1351C150.584 39.3446 149.715 37.7698 149.155 36.8455Z" fill="#263238"/>
<path d="M159.273 40.1229C157.036 37.6907 153.406 34.687 148.882 36.4746C148.231 37.7637 149.618 39.3993 150.761 40.3418C152.445 41.7342 153.91 42.6645 155.017 43.6557C157.249 45.6683 160.033 49.0125 160.319 52.7763C160.319 53.0135 160.52 53.0439 160.757 53.0013C160.994 52.9588 161.736 51.4022 162.064 49.353C162.745 44.9994 161.517 42.5794 159.273 40.1229Z" fill="#263238"/>
<path d="M133.79 51.5724C133.548 50.5665 133.073 49.6315 132.404 48.8423C131.967 48.3236 131.449 47.8781 130.872 47.5228C129.791 46.9054 128.572 46.5721 127.328 46.554C126.084 46.5359 124.855 46.8337 123.757 47.4194C122.676 48.025 121.737 48.8548 121.003 49.8532C120.269 50.8516 119.757 51.9955 119.501 53.208C119.082 54.9991 119.268 56.8786 120.03 58.5528C120.667 59.8263 121.641 60.9006 122.846 61.6586C124.051 62.4167 125.441 62.8293 126.865 62.8516C128.289 62.8361 129.685 62.4578 130.923 61.7524C132.16 61.047 133.197 60.0379 133.936 58.8203C134.945 57.1056 134.66 54.0775 133.79 51.5724Z" fill="#263238"/>
<path d="M134.727 56.0232C134.605 55.9624 129.716 54.1322 129.503 59.2398C129.291 64.3474 134.465 63.4961 134.477 63.3623C134.489 63.2286 134.727 56.0232 134.727 56.0232Z" fill="#FFBE9D"/>
<path d="M133 61.3622C133 61.3622 132.909 61.423 132.757 61.4838C132.542 61.5691 132.302 61.5691 132.088 61.4838C131.559 61.2588 131.139 60.3832 131.151 59.4651C131.155 59.0259 131.259 58.5934 131.455 58.2003C131.51 58.0425 131.602 57.9003 131.724 57.786C131.846 57.6716 131.994 57.5884 132.155 57.5436C132.258 57.5214 132.365 57.5359 132.458 57.5848C132.552 57.6337 132.625 57.7138 132.665 57.8112C132.732 57.9571 132.696 58.0544 132.72 58.0665C132.744 58.0787 132.836 57.9875 132.799 57.7747C132.78 57.6453 132.713 57.528 132.611 57.4463C132.475 57.3335 132.3 57.2788 132.124 57.2943C131.913 57.3281 131.714 57.4151 131.546 57.547C131.378 57.6789 131.246 57.8514 131.163 58.0483C130.929 58.482 130.804 58.9661 130.799 59.459C130.799 60.4866 131.273 61.4716 132.015 61.7209C132.151 61.7664 132.295 61.7807 132.437 61.7628C132.579 61.7449 132.715 61.6952 132.836 61.6175C132.988 61.4838 133.018 61.3743 133 61.3622Z" fill="#EB996E"/>
<path d="M160.325 41.1444C159.84 41.2779 159.339 41.3434 158.836 41.339C157.628 41.4069 156.418 41.3662 155.218 41.2174C154.021 41.0784 152.839 40.8363 151.685 40.4938C151.196 40.3773 150.725 40.1931 150.286 39.9465C150.781 40.0214 151.268 40.1331 151.746 40.281C152.908 40.561 154.086 40.7762 155.272 40.9255C156.459 41.0617 157.653 41.1328 158.848 41.1383C159.34 41.1008 159.834 41.1028 160.325 41.1444Z" fill="#455A64"/>
<path d="M162.022 44.8111C161.673 44.9693 161.297 45.0581 160.915 45.0725C159.993 45.1739 159.061 45.1247 158.155 44.9266C157.25 44.7276 156.384 44.3847 155.589 43.9111C155.244 43.7396 154.938 43.4996 154.689 43.2058C155.803 43.8206 156.99 44.2945 158.221 44.6165C159.476 44.8327 160.752 44.898 162.022 44.8111Z" fill="#455A64"/>
<path d="M131.492 43.9901C131.492 43.9232 132.598 44.1178 134.38 44.0692C135.424 44.0408 136.465 43.9351 137.493 43.753C138.748 43.5166 139.985 43.1957 141.196 42.7923C142.406 42.3751 143.588 41.8816 144.735 41.3147C145.668 40.8456 146.573 40.3238 147.447 39.752C148.943 38.7792 149.776 38.0434 149.818 38.086C149.648 38.2862 149.458 38.4695 149.253 38.6332C149.07 38.8035 148.833 38.9981 148.547 39.2413C148.262 39.4845 147.939 39.7155 147.575 39.9648C146.707 40.5677 145.801 41.114 144.863 41.6005C143.711 42.1871 142.521 42.693 141.3 43.1145C140.073 43.526 138.817 43.8431 137.542 44.0631C136.499 44.2338 135.443 44.3192 134.386 44.3185C133.98 44.3257 133.574 44.3094 133.17 44.2698C132.864 44.2583 132.559 44.2258 132.258 44.1725C131.997 44.1355 131.741 44.0745 131.492 43.9901Z" fill="#455A64"/>
<path d="M149.478 39.8858C149.367 40.1365 149.231 40.3749 149.07 40.5973C148.931 40.8222 148.754 41.0959 148.529 41.3938C148.304 41.6917 148.067 42.0505 147.751 42.4032C147.051 43.2611 146.285 44.0622 145.459 44.7989C144.439 45.6927 143.342 46.4944 142.181 47.1946C141.006 47.8805 139.771 48.4565 138.49 48.9153C137.446 49.2813 136.372 49.5579 135.28 49.7423C134.818 49.8396 134.392 49.87 134.021 49.9125C133.703 49.9568 133.382 49.9812 133.061 49.9855C132.787 50.0079 132.513 50.0079 132.24 49.9855C132.24 49.9186 133.407 49.8943 135.237 49.5295C136.31 49.3148 137.365 49.0201 138.393 48.6478C140.915 47.7289 143.245 46.3496 145.264 44.58C146.092 43.8653 146.866 43.091 147.581 42.2633C148.809 40.8283 149.423 39.8433 149.478 39.8858Z" fill="#455A64"/>
<path d="M146.067 35.1916C146.41 35.1244 146.764 35.1495 147.094 35.2646C147.905 35.496 148.632 35.9537 149.192 36.584C149.353 36.7728 149.495 36.9764 149.618 37.1921C149.724 37.3851 149.81 37.5889 149.873 37.8001C149.996 38.1488 150.092 38.5067 150.159 38.8703C150.249 39.2114 150.224 39.573 150.086 39.8979C150.031 39.8979 150.086 39.5027 149.94 38.9189C149.844 38.572 149.729 38.2309 149.593 37.8974C149.532 37.699 149.451 37.5074 149.35 37.3258C149.235 37.1375 149.103 36.9604 148.955 36.7968C148.429 36.207 147.767 35.7541 147.027 35.4774C146.456 35.2767 146.067 35.2463 146.067 35.1916Z" fill="#455A64"/>
<path d="M132.586 55.5794C132.538 55.5794 132.69 55.0504 132.799 54.2113C132.936 53.1165 132.872 52.0058 132.611 50.9339C132.333 49.8692 131.803 48.8868 131.066 48.07C130.458 47.462 130.032 47.164 130.069 47.1093C130.105 47.0546 130.197 47.1519 130.409 47.2796C130.703 47.451 130.976 47.655 131.224 47.8876C132.046 48.6961 132.63 49.7138 132.915 50.8306C133.197 51.9383 133.232 53.0945 133.018 54.2174C132.959 54.6941 132.813 55.1559 132.586 55.5794Z" fill="#355BE1"/>
<path d="M132.969 54.4789C132.939 54.5215 132.313 54.1202 131.236 53.5851C128.43 52.1982 125.331 51.5079 122.201 51.5725C120.985 51.5725 120.267 51.6941 120.255 51.6454C120.417 51.5758 120.59 51.5327 120.766 51.5177C121.238 51.4324 121.715 51.3756 122.195 51.3475C125.366 51.1597 128.527 51.8677 131.315 53.3905C131.737 53.6155 132.143 53.8673 132.531 54.1445C132.836 54.3208 132.981 54.4364 132.969 54.4789Z" fill="#455A64"/>
<path d="M128.318 52.4238C128.265 52.9406 128.136 53.4468 127.935 53.9257C127.511 55.1017 126.937 56.2177 126.226 57.2456C125.512 58.2725 124.666 59.2007 123.709 60.0062C123.332 60.363 122.904 60.6603 122.438 60.8878C123.747 59.7432 124.93 58.461 125.965 57.0632C126.911 55.6047 127.7 54.0494 128.318 52.4238Z" fill="#455A64"/>
<path d="M131.68 62.347C131.717 62.2498 131.899 62.189 132.203 62.268C132.643 62.4016 133.022 62.6857 133.273 63.0706C133.611 63.5766 133.742 64.1927 133.639 64.7922C133.536 65.3916 133.207 65.9288 132.72 66.2933C132.312 66.5854 131.825 66.7485 131.324 66.7615C130.822 66.7745 130.328 66.6368 129.905 66.3662C129.531 66.1222 129.226 65.7875 129.017 65.3934C128.824 65.0366 128.724 64.6374 128.725 64.232C128.737 63.9041 128.814 63.5818 128.95 63.2834C129.122 62.8444 129.458 62.4892 129.887 62.2923C130.209 62.1707 130.403 62.2558 130.428 62.3531C130.464 62.572 130.081 62.8639 130.02 63.6118C129.993 63.7932 129.993 63.9776 130.02 64.159C130.069 64.3363 130.149 64.5032 130.257 64.6515C130.369 64.8146 130.519 64.948 130.694 65.0402C130.868 65.1323 131.063 65.1805 131.261 65.1805C131.448 65.1835 131.632 65.1338 131.792 65.037C131.953 64.9403 132.082 64.8003 132.167 64.6333C132.335 64.311 132.372 63.9364 132.27 63.5875C132.088 62.9125 131.619 62.5538 131.68 62.347Z" fill="#455A64"/>
<path d="M136.855 54.266C137.896 54.192 138.927 54.0107 139.931 53.7248C142.329 52.9268 144.441 51.4478 146.012 49.4685C147.551 47.469 148.706 45.2011 149.417 42.78C149.709 41.8497 149.909 41.0897 150.025 40.5667C150.076 40.2885 150.154 40.0157 150.256 39.752C150.244 40.0347 150.206 40.3157 150.14 40.5911C150.049 41.1261 149.879 41.8984 149.618 42.8408C148.957 45.3195 147.807 47.641 146.237 49.6692C144.633 51.6885 142.453 53.1728 139.986 53.9255C139.24 54.1433 138.47 54.2679 137.694 54.2964C137.491 54.3062 137.288 54.3062 137.086 54.2964C136.934 54.2842 136.855 54.2782 136.855 54.266Z" fill="#263238"/>
<path d="M149.466 80.8619C149.577 80.8935 149.682 80.945 149.776 81.0139C150.052 81.1979 150.297 81.4259 150.499 81.6889C150.821 82.108 151.049 82.5911 151.168 83.1056C151.337 83.7891 151.318 84.5055 151.113 85.1791C150.812 86.0402 150.32 86.8224 149.675 87.4676C149.029 88.1128 148.247 88.6046 147.386 88.9064C146.392 89.2848 145.354 89.5381 144.297 89.6603C143.169 89.8096 142.029 89.8544 140.892 89.7941C138.675 89.7158 136.521 89.037 134.66 87.8301C133.136 86.8369 131.946 85.4093 131.242 83.7319C130.97 83.0896 130.832 82.3986 130.835 81.701C130.842 81.1694 130.984 80.6483 131.249 80.187C131.414 79.8973 131.638 79.6448 131.905 79.4452C131.995 79.374 132.095 79.3185 132.203 79.281C131.853 79.5365 131.564 79.8668 131.358 80.2478C131.123 80.6958 131.004 81.1953 131.011 81.701C131.03 82.3737 131.179 83.0364 131.449 83.6529C132.164 85.267 133.337 86.6352 134.824 87.5869C136.647 88.7461 138.745 89.3988 140.904 89.4779C142.023 89.5371 143.144 89.4943 144.255 89.3502C145.294 89.2405 146.316 88.9994 147.295 88.6328C148.127 88.3571 148.887 87.8982 149.518 87.29C150.15 86.6817 150.637 85.9396 150.943 85.1182C151.12 84.5576 151.167 83.9641 151.08 83.3826C150.994 82.8012 150.776 82.247 150.444 81.7618C150.169 81.4105 149.839 81.1065 149.466 80.8619Z" fill="#263238"/>
<path d="M136.089 88.7423C135.995 88.2376 136.102 87.7162 136.386 87.2891C136.776 86.5351 137.365 86.152 137.414 86.2189C137.463 86.2858 137.019 86.7479 136.666 87.435C136.314 88.1221 136.18 88.7545 136.089 88.7423Z" fill="#263238"/>
<path d="M141.792 89.8246C141.657 89.4132 141.621 88.9755 141.689 88.5477C141.689 87.8484 141.804 87.283 141.895 87.283C142.031 87.6942 142.068 88.1315 142.005 88.5599C141.956 89.2591 141.883 89.8246 141.792 89.8246Z" fill="#263238"/>
<path d="M147.52 88.9793C147.122 88.0905 146.925 87.1253 146.942 86.1519C147.187 86.5748 147.339 87.0455 147.386 87.5321C147.532 87.9997 147.578 88.4929 147.52 88.9793Z" fill="#263238"/>
<path d="M150.864 85.3311C150.785 85.3737 150.548 85.0575 150.153 84.8021C149.757 84.5467 149.38 84.4373 149.387 84.3461C149.393 84.2549 149.861 84.2245 150.329 84.5346C150.797 84.8447 150.943 85.3007 150.864 85.3311Z" fill="#263238"/>
<path d="M133.067 83.057C133.067 83.1421 132.744 83.2577 132.422 83.5252C132.1 83.7928 131.899 84.0785 131.814 84.0481C131.729 84.0177 131.814 83.5921 132.221 83.2759C132.629 82.9597 133.061 82.978 133.067 83.057Z" fill="#263238"/>
<path d="M143.069 123.747C142.863 123.737 142.663 123.678 142.486 123.574C142.308 123.47 142.158 123.325 142.049 123.15C141.94 122.976 141.874 122.778 141.858 122.572C141.842 122.367 141.876 122.161 141.956 121.972C143.598 118.275 148.079 111.161 148.371 110.699C148.797 110.054 149.022 109.258 150.384 109.094C150.907 109.033 159.115 108.844 161.043 108.802C161.199 108.796 161.354 108.82 161.5 108.875C161.646 108.929 161.78 109.012 161.894 109.118C162.277 109.483 162.678 110.176 162.07 111.264C161.389 112.48 156.428 120.184 154.415 123.152C154.219 123.44 153.952 123.675 153.641 123.833C153.329 123.992 152.983 124.069 152.634 124.058L143.069 123.747Z" fill="#263238"/>
<path d="M155.735 111.453C155.656 111.36 155.551 111.293 155.434 111.261C155.317 111.228 155.193 111.232 155.078 111.27C154.857 111.343 154.658 111.471 154.5 111.641C154.408 111.717 154.345 111.824 154.322 111.941C154.3 112.059 154.32 112.181 154.379 112.286C154.448 112.361 154.534 112.418 154.631 112.451C154.728 112.484 154.831 112.492 154.932 112.474C155.191 112.459 155.436 112.348 155.619 112.164C155.707 112.071 155.765 111.953 155.786 111.826C155.806 111.699 155.788 111.569 155.735 111.453Z" fill="white"/>
<path d="M159.954 113.125C160.037 112.877 160.145 112.639 160.277 112.413C160.398 112.176 160.532 111.903 160.69 111.605C160.775 111.447 160.86 111.276 160.952 111.1C161.063 110.939 161.134 110.753 161.158 110.559C161.161 110.46 161.14 110.362 161.097 110.272C161.054 110.183 160.989 110.106 160.909 110.048C160.814 109.988 160.708 109.947 160.598 109.928C160.487 109.91 160.374 109.913 160.264 109.939L158.586 110.005L154.749 110.139L150.907 110.255H150.481C150.366 110.265 150.257 110.307 150.165 110.376C149.997 110.562 149.85 110.766 149.727 110.984C149.447 111.422 149.186 111.836 148.937 112.201L147.781 113.97C147.649 114.188 147.494 114.392 147.319 114.578C147.413 114.334 147.533 114.102 147.678 113.885L148.748 112.061L149.502 110.808L149.709 110.468C149.78 110.333 149.875 110.211 149.988 110.109C150.119 109.999 150.281 109.931 150.451 109.914H150.901L154.725 109.811L158.568 109.701L160.24 109.665C160.522 109.618 160.812 109.681 161.049 109.841C161.155 109.926 161.239 110.035 161.295 110.158C161.351 110.282 161.377 110.417 161.371 110.553C161.366 110.679 161.33 110.802 161.268 110.911L161.116 111.185L160.83 111.678C160.66 111.969 160.508 112.231 160.368 112.462C160.255 112.698 160.117 112.92 159.954 113.125Z" fill="#455A64"/>
<path d="M173.696 112.201C173.696 112.201 172.863 117.989 172.012 121.71C171.252 125.024 170.042 136.224 166.965 137.635C163.888 139.046 160.052 138.164 158.635 135.434C157.218 132.704 155.698 125.438 155.698 125.438L149.253 122.726C149.253 122.726 147.769 117.32 148.614 116.712C149.459 116.104 157.778 117.016 157.778 117.016L160.009 116.512C160.009 116.512 156.458 116.001 155.698 115.8C155.525 115.775 155.359 115.716 155.211 115.625C155.062 115.534 154.933 115.414 154.831 115.272C154.73 115.13 154.659 114.969 154.622 114.798C154.585 114.628 154.583 114.451 154.616 114.28C154.792 113.569 154.938 112.857 156.859 112.857C158.781 112.857 161.797 112.571 162.332 112.76C163.013 112.991 163.779 113.368 163.931 115.089C164.083 116.81 163.274 119.953 163.274 119.953L163.451 120.221L164.588 111.842L173.696 112.201Z" fill="#FFBE9D"/>
<path d="M162.873 122.197C162.712 122.296 162.535 122.366 162.35 122.404C161.866 122.566 161.372 122.7 160.872 122.805C159.222 123.164 157.53 123.293 155.844 123.188C154.155 123.08 152.493 122.717 150.913 122.112C150.434 121.94 149.967 121.737 149.514 121.504C149.341 121.43 149.179 121.332 149.034 121.212C149.034 121.163 149.776 121.504 150.992 121.917C152.566 122.445 154.2 122.769 155.856 122.884C157.512 122.976 159.173 122.874 160.806 122.58C162.095 122.361 162.861 122.148 162.873 122.197Z" fill="#EB996E"/>
<path d="M161.651 119.874C161.486 119.955 161.309 120.01 161.128 120.038C160.787 120.124 160.289 120.233 159.669 120.336C158.042 120.609 156.386 120.67 154.743 120.519C153.094 120.361 151.49 119.895 150.013 119.145C149.568 118.916 149.143 118.652 148.742 118.354C148.462 118.141 148.316 118.008 148.329 117.989C148.341 117.971 148.985 118.415 150.11 118.944C151.587 119.618 153.165 120.043 154.78 120.203C156.4 120.351 158.031 120.32 159.644 120.111C160.879 119.965 161.645 119.826 161.651 119.874Z" fill="#EB996E"/>
<path d="M163.663 113.897C163.7 113.897 163.815 114.183 163.785 114.676C163.776 114.976 163.695 115.27 163.548 115.533C163.446 115.693 163.303 115.823 163.134 115.91C162.972 116.002 162.801 116.077 162.624 116.135C162.022 116.321 161.399 116.428 160.769 116.451C160.517 116.487 160.263 116.507 160.009 116.512C160.009 116.469 160.264 116.317 160.739 116.232C161.343 116.14 161.94 116.008 162.526 115.837C162.825 115.76 163.095 115.6 163.305 115.375C163.439 115.153 163.527 114.907 163.566 114.651C163.582 114.398 163.615 114.146 163.663 113.897Z" fill="#EB996E"/>
<path d="M160.599 123.638C160.678 123.802 160.718 123.982 160.718 124.164C160.718 124.346 160.678 124.526 160.599 124.69C160.473 125.068 160.248 125.406 159.948 125.669C159.579 125.988 159.129 126.199 158.647 126.277C158.174 126.359 157.689 126.338 157.224 126.216C156.857 126.111 156.502 125.967 156.166 125.784C155.848 125.646 155.546 125.473 155.266 125.267C155.614 125.305 155.951 125.41 156.257 125.578C156.979 125.939 157.793 126.074 158.592 125.967C159.019 125.899 159.421 125.723 159.76 125.456C160.024 125.229 160.232 124.944 160.368 124.623C160.49 124.307 160.568 123.975 160.599 123.638Z" fill="#EB996E"/>
<path d="M163.28 113.313C163.28 113.313 163.323 113.313 163.396 113.38C163.499 113.465 163.586 113.568 163.651 113.684C163.879 114.118 164.004 114.599 164.016 115.089C164.051 116.747 163.847 118.402 163.408 120.002V119.917C163.721 120.747 164.105 121.549 164.557 122.312C165.183 123.373 165.882 124.389 166.649 125.353C167.348 126.107 167.959 126.937 168.473 127.827C168.791 128.467 168.854 129.204 168.649 129.889C168.588 130.071 168.495 130.242 168.376 130.393C168.297 130.491 168.242 130.533 168.236 130.527C168.353 130.311 168.451 130.085 168.528 129.852C168.678 129.2 168.587 128.515 168.272 127.925C167.745 127.07 167.134 126.269 166.448 125.535C165.659 124.577 164.943 123.561 164.308 122.495C163.849 121.72 163.461 120.906 163.147 120.063V120.014V119.971C163.58 118.396 163.813 116.771 163.84 115.137C163.843 114.671 163.754 114.208 163.578 113.775C163.488 113.615 163.389 113.461 163.28 113.313Z" fill="#EB996E"/>
<path d="M106.379 124.131C106.379 124.131 105.437 137.058 111.451 139.222C119.738 142.214 129.187 133.957 129.224 133.823C129.26 133.689 139.281 125.62 139.281 125.62L136.162 117.029C136.162 117.029 134.909 117.029 132.884 118.476C132.148 118.999 120.535 125.122 120.535 125.122C120.535 125.122 115.464 125.079 106.379 124.131Z" fill="#FFBE9D"/>
<path d="M120.954 124.927C120.997 125.024 118.808 125.912 116.163 127.098C114.843 127.706 113.682 128.314 112.849 128.752C112.415 129.026 111.959 129.266 111.487 129.469C111.862 129.113 112.281 128.806 112.734 128.557C113.796 127.905 114.898 127.322 116.035 126.812C117.361 126.204 118.589 125.73 119.483 125.401C119.957 125.196 120.45 125.037 120.954 124.927Z" fill="#EB996E"/>
<path d="M147.27 112.346C147.27 112.346 145.702 110.127 145.082 110.133C144.461 110.139 140.722 110.741 140.722 110.741L135.438 116.499C135.438 116.499 135.073 118.366 136.216 119.041C136.216 119.041 135.833 121.978 137.244 122.823C137.244 122.823 138.296 125.584 139.281 125.638C139.697 125.676 140.117 125.676 140.533 125.638C140.533 125.638 140.321 127.298 141.822 127.402C143.312 127.379 144.797 127.231 146.261 126.958C146.478 126.921 146.685 126.842 146.871 126.726C147.056 126.609 147.217 126.456 147.343 126.277L148.633 124.453C148.836 124.17 148.945 123.831 148.945 123.483C148.945 123.135 148.836 122.795 148.633 122.513C148.971 122.111 149.235 121.652 149.411 121.157C149.496 120.582 149.496 119.999 149.411 119.424C149.411 119.424 151.642 117.533 151.697 117.04C151.752 116.548 151.642 116.074 150.657 116.128C150.657 116.128 150.451 114.602 149.204 114.639C147.958 114.675 142.053 114.639 142.053 114.639L143.178 113.544C143.178 113.544 146.115 114.663 146.425 113.921L147.27 112.346Z" fill="#FFBE9D"/>
<path d="M138.794 118.962C139.112 118.916 139.434 118.893 139.755 118.895C140.363 118.859 141.263 118.804 142.37 118.676C143.673 118.522 144.966 118.292 146.243 117.989C146.966 117.813 147.72 117.606 148.499 117.381C149.272 117.084 149.97 116.619 150.542 116.019L150.578 115.989H150.621C150.91 115.919 151.214 115.949 151.484 116.074C151.629 116.165 151.737 116.305 151.788 116.469C151.83 116.613 151.848 116.763 151.843 116.913C151.852 116.98 151.852 117.047 151.843 117.114C151.828 117.194 151.797 117.27 151.752 117.339C151.684 117.445 151.609 117.546 151.527 117.643C151.375 117.825 151.205 117.995 151.04 118.166C150.706 118.5 150.372 118.81 150.031 119.108C148.864 120.038 147.646 120.903 146.383 121.698C145.35 122.32 144.206 122.734 143.014 122.914C142.226 123.034 141.424 123.013 140.643 122.854C140.436 122.811 140.233 122.752 140.035 122.677C139.963 122.659 139.895 122.628 139.834 122.586C140.865 122.85 141.941 122.893 142.99 122.714C144.145 122.516 145.252 122.103 146.255 121.498C147.404 120.811 148.566 119.856 149.849 118.889C150.183 118.591 150.517 118.281 150.84 117.953C151.004 117.789 151.162 117.624 151.308 117.448C151.454 117.272 151.448 117.272 151.509 117.187C151.569 117.101 151.557 117.089 151.557 117.083C151.563 117.031 151.563 116.978 151.557 116.925C151.557 116.67 151.515 116.445 151.351 116.36C151.146 116.274 150.92 116.257 150.706 116.311L150.791 116.274C150.471 116.574 150.132 116.852 149.776 117.108C149.433 117.382 149.041 117.588 148.62 117.716C147.836 117.959 147.07 118.159 146.334 118.324C145.046 118.612 143.74 118.815 142.424 118.932C141.306 119.041 140.406 119.059 139.785 119.059C139.475 119.059 139.238 119.059 139.074 119.059C138.977 119.041 138.882 119.008 138.794 118.962Z" fill="#EB996E"/>
<path d="M149.405 119.412C149.499 119.711 149.542 120.023 149.532 120.336C149.532 120.482 149.532 120.646 149.532 120.829C149.532 120.92 149.532 121.011 149.532 121.109C149.524 121.219 149.493 121.327 149.441 121.425C149.353 121.634 149.252 121.837 149.137 122.033L148.955 122.337L148.858 122.489C148.839 122.523 148.819 122.555 148.797 122.586L148.754 122.623C148.724 122.623 148.754 122.665 148.608 122.623C148.581 122.605 148.56 122.578 148.55 122.547C148.54 122.516 148.541 122.483 148.554 122.452C148.551 122.442 148.551 122.432 148.554 122.422L148.584 122.379L148.827 122.525C148.429 123.248 147.904 123.893 147.277 124.428C146.22 125.339 144.898 125.885 143.507 125.985C143.101 126.015 142.694 126.003 142.291 125.949C142.138 125.939 141.988 125.904 141.847 125.845C141.847 125.784 142.491 125.894 143.513 125.766C144.837 125.601 146.084 125.051 147.1 124.185C147.699 123.665 148.206 123.048 148.602 122.361L148.851 122.507C149.233 121.521 149.421 120.47 149.405 119.412Z" fill="#EB996E"/>
<path d="M143.312 113.581C143.312 113.654 142.704 113.429 142.406 112.723C142.302 112.433 142.285 112.118 142.358 111.817C142.418 111.592 142.503 111.471 142.54 111.483C142.576 111.495 142.491 112.048 142.704 112.614C142.917 113.179 143.373 113.502 143.312 113.581Z" fill="#EB996E"/>
<path d="M140.667 125.675C140.523 125.751 140.362 125.789 140.199 125.784C139.755 125.817 139.311 125.733 138.91 125.541C138.301 125.253 137.822 124.748 137.566 124.124C137.42 123.761 137.346 123.373 137.347 122.981C137.347 122.903 137.329 122.825 137.295 122.754C137.26 122.683 137.209 122.622 137.147 122.574C136.821 122.36 136.554 122.068 136.368 121.725C136.182 121.383 136.084 121 136.083 120.61C136.057 120.129 136.075 119.647 136.137 119.169L136.204 119.303C135.882 119.097 135.618 118.811 135.439 118.473C135.26 118.136 135.172 117.757 135.183 117.375C135.164 117.088 135.248 116.804 135.42 116.573C135.379 116.836 135.354 117.102 135.347 117.369C135.361 117.712 135.46 118.046 135.633 118.342C135.807 118.638 136.051 118.886 136.344 119.066L136.417 119.108V119.193C136.377 119.656 136.377 120.122 136.417 120.586C136.448 121.082 136.63 121.558 136.94 121.948C137.07 122.092 137.217 122.22 137.378 122.331C137.47 122.404 137.545 122.496 137.598 122.601C137.652 122.706 137.682 122.821 137.688 122.939C137.68 123.299 137.74 123.658 137.864 123.997C138.084 124.565 138.501 125.035 139.038 125.322C139.545 125.567 140.104 125.687 140.667 125.675Z" fill="#EB996E"/>
<g opacity="0.3">
<path d="M124.517 108.297C123.806 114.748 122.803 119.674 121.289 124.106C123.414 122.306 124.818 119.799 125.241 117.047C125.642 114.329 125.004 111.027 124.517 108.297Z" fill="black"/>
</g>
<g opacity="0.3">
<path d="M165.938 104.752C165.7 102.463 165.126 100.222 164.235 98.1001C165.19 102.661 165.299 107.358 164.557 111.957L164.776 111.465C165.769 109.375 166.171 107.054 165.938 104.752Z" fill="black"/>
</g>
</svg>
