<svg width="333" height="298" viewBox="0 0 333 298" fill="none" xmlns="http://www.w3.org/2000/svg">
<path d="M63.7223 296.294C79.6061 290.454 87.0809 273.978 90.5691 258.328C91.1453 255.712 92.1264 253.057 91.4723 250.464C90.8183 247.871 88.2955 245.574 85.6638 246.065C83.4837 246.47 82.0588 248.486 80.486 250.059C78.3847 252.157 75.7347 253.619 72.84 254.279C70.9479 254.707 68.7444 254.7 67.3273 253.376C65.3808 251.562 65.9102 248.408 66.5876 245.831C67.8542 241.04 69.1207 236.249 70.3873 231.458C71.0647 228.888 71.7499 226.257 71.563 223.602C71.3761 220.947 70.1771 218.221 67.8646 216.898C65.5521 215.574 62.1261 216.197 60.9504 218.587C60.5828 219.628 60.2837 220.692 60.055 221.772C59.7046 222.823 58.8949 223.874 57.7892 223.913C56.6836 223.952 55.8193 222.948 55.2276 221.99C53.2032 218.696 52.2377 214.881 51.389 211.089C50.5403 207.297 49.7539 203.482 48.0409 200.017C46.328 196.552 43.5249 193.438 39.8421 192.27C36.1592 191.102 31.5887 192.356 29.72 195.735C27.8513 199.114 29.0348 203.358 30.6154 206.892C32.9636 212.154 36.0609 217.047 39.8109 221.421C40.5718 222.133 41.0871 223.069 41.2825 224.092C41.4071 225.953 39.3204 227.207 37.4595 227.362C35.3494 227.503 33.2861 226.763 31.2305 226.475C29.175 226.187 26.699 226.475 25.4454 228.211C23.6935 230.547 25.2196 233.903 26.9481 236.27C30.422 241.029 34.6856 245.159 39.554 248.479C41.2981 249.662 43.159 250.814 44.3658 252.52C45.5727 254.225 45.9231 256.802 44.506 258.375C43.0889 259.948 40.5506 259.932 38.6352 259.029C36.7198 258.126 35.2015 256.607 33.4652 255.4C30.2183 253.142 25.531 252.2 22.4399 254.669C20.4155 256.296 19.559 259.06 19.707 261.676C19.9835 264.268 20.7778 266.778 22.0428 269.057C25.9972 277.27 32.0482 284.293 39.5851 289.418C47.1766 294.402 54.6825 297.15 63.7223 296.294Z" fill="#EBEBEB"/>
<path d="M62.5543 296.332C62.2507 287.908 60.6934 267.897 59.2063 258.297C58.8222 255.899 58.4458 253.532 58.0773 251.196C57.7035 248.86 57.2987 246.524 56.8315 244.321C55.8505 240.023 54.6314 235.784 53.1798 231.621C51.825 227.635 50.3923 223.897 49.0219 220.417C47.6516 216.937 46.3123 213.713 44.9575 210.832C42.8494 206.262 40.3812 201.868 37.5762 197.689C36.5874 196.21 35.7854 195.089 35.2404 194.333L34.6019 193.477L34.3761 193.189C34.4344 193.297 34.4994 193.401 34.5708 193.5L35.1703 194.38C35.7075 195.159 36.4862 196.288 37.4594 197.775C40.2034 201.978 42.6266 206.382 44.7084 210.949C46.0398 213.838 47.3635 217.053 48.7261 220.542C50.0886 224.03 51.4979 227.759 52.8372 231.738C54.2735 235.891 55.4796 240.12 56.45 244.406C56.9483 246.633 57.322 248.922 57.6958 251.258C58.0695 253.594 58.4744 255.93 58.817 258.359C60.3041 267.952 61.8692 287.947 62.1884 296.348" fill="#E0E0E0"/>
<path d="M56.7147 244.258C56.9204 243.927 57.095 243.578 57.2364 243.215C57.5556 242.538 58.015 241.541 58.49 240.303C59.51 237.835 60.8258 234.37 62.2273 230.555C63.6289 226.739 65.007 223.298 66.1204 220.853C66.6499 219.631 67.0937 218.642 67.413 217.972C67.5988 217.631 67.7476 217.271 67.8568 216.898C67.63 217.213 67.4344 217.549 67.2728 217.902C66.9068 218.556 66.4241 219.529 65.8635 220.736C64.7189 223.158 63.3174 226.584 61.8925 230.415C60.4677 234.245 59.2141 237.625 58.2642 240.202C57.8048 241.393 57.4233 242.39 57.1352 243.153C56.9606 243.507 56.8198 243.877 56.7147 244.258Z" fill="#E0E0E0"/>
<path d="M24.7913 229.457C24.8934 229.518 25.0034 229.565 25.1183 229.597L26.0916 229.94C26.9402 230.228 28.1627 230.648 29.6498 231.216C32.6475 232.322 36.7275 234.004 41.1423 236.052C45.557 238.099 49.4657 240.155 52.2532 241.712C53.6547 242.491 54.7681 243.137 55.5389 243.589L56.4266 244.103C56.5302 244.165 56.6397 244.217 56.7536 244.258C56.7536 244.258 56.6679 244.165 56.4733 244.033L55.6168 243.456C54.8382 242.966 53.7793 242.273 52.3933 241.471C49.637 239.844 45.7361 237.757 41.3058 235.694C36.8754 233.63 32.741 231.987 29.7511 230.944C28.2405 230.414 27.0025 230.033 26.1383 229.792L25.1416 229.519C25.029 229.479 24.9107 229.458 24.7913 229.457Z" fill="#E0E0E0"/>
<path d="M61.8925 284.809C62.0078 284.7 62.1145 284.583 62.2117 284.458L63.0915 283.399C63.8702 282.481 64.9135 281.126 66.206 279.436C68.791 276.049 72.2247 271.269 75.9465 265.943C79.6683 260.617 83.0553 255.821 85.5781 252.395L88.5913 248.354L89.4089 247.248C89.5119 247.128 89.5983 246.994 89.6658 246.851C89.5463 246.958 89.4368 247.075 89.3388 247.201L88.4667 248.253C87.6881 249.171 86.6448 250.534 85.3523 252.224C82.7672 255.611 79.3335 260.391 75.6117 265.717C71.8899 271.043 68.5029 275.839 65.9802 279.265L62.9436 283.306C62.6088 283.758 62.3441 284.124 62.165 284.404C62.057 284.527 61.9654 284.663 61.8925 284.809Z" fill="#E0E0E0"/>
<path d="M20.9449 259.177C21.0663 259.287 21.1995 259.384 21.342 259.465L22.5333 260.243L26.9247 262.984C30.631 265.32 35.7076 268.567 41.3058 272.187C46.9041 275.808 52.0119 279.039 55.757 281.297C57.6335 282.426 59.1518 283.322 60.2185 283.929L61.4487 284.614C61.5885 284.702 61.7373 284.775 61.8925 284.832C61.7672 284.723 61.6316 284.627 61.4877 284.544L60.2964 283.766L55.9361 281.033C52.2377 278.697 47.1611 275.442 41.555 271.822C35.9489 268.201 30.8178 264.962 27.0727 262.719C25.204 261.583 23.6779 260.687 22.619 260.08L21.3888 259.395C21.2479 259.309 21.0993 259.236 20.9449 259.177Z" fill="#E0E0E0"/>
<path d="M35.3026 144.011H99.8424C99.8424 144.011 94.1351 133.624 77.5194 135.143C61.6511 136.583 60.8491 130.027 52.7826 129.225C44.7161 128.423 38.0278 134.598 35.3026 144.011Z" fill="#EBEBEB"/>
<path d="M256.181 29.8578H317.996C317.996 29.8578 312.546 19.907 296.623 21.3552C281.424 22.7412 280.653 16.4655 272.93 15.6869C265.206 14.9083 258.759 20.8413 256.181 29.8578Z" fill="#EBEBEB"/>
<path d="M287.093 63.2216H327.526C327.526 63.2216 323.952 56.7123 313.511 57.6622C303.568 58.5654 303.062 54.4621 298.009 53.956C292.956 53.4499 288.743 57.3196 287.093 63.2216Z" fill="#E0E0E0"/>
<path d="M28.1938 9.31764H68.6276C68.6276 9.31764 65.0537 2.80838 54.6124 3.7583C44.6694 4.6615 44.1633 0.550391 39.1101 0.0442881C34.0569 -0.461815 29.8757 3.41571 28.1938 9.31764Z" fill="#F5F5F5"/>
<path d="M19.3409 166.342H59.7747C59.7747 166.342 56.2008 159.833 45.7595 160.783C35.8243 161.686 35.3182 157.582 30.265 157.076C25.2117 156.57 20.9916 160.44 19.3409 166.342Z" fill="#E0E0E0"/>
<path d="M333 296.924C333 297.033 258.455 297.127 166.508 297.127C74.5606 297.127 0 297.033 0 296.924C0 296.815 74.5295 296.722 166.508 296.722C258.486 296.722 333 296.815 333 296.924Z" fill="#263238"/>
<path d="M210.71 158.068C210.809 157.981 210.913 157.901 211.022 157.826L211.964 157.157C212.369 156.853 212.906 156.526 213.482 156.059L215.483 154.502C216.192 153.855 217.04 153.155 217.819 152.353C218.598 151.551 219.579 150.663 220.451 149.612C222.529 147.323 224.388 144.844 226.002 142.207C230.275 135.359 232.856 127.593 233.531 119.549C233.936 114.83 233.453 110.076 232.107 105.534C230.778 100.585 227.995 96.1475 224.118 92.7961C222.117 91.1774 219.826 89.954 217.367 89.1911C214.961 88.4972 212.467 88.1588 209.963 88.1866C205.213 88.3249 200.507 89.1376 195.986 90.6004C188.256 92.8781 180.831 96.0861 173.874 100.154C169.18 102.89 164.712 105.996 160.513 109.443C159.041 110.681 157.896 111.646 157.149 112.332L156.285 113.11C156.09 113.282 155.981 113.359 155.981 113.359C155.981 113.359 156.074 113.258 156.261 113.079L157.094 112.3C157.826 111.6 158.955 110.611 160.411 109.35C164.585 105.853 169.038 102.705 173.726 99.936C180.691 95.8058 188.139 92.55 195.901 90.2422C200.453 88.7618 205.193 87.9359 209.978 87.7895C212.522 87.7563 215.057 88.1001 217.5 88.8095C220.011 89.5815 222.35 90.8292 224.39 92.4846C228.328 95.862 231.162 100.343 232.527 105.347C233.888 109.95 234.366 114.769 233.936 119.549C233.247 127.647 230.622 135.46 226.283 142.332C224.647 144.972 222.765 147.452 220.661 149.737C219.773 150.78 218.808 151.629 217.99 152.462C217.173 153.295 216.332 153.933 215.553 154.587L213.521 156.145C212.937 156.604 212.392 156.923 211.964 157.219L210.998 157.85L210.71 158.068Z" fill="#355BE1" stroke="#355BE1"/>
<path d="M108.804 219.337C106.794 219.967 104.737 220.438 102.653 220.747C96.9644 221.64 91.1607 221.495 85.5236 220.318C81.6252 219.503 77.8665 218.123 74.366 216.223C70.3542 214.027 66.753 211.153 63.7223 207.728C60.3456 203.953 57.8061 199.505 56.2709 194.679C55.8695 193.404 55.5573 192.103 55.3365 190.785C55.0872 189.463 54.9208 188.126 54.8382 186.783C54.7681 186.106 54.8382 185.429 54.7915 184.743C54.7682 184.058 54.7838 183.372 54.8382 182.688C54.8927 182.003 54.9472 181.317 54.9939 180.632C55.0407 179.947 55.2042 179.262 55.3132 178.569C55.7712 175.858 56.5151 173.204 57.5323 170.65C57.9839 169.373 58.599 168.174 59.1596 166.96C59.4399 166.36 59.7902 165.784 60.1017 165.208C60.4022 164.62 60.7323 164.049 61.0905 163.495C63.725 159.187 67.0258 155.324 70.87 152.049C74.3658 149.121 78.1976 146.62 82.2846 144.598C85.8491 142.847 89.5557 141.401 93.3643 140.276C98.8762 138.674 104.524 137.584 110.237 137.022C112.261 136.827 113.834 136.703 114.909 136.656L116.123 136.594H116.536L116.123 136.64L114.917 136.741C113.85 136.812 112.277 136.959 110.245 137.177C104.553 137.801 98.927 138.93 93.4344 140.549C89.6527 141.689 85.9727 143.142 82.4325 144.894C78.3777 146.93 74.5799 149.442 71.1192 152.376C67.3118 155.631 64.0428 159.468 61.4331 163.744C61.0672 164.281 60.7713 164.865 60.4521 165.434C60.1328 166.002 59.8058 166.578 59.5255 167.178C58.9727 168.377 58.3654 169.568 57.9138 170.837C56.9091 173.367 56.1731 175.995 55.7181 178.678C55.6168 179.355 55.5078 180.04 55.4066 180.71C55.3054 181.38 55.3054 182.073 55.2509 182.75C55.1925 183.426 55.1769 184.105 55.2042 184.782C55.2042 185.46 55.2042 186.129 55.2042 186.799C55.2872 188.127 55.4537 189.448 55.7025 190.754C55.9203 192.046 56.2273 193.321 56.6213 194.57C58.1322 199.346 60.6372 203.748 63.9714 207.487C66.9652 210.89 70.5238 213.75 74.4906 215.943C77.9582 217.828 81.6792 219.205 85.5392 220.03C91.1458 221.221 96.919 221.408 102.591 220.583C104.592 220.272 106.134 219.953 107.177 219.703L108.353 219.415L108.804 219.337Z" fill="#355BE1" stroke="#355BE1"/>
<path d="M230.767 185.226C229.989 183.498 229.825 181.582 229.319 179.776C229.23 179.276 229.039 178.801 228.756 178.38C228.473 177.959 228.105 177.602 227.676 177.331C227.032 177.143 226.377 176.994 225.714 176.887C223.378 176.194 222.771 172.994 220.591 171.974C219.884 171.708 219.141 171.553 218.387 171.515C215.467 171.172 212.439 170.16 210.601 167.863C210.072 167.064 209.467 166.318 208.795 165.636C208.016 165.037 206.879 164.772 206.155 165.395C206.77 166.625 207.378 167.863 207.985 169.085C208.459 170.246 209.155 171.304 210.033 172.2C210.478 172.635 211.038 172.936 211.647 173.067C212.256 173.197 212.889 173.153 213.474 172.939C213.816 172.699 214.217 172.559 214.634 172.535C214.947 172.586 215.227 172.76 215.413 173.017C216.97 174.777 216.487 177.689 214.93 179.511C213.373 181.333 211.092 182.236 208.88 183.116C208.116 183.497 207.263 183.663 206.412 183.599C204.855 183.311 204.076 181.644 203.625 180.15C202.62 176.84 202.137 173.251 200.09 170.456C199.346 169.646 198.72 168.737 198.229 167.754C197.808 166.64 197.902 165.348 197.24 164.367C196.578 163.386 195.075 162.755 194.974 161.517C194.995 161.079 195.143 160.656 195.4 160.301C195.658 159.946 196.013 159.673 196.422 159.516C197.201 159.135 198.104 159.026 198.914 158.691C199.241 158.551 199.599 158.317 199.607 157.974C199.607 157.453 198.891 157.243 198.704 156.76C198.517 156.277 199.062 155.716 199.295 155.203C199.809 153.996 198.517 152.773 197.326 152.283C196.134 151.792 194.647 151.426 194.079 150.243C193.868 149.674 193.734 149.08 193.682 148.475C193.566 147.719 193.23 147.014 192.717 146.448C192.203 145.882 191.534 145.479 190.793 145.291C189.275 145.042 187.593 146.389 187.842 147.899C187.99 148.724 188.621 149.363 188.94 150.134C189.259 150.905 189.189 152.034 188.395 152.283C187.102 152.672 185.849 150.305 184.766 151.123C185.21 152.68 185.638 154.159 186.09 155.685C184.385 156.55 182.345 154.985 181.613 153.209C180.881 151.434 180.834 149.417 180.001 147.712C179.168 146.007 176.801 144.722 175.33 145.929C175.252 148.133 178.156 149.044 179.441 150.796C180.367 152.08 180.219 154.167 178.857 154.985C177.494 155.802 175.337 154.377 175.859 152.882C176.046 152.368 176.474 151.932 176.521 151.38C176.575 150.687 175.991 150.134 175.462 149.69C174.637 148.981 173.811 148.288 172.978 147.603C172.475 147.114 171.876 146.735 171.218 146.49C169.513 145.991 167.808 147.377 166.905 148.896C166.002 150.414 165.496 152.22 164.25 153.49C162.459 155.343 159.064 155.452 157.382 153.49C155.701 151.527 156.557 147.922 159.041 147.222C159.975 146.957 161.166 146.98 161.657 146.155C162.521 144.683 160.053 142.807 160.878 141.328C161.532 140.191 163.261 140.712 164.522 140.331C165.784 139.949 166.477 138.688 167.216 137.598C167.956 136.508 169.093 135.441 170.378 135.721C170.205 134.974 170.251 134.193 170.51 133.471C170.584 133.298 170.693 133.142 170.831 133.012C170.968 132.883 171.13 132.783 171.307 132.718C171.485 132.654 171.673 132.627 171.862 132.639C172.05 132.65 172.234 132.7 172.402 132.786C171.771 133.822 172.527 135.262 173.624 135.784C174.774 136.201 176.017 136.29 177.214 136.041C178.428 135.893 179.947 135.449 180.048 134.242C179.989 133.85 179.989 133.451 180.048 133.059C180.585 131.61 183.248 133.596 184.276 132.436C184.868 131.836 184.214 130.762 183.388 130.559C182.563 130.357 181.714 130.66 180.881 130.684C180.048 130.707 179.012 130.279 178.973 129.438C178.935 128.597 179.869 128.013 179.962 127.203C180.126 125.817 177.782 125.459 176.949 126.588C176.116 127.717 176.42 129.251 176.669 130.622C176.918 131.992 177.05 133.611 176.038 134.577C175.602 135.231 174.481 134.881 174.115 134.188C173.826 133.445 173.704 132.647 173.757 131.852C173.77 131.455 173.666 131.064 173.456 130.727C173.247 130.39 172.942 130.123 172.581 129.96C172.026 129.911 171.468 129.974 170.938 130.147C168.789 130.404 167.294 127.632 167.972 125.576C168.649 123.521 170.596 122.197 172.48 121.146C173.866 120.367 175.594 119.666 176.949 120.445C177.595 120.795 178.039 121.418 178.67 121.784C179.752 122.43 181.099 122.197 182.345 122.22C184.323 122.274 186.221 123.012 187.717 124.307C188.278 124.813 188.792 125.654 188.364 126.253C187.935 126.853 186.549 127.032 186.806 127.811C187.169 127.912 187.55 127.935 187.922 127.879C188.295 127.823 188.651 127.689 188.968 127.485C189.285 127.281 189.555 127.013 189.761 126.697C189.967 126.382 190.104 126.026 190.162 125.654C190.517 125.816 190.824 126.068 191.052 126.384C191.28 126.701 191.422 127.072 191.463 127.46C191.869 127.086 192.349 126.801 192.872 126.621C193.395 126.442 193.949 126.372 194.5 126.418C195.051 126.463 195.586 126.622 196.072 126.885C196.559 127.147 196.985 127.507 197.326 127.943C197.607 128.462 197.978 128.926 198.423 129.313C198.922 129.64 199.786 129.477 199.848 128.893C199.857 128.708 199.822 128.524 199.747 128.356C199.451 127.515 199.14 126.689 198.844 125.856C199.996 125.241 201.351 126.207 202.13 127.242C205.018 131.135 207.082 128.8 211.162 129.415C213.91 129.835 215.125 131.603 216.674 133.736C221.447 140.308 227.738 145.688 232.075 152.555C232.535 153.272 232.955 154.003 233.344 154.743C233.274 154.556 233.212 154.369 233.134 154.183C231.443 149.728 229.337 145.442 226.843 141.382C226.306 140.518 225.769 139.661 225.208 138.82C224.865 138.306 224.507 137.777 224.149 137.263C223.69 136.594 223.207 135.955 222.732 135.309C222.343 134.787 221.953 134.281 221.564 133.752C221.299 133.409 221.011 133.059 220.731 132.716C220.451 132.373 220.108 131.937 219.765 131.556L218.73 130.357C218.625 130.226 218.513 130.102 218.395 129.983C218.037 129.563 217.655 129.158 217.274 128.753C217.245 128.703 217.205 128.66 217.157 128.628C217.064 128.519 216.947 128.402 216.838 128.293C216.526 127.951 216.199 127.616 215.872 127.281C215.343 126.736 214.798 126.191 214.245 125.677C213.692 125.163 213.318 124.79 212.836 124.354C212.353 123.918 211.995 123.575 211.567 123.217L210.297 122.135C209.776 121.691 209.246 121.255 208.701 120.826C207.206 119.627 205.667 118.493 204.084 117.424L202.916 116.645C202.519 116.373 202.137 116.124 201.717 115.867C201.297 115.61 200.938 115.361 200.502 115.088C200.066 114.816 199.724 114.59 199.28 114.356C198.836 114.123 198.626 113.975 198.291 113.803C198.13 113.694 197.961 113.598 197.785 113.515C197.084 113.118 196.368 112.737 195.652 112.378L194.569 111.833C194.11 111.6 193.643 111.382 193.168 111.172C193.102 111.129 193.032 111.095 192.958 111.07C192.537 110.876 192.117 110.673 191.688 110.494C191.081 110.229 190.481 109.973 189.874 109.716C189.267 109.459 188.488 109.147 187.787 108.89C187.087 108.633 186.23 108.306 185.452 108.049C184.673 107.792 183.855 107.52 183.053 107.271C182.251 107.022 181.449 106.804 180.632 106.578C179.028 106.147 177.403 105.765 175.758 105.433C175.727 105.43 175.695 105.43 175.664 105.433C175.041 105.309 174.411 105.184 173.78 105.083H173.656C173.383 105.036 173.103 104.982 172.815 104.95C171.639 104.748 170.479 104.592 169.256 104.452C169.124 104.452 168.976 104.452 168.828 104.405C168.478 104.359 168.135 104.328 167.777 104.296C166.993 104.219 166.199 104.156 165.394 104.11C164.569 104.047 163.728 104.008 162.887 103.985C162.046 103.962 161.135 103.938 160.255 103.938C157.92 103.938 155.638 104.032 153.365 104.242C152.827 104.242 152.29 104.328 151.761 104.39C151.231 104.452 150.647 104.514 150.094 104.592C149.542 104.67 148.981 104.74 148.444 104.826C147.907 104.912 147.338 104.997 146.785 105.098C146.233 105.2 145.835 105.254 145.368 105.355C144.208 105.581 143.032 105.822 141.919 106.134C141.39 106.259 140.86 106.399 140.362 106.547C139.863 106.695 139.295 106.827 138.805 106.975C137.925 107.224 137.076 107.497 136.219 107.753L134.141 108.454H134.094C133.385 108.703 132.708 108.96 132.015 109.233H131.906C131.275 109.474 130.645 109.739 130.029 110.011C129.251 110.331 128.472 110.681 127.733 111.024C126.993 111.366 126.463 111.615 125.84 111.927C125.218 112.238 124.509 112.596 123.855 112.939H123.785C123.154 113.274 122.524 113.616 121.908 113.975C121.293 114.333 120.632 114.699 120.001 115.096C119.409 115.454 118.825 115.812 118.249 116.186C118.023 116.318 117.813 116.466 117.587 116.614C116.972 117.011 116.38 117.393 115.773 117.837C114.994 118.343 114.317 118.88 113.601 119.394C112.884 119.908 112.355 120.344 111.747 120.826C108.256 123.608 105.011 126.685 102.046 130.022C100.995 131.182 100.006 132.358 99.0404 133.58C98.2618 134.616 97.4365 135.667 96.7046 136.757C96.8713 136.764 97.0377 136.78 97.2029 136.804C98.319 136.824 99.4297 136.642 100.481 136.267C101.337 135.707 102.146 135.079 102.902 134.39C105.051 132.833 108.571 132.576 109.131 130.006C109.326 129.142 109.092 128.208 109.412 127.382C110.019 125.825 112.082 125.615 113.733 125.638C114.442 125.638 115.29 125.74 115.586 126.355C115.675 126.585 115.714 126.832 115.702 127.078C115.69 127.325 115.627 127.567 115.516 127.787C114.48 130.689 112.479 133.146 109.848 134.748C107.699 136.056 104.896 137.084 104.304 139.513C104.6 140.346 106.102 140.292 106.227 141.148C106.313 141.841 105.448 142.2 105.106 142.815C104.639 143.718 105.705 144.816 106.733 144.761C107.755 144.586 108.685 144.064 109.365 143.282C111.615 141.195 113.967 138.953 114.815 135.986C115.166 134.764 115.282 133.331 116.271 132.514C116.576 132.306 116.923 132.172 117.287 132.12C117.652 132.067 118.023 132.099 118.373 132.213C118.724 132.326 119.043 132.518 119.308 132.774C119.572 133.03 119.775 133.343 119.9 133.689C120.881 133.144 122.399 132.739 122.905 133.752C123.018 134.129 123.089 134.518 123.115 134.912C123.435 136.469 125.591 137.248 125.817 138.805C126.074 140.65 123.715 141.6 121.877 141.919C120.211 142.184 118.545 142.441 116.879 142.698C116.142 142.749 115.428 142.979 114.8 143.368C114.491 143.572 114.262 143.876 114.15 144.228C114.038 144.581 114.05 144.961 114.185 145.306C114.434 145.638 114.724 145.936 115.049 146.194C116.435 147.572 115.298 150.43 113.344 150.492C112.682 150.492 112.02 150.266 111.358 150.243C109.38 150.157 107.815 151.893 106.873 153.638C105.931 155.382 105.23 157.367 103.65 158.551C101.112 160.466 96.7279 160.022 95.4899 162.958C94.9994 164.149 95.2563 165.48 95.451 166.749C95.6456 168.019 95.7391 169.42 94.9994 170.471C94.2597 171.522 92.3676 171.725 91.8226 170.565C91.6371 170.036 91.6101 169.465 91.7448 168.922C92.0406 167.1 92.3287 165.283 92.609 163.471C92.8192 162.117 93.0061 160.598 92.2041 159.485C91.0829 157.928 88.5602 158.076 87.1042 159.321C85.6482 160.567 85.0564 162.522 84.6515 164.39C84.3692 166.076 83.8964 167.724 83.2422 169.303C82.9775 170.861 82.7673 172.418 82.6115 173.975C82.4558 175.532 82.339 177.167 82.2767 178.802C82.4971 178.616 82.7076 178.419 82.9074 178.211C83.686 177.432 85.2433 174.006 86.6604 175.672C86.8346 175.895 86.9294 176.169 86.9294 176.451C86.9294 176.733 86.8346 177.008 86.6604 177.23C86.2321 177.783 85.3678 177.907 85.033 178.514C84.6982 179.122 85.1888 180.118 85.8584 180.586C86.5975 180.93 87.2739 181.396 87.8594 181.964C88.7548 183.264 87.8594 185.226 88.7704 186.55C89.549 187.687 91.1063 187.757 92.5 187.905L92.9672 187.982C93.3487 185.265 94.6256 183.054 98.3319 182.213C103.44 181.053 110.159 185.288 113.032 189.143C116.248 193.448 117.766 199.553 122.679 201.709C126.199 203.267 131.197 202.698 132.918 206.14C134.475 209.254 131.781 212.704 131.361 216.122C131.104 218.38 131.844 220.63 132.015 222.888C132.186 225.146 131.509 227.801 129.453 228.751C128.301 229.273 126.86 229.21 125.934 230.075C124.291 231.632 125.638 234.84 123.995 236.397C123.354 236.858 122.652 237.228 121.908 237.495C118.21 239.364 118.311 244.79 120.032 248.559L120.211 248.956C131.74 255.85 144.853 259.651 158.282 259.994C171.711 260.336 185.001 257.207 196.866 250.91C199.238 249.641 201.543 248.251 203.773 246.745C209.585 242.845 214.84 238.172 219.392 232.854C220.7 231.352 221.93 229.74 223.121 228.183C223.721 227.357 224.32 226.532 224.873 225.675C226.588 223.178 228.148 220.578 229.545 217.889C231.58 213.988 233.268 209.916 234.59 205.719C235.977 201.405 236.975 196.975 237.572 192.483C237.806 190.731 237.993 188.956 238.11 187.165C237.295 188.021 236.176 188.522 234.995 188.559C233.064 188.527 231.515 186.955 230.767 185.226Z" fill="#355BE1"/>
<g opacity="0.8">
<path d="M230.767 185.226C229.989 183.498 229.825 181.582 229.319 179.776C229.23 179.276 229.039 178.801 228.756 178.38C228.473 177.959 228.105 177.602 227.676 177.331C227.032 177.143 226.377 176.994 225.714 176.887C223.378 176.194 222.771 172.994 220.591 171.974C219.884 171.708 219.141 171.553 218.387 171.515C215.467 171.172 212.439 170.16 210.601 167.863C210.072 167.064 209.467 166.318 208.795 165.636C208.016 165.037 206.879 164.772 206.155 165.395C206.77 166.625 207.378 167.863 207.985 169.085C208.459 170.246 209.155 171.304 210.033 172.2C210.478 172.635 211.038 172.936 211.647 173.067C212.256 173.197 212.889 173.153 213.474 172.939C213.816 172.699 214.217 172.559 214.634 172.535C214.947 172.586 215.227 172.76 215.413 173.017C216.97 174.777 216.487 177.689 214.93 179.511C213.373 181.333 211.092 182.236 208.88 183.116C208.116 183.497 207.263 183.663 206.412 183.599C204.855 183.311 204.076 181.644 203.625 180.15C202.62 176.84 202.137 173.251 200.09 170.456C199.346 169.646 198.72 168.737 198.229 167.754C197.808 166.64 197.902 165.348 197.24 164.367C196.578 163.386 195.075 162.755 194.974 161.517C194.995 161.079 195.143 160.656 195.4 160.301C195.658 159.946 196.013 159.673 196.422 159.516C197.201 159.135 198.104 159.026 198.914 158.691C199.241 158.551 199.599 158.317 199.607 157.974C199.607 157.453 198.891 157.243 198.704 156.76C198.517 156.277 199.062 155.716 199.295 155.203C199.809 153.996 198.517 152.773 197.326 152.283C196.134 151.792 194.647 151.426 194.079 150.243C193.868 149.674 193.734 149.08 193.682 148.475C193.566 147.719 193.23 147.014 192.717 146.448C192.203 145.882 191.534 145.479 190.793 145.291C189.275 145.042 187.593 146.389 187.842 147.899C187.99 148.724 188.621 149.363 188.94 150.134C189.259 150.905 189.189 152.034 188.395 152.283C187.102 152.672 185.849 150.305 184.766 151.123C185.21 152.68 185.638 154.159 186.09 155.685C184.385 156.55 182.345 154.985 181.613 153.209C180.881 151.434 180.834 149.417 180.001 147.712C179.168 146.007 176.801 144.722 175.33 145.929C175.252 148.133 178.156 149.044 179.441 150.796C180.367 152.08 180.219 154.167 178.857 154.985C177.494 155.802 175.337 154.377 175.859 152.882C176.046 152.368 176.474 151.932 176.521 151.38C176.575 150.687 175.991 150.134 175.462 149.69C174.637 148.981 173.811 148.288 172.978 147.603C172.475 147.114 171.876 146.735 171.218 146.49C169.513 145.991 167.808 147.377 166.905 148.896C166.002 150.414 165.496 152.22 164.25 153.49C162.459 155.343 159.064 155.452 157.382 153.49C155.701 151.527 156.557 147.922 159.041 147.222C159.975 146.957 161.166 146.98 161.657 146.155C162.521 144.683 160.053 142.807 160.878 141.328C161.532 140.191 163.261 140.712 164.522 140.331C165.784 139.949 166.477 138.688 167.216 137.598C167.956 136.508 169.093 135.441 170.378 135.721C170.205 134.974 170.251 134.193 170.51 133.471C170.584 133.298 170.693 133.142 170.831 133.012C170.968 132.883 171.13 132.783 171.307 132.718C171.485 132.654 171.673 132.627 171.862 132.639C172.05 132.65 172.234 132.7 172.402 132.786C171.771 133.822 172.527 135.262 173.624 135.784C174.774 136.201 176.017 136.29 177.214 136.041C178.428 135.893 179.947 135.449 180.048 134.242C179.989 133.85 179.989 133.451 180.048 133.059C180.585 131.61 183.248 133.596 184.276 132.436C184.868 131.836 184.214 130.762 183.388 130.559C182.563 130.357 181.714 130.66 180.881 130.684C180.048 130.707 179.012 130.279 178.973 129.438C178.935 128.597 179.869 128.013 179.962 127.203C180.126 125.817 177.782 125.459 176.949 126.588C176.116 127.717 176.42 129.251 176.669 130.622C176.918 131.992 177.05 133.611 176.038 134.577C175.602 135.231 174.481 134.881 174.115 134.188C173.826 133.445 173.704 132.647 173.757 131.852C173.77 131.455 173.666 131.064 173.456 130.727C173.247 130.39 172.942 130.123 172.581 129.96C172.026 129.911 171.468 129.974 170.938 130.147C168.789 130.404 167.294 127.632 167.972 125.576C168.649 123.521 170.596 122.197 172.48 121.146C173.866 120.367 175.594 119.666 176.949 120.445C177.595 120.795 178.039 121.418 178.67 121.784C179.752 122.43 181.099 122.197 182.345 122.22C184.323 122.274 186.221 123.012 187.717 124.307C188.278 124.813 188.792 125.654 188.364 126.253C187.935 126.853 186.549 127.032 186.806 127.811C187.169 127.912 187.55 127.935 187.922 127.879C188.295 127.823 188.651 127.689 188.968 127.485C189.285 127.281 189.555 127.013 189.761 126.697C189.967 126.382 190.104 126.026 190.162 125.654C190.517 125.816 190.824 126.068 191.052 126.384C191.28 126.701 191.422 127.072 191.463 127.46C191.869 127.086 192.349 126.801 192.872 126.621C193.395 126.442 193.949 126.372 194.5 126.418C195.051 126.463 195.586 126.622 196.072 126.885C196.559 127.147 196.985 127.507 197.326 127.943C197.607 128.462 197.978 128.926 198.423 129.313C198.922 129.64 199.786 129.477 199.848 128.893C199.857 128.708 199.822 128.524 199.747 128.356C199.451 127.515 199.14 126.689 198.844 125.856C199.996 125.241 201.351 126.207 202.13 127.242C205.018 131.135 207.082 128.8 211.162 129.415C213.91 129.835 215.125 131.603 216.674 133.736C221.447 140.308 227.738 145.688 232.075 152.555C232.535 153.272 232.955 154.003 233.344 154.743C233.274 154.556 233.212 154.369 233.134 154.183C231.443 149.728 229.337 145.442 226.843 141.382C226.306 140.518 225.769 139.661 225.208 138.82C224.865 138.306 224.507 137.777 224.149 137.263C223.69 136.594 223.207 135.955 222.732 135.309C222.343 134.787 221.953 134.281 221.564 133.752C221.299 133.409 221.011 133.059 220.731 132.716C220.451 132.373 220.108 131.937 219.765 131.556L218.73 130.357C218.625 130.226 218.513 130.102 218.395 129.983C218.037 129.563 217.655 129.158 217.274 128.753C217.245 128.703 217.205 128.66 217.157 128.628C217.064 128.519 216.947 128.402 216.838 128.293C216.526 127.951 216.199 127.616 215.872 127.281C215.343 126.736 214.798 126.191 214.245 125.677C213.692 125.163 213.318 124.79 212.836 124.354C212.353 123.918 211.995 123.575 211.567 123.217L210.297 122.135C209.776 121.691 209.246 121.255 208.701 120.826C207.206 119.627 205.667 118.493 204.084 117.424L202.916 116.645C202.519 116.373 202.137 116.124 201.717 115.867C201.297 115.61 200.938 115.361 200.502 115.088C200.066 114.816 199.724 114.59 199.28 114.356C198.836 114.123 198.626 113.975 198.291 113.803C198.13 113.694 197.961 113.598 197.785 113.515C197.084 113.118 196.368 112.737 195.652 112.378L194.569 111.833C194.11 111.6 193.643 111.382 193.168 111.172C193.102 111.129 193.032 111.095 192.958 111.07C192.537 110.876 192.117 110.673 191.688 110.494C191.081 110.229 190.481 109.973 189.874 109.716C189.267 109.459 188.488 109.147 187.787 108.89C187.087 108.633 186.23 108.306 185.452 108.049C184.673 107.792 183.855 107.52 183.053 107.271C182.251 107.022 181.449 106.804 180.632 106.578C179.028 106.147 177.403 105.765 175.758 105.433C175.727 105.43 175.695 105.43 175.664 105.433C175.041 105.309 174.411 105.184 173.78 105.083H173.656C173.383 105.036 173.103 104.982 172.815 104.95C171.639 104.748 170.479 104.592 169.256 104.452C169.124 104.452 168.976 104.452 168.828 104.405C168.478 104.359 168.135 104.328 167.777 104.296C166.993 104.219 166.199 104.156 165.394 104.11C164.569 104.047 163.728 104.008 162.887 103.985C162.046 103.962 161.135 103.938 160.255 103.938C157.92 103.938 155.638 104.032 153.365 104.242C152.827 104.242 152.29 104.328 151.761 104.39C151.231 104.452 150.647 104.514 150.094 104.592C149.542 104.67 148.981 104.74 148.444 104.826C147.907 104.912 147.338 104.997 146.785 105.098C146.233 105.2 145.835 105.254 145.368 105.355C144.208 105.581 143.032 105.822 141.919 106.134C141.39 106.259 140.86 106.399 140.362 106.547C139.863 106.695 139.295 106.827 138.805 106.975C137.925 107.224 137.076 107.497 136.219 107.753L134.141 108.454H134.094C133.385 108.703 132.708 108.96 132.015 109.233H131.906C131.275 109.474 130.645 109.739 130.029 110.011C129.251 110.331 128.472 110.681 127.733 111.024C126.993 111.366 126.463 111.615 125.84 111.927C125.218 112.238 124.509 112.596 123.855 112.939H123.785C123.154 113.274 122.524 113.616 121.908 113.975C121.293 114.333 120.632 114.699 120.001 115.096C119.409 115.454 118.825 115.812 118.249 116.186C118.023 116.318 117.813 116.466 117.587 116.614C116.972 117.011 116.38 117.393 115.773 117.837C114.994 118.343 114.317 118.88 113.601 119.394C112.884 119.908 112.355 120.344 111.747 120.826C108.256 123.608 105.011 126.685 102.046 130.022C100.995 131.182 100.006 132.358 99.0404 133.58C98.2618 134.616 97.4365 135.667 96.7046 136.757C96.8713 136.764 97.0377 136.78 97.2029 136.804C98.319 136.824 99.4297 136.642 100.481 136.267C101.337 135.707 102.146 135.079 102.902 134.39C105.051 132.833 108.571 132.576 109.131 130.006C109.326 129.142 109.092 128.208 109.412 127.382C110.019 125.825 112.082 125.615 113.733 125.638C114.442 125.638 115.29 125.74 115.586 126.355C115.675 126.585 115.714 126.832 115.702 127.078C115.69 127.325 115.627 127.567 115.516 127.787C114.48 130.689 112.479 133.146 109.848 134.748C107.699 136.056 104.896 137.084 104.304 139.513C104.6 140.346 106.102 140.292 106.227 141.148C106.313 141.841 105.448 142.2 105.106 142.815C104.639 143.718 105.705 144.816 106.733 144.761C107.755 144.586 108.685 144.064 109.365 143.282C111.615 141.195 113.967 138.953 114.815 135.986C115.166 134.764 115.282 133.331 116.271 132.514C116.576 132.306 116.923 132.172 117.287 132.12C117.652 132.067 118.023 132.099 118.373 132.213C118.724 132.326 119.043 132.518 119.308 132.774C119.572 133.03 119.775 133.343 119.9 133.689C120.881 133.144 122.399 132.739 122.905 133.752C123.018 134.129 123.089 134.518 123.115 134.912C123.435 136.469 125.591 137.248 125.817 138.805C126.074 140.65 123.715 141.6 121.877 141.919C120.211 142.184 118.545 142.441 116.879 142.698C116.142 142.749 115.428 142.979 114.8 143.368C114.491 143.572 114.262 143.876 114.15 144.228C114.038 144.581 114.05 144.961 114.185 145.306C114.434 145.638 114.724 145.936 115.049 146.194C116.435 147.572 115.298 150.43 113.344 150.492C112.682 150.492 112.02 150.266 111.358 150.243C109.38 150.157 107.815 151.893 106.873 153.638C105.931 155.382 105.23 157.367 103.65 158.551C101.112 160.466 96.7279 160.022 95.4899 162.958C94.9994 164.149 95.2563 165.48 95.451 166.749C95.6456 168.019 95.7391 169.42 94.9994 170.471C94.2597 171.522 92.3676 171.725 91.8226 170.565C91.6371 170.036 91.6101 169.465 91.7448 168.922C92.0406 167.1 92.3287 165.283 92.609 163.471C92.8192 162.117 93.0061 160.598 92.2041 159.485C91.0829 157.928 88.5602 158.076 87.1042 159.321C85.6482 160.567 85.0564 162.522 84.6515 164.39C84.3692 166.076 83.8964 167.724 83.2422 169.303C82.9775 170.861 82.7673 172.418 82.6115 173.975C82.4558 175.532 82.339 177.167 82.2767 178.802C82.4971 178.616 82.7076 178.419 82.9074 178.211C83.686 177.432 85.2433 174.006 86.6604 175.672C86.8346 175.895 86.9294 176.169 86.9294 176.451C86.9294 176.733 86.8346 177.008 86.6604 177.23C86.2321 177.783 85.3678 177.907 85.033 178.514C84.6982 179.122 85.1888 180.118 85.8584 180.586C86.5975 180.93 87.2739 181.396 87.8594 181.964C88.7548 183.264 87.8594 185.226 88.7704 186.55C89.549 187.687 91.1063 187.757 92.5 187.905L92.9672 187.982C93.3487 185.265 94.6256 183.054 98.3319 182.213C103.44 181.053 110.159 185.288 113.032 189.143C116.248 193.448 117.766 199.553 122.679 201.709C126.199 203.267 131.197 202.698 132.918 206.14C134.475 209.254 131.781 212.704 131.361 216.122C131.104 218.38 131.844 220.63 132.015 222.888C132.186 225.146 131.509 227.801 129.453 228.751C128.301 229.273 126.86 229.21 125.934 230.075C124.291 231.632 125.638 234.84 123.995 236.397C123.354 236.858 122.652 237.228 121.908 237.495C118.21 239.364 118.311 244.79 120.032 248.559L120.211 248.956C131.74 255.85 144.853 259.651 158.282 259.994C171.711 260.336 185.001 257.207 196.866 250.91C199.238 249.641 201.543 248.251 203.773 246.745C209.585 242.845 214.84 238.172 219.392 232.854C220.7 231.352 221.93 229.74 223.121 228.183C223.721 227.357 224.32 226.532 224.873 225.675C226.588 223.178 228.148 220.578 229.545 217.889C231.58 213.988 233.268 209.916 234.59 205.719C235.977 201.405 236.975 196.975 237.572 192.483C237.806 190.731 237.993 188.956 238.11 187.165C237.295 188.021 236.176 188.522 234.995 188.559C233.064 188.527 231.515 186.955 230.767 185.226Z" fill="white"/>
</g>
<path d="M141.584 124.408C140.027 125.335 139.248 127.079 138.026 128.426C136.803 129.773 134.693 130.762 133.284 129.617C132.959 129.319 132.698 128.959 132.516 128.557C132.334 128.156 132.235 127.722 132.225 127.281C132.121 126.031 132.415 124.78 133.066 123.707C133.744 122.609 134.764 121.745 135.332 120.593C135.9 119.44 135.791 117.759 134.623 117.214C133.993 116.925 133.198 117.042 132.638 116.63C131.633 115.851 132.35 114.13 133.518 113.694C134.686 113.258 135.986 113.593 137.232 113.694C141.756 113.982 145.08 111.023 148.483 108.563C151.13 106.648 156.76 104.39 159.819 106.344C161.042 107.123 161.517 109.131 160.365 110.011C159.851 110.401 159.142 110.494 158.667 110.93C158.192 111.366 158.005 112.308 157.678 113.017C156.822 114.847 154.354 115.508 153.559 117.369C153.077 118.49 153.295 119.876 152.555 120.85C151.878 121.543 150.986 121.988 150.024 122.111L144.123 123.567C143.238 123.716 142.382 124 141.584 124.408Z" fill="#263238"/>
<path d="M194.312 220.451C192.358 223.402 191.977 227.085 191.463 230.573C190.949 234.061 189.983 237.791 187.297 240.088C184.611 242.384 179.674 242.26 178.195 239.044C177.416 237.3 177.806 235.237 177.37 233.368C176.793 230.931 174.855 229.055 173.936 226.726C173.157 224.741 173.157 222.545 173.087 220.412C172.737 208.733 169.895 196.586 161.953 188.037C161.049 186.915 159.849 186.068 158.488 185.592C157.66 185.386 156.789 185.423 155.981 185.699C155.173 185.976 154.462 186.479 153.933 187.149C153.295 187.998 152.968 189.072 152.181 189.781C150.492 191.338 147.51 190.225 146.396 188.224C145.283 186.223 145.415 183.778 145.617 181.489L146.318 172.971C146.443 171.483 146.606 169.895 147.587 168.766C148.966 167.162 151.481 167.084 153.147 165.815C155.374 164.149 155.669 160.98 157.04 158.582C158.41 156.183 162.833 155.164 163.479 157.865C168.151 147.938 178.374 162.693 184.502 161.579C186.277 161.26 188.006 160.411 189.789 160.661C192.903 161.097 194.562 164.554 195.636 167.559C197.411 172.527 199.189 177.494 200.97 182.462C201.639 184.354 202.527 186.456 204.395 187.18C205.828 187.741 207.51 187.313 208.943 187.842C212.773 189.236 211.528 195.255 208.444 197.925C205.361 200.596 201.047 202.27 199.584 206.07C198.478 208.927 199.358 212.299 198.174 215.117C197.318 217.165 195.527 218.621 194.312 220.451Z" fill="#263238"/>
<path d="M208.841 223.69C207.588 223.869 206.101 223.246 205.143 224.087C204.669 224.659 204.357 225.347 204.24 226.08C203.965 227.082 203.33 227.947 202.457 228.509C202.02 228.783 201.513 228.924 200.998 228.915C200.482 228.907 199.98 228.75 199.552 228.463C199.142 228.152 198.87 227.691 198.795 227.182C198.721 226.672 198.85 226.153 199.155 225.738C199.498 225.421 199.86 225.124 200.238 224.85C201.904 223.293 200.767 220.35 202.036 218.473C202.815 217.367 203.959 216.238 204.785 215.125C205.415 214.261 205.649 213.568 206.809 213.35C211.894 212.33 214.19 222.942 208.841 223.69Z" fill="#263238"/>
<path d="M92.391 202.519C92.1418 200.285 92.8815 198.042 92.9205 195.784C92.9205 194.227 92.8348 192.592 92.8114 191.019C91.4763 190.956 90.1497 190.771 88.8483 190.466C88.5677 190.432 88.3083 190.3 88.1164 190.092C87.9823 189.839 87.928 189.552 87.9607 189.267C87.8594 187.515 86.1698 186.355 84.6515 185.475C83.8906 184.997 83.0816 184.601 82.2378 184.292C82.2378 184.479 82.2378 184.65 82.2378 184.837C82.5361 193.302 84.2113 201.662 87.1976 209.589C88.5278 213.113 90.1233 216.53 91.9705 219.812C92.7492 221.237 93.5745 222.631 94.4466 224.001C95.5366 225.691 96.6734 227.349 97.8958 228.938C99.1183 230.526 100.232 231.967 101.509 233.399C103.251 235.384 105.093 237.279 107.029 239.075C108.747 240.685 110.538 242.208 112.402 243.646C108.142 232.216 104.133 220.544 96.8291 210.812C94.9449 208.273 92.7492 205.68 92.391 202.519Z" fill="#355BE1"/>
<path d="M82.23 180.601C82.23 181.068 82.23 181.535 82.23 182.003C82.23 182.47 82.23 182.781 82.23 183.147C82.23 182.766 82.23 182.369 82.23 182.003C82.23 181.637 82.2222 181.068 82.23 180.601Z" fill="#263238"/>
<g opacity="0.6">
<path d="M116.785 246.807C117.439 247.251 118.109 247.687 118.778 248.107C118.109 247.687 117.447 247.251 116.785 246.807Z" fill="#263238"/>
</g>
<path d="M208.436 197.949C211.551 195.278 212.766 189.259 208.935 187.866C207.487 187.336 205.82 187.764 204.388 187.204C202.511 186.48 201.631 184.377 200.962 182.485C199.181 177.518 197.403 172.55 195.628 167.583C194.554 164.593 192.926 161.12 189.781 160.684C187.998 160.435 186.269 161.284 184.494 161.603C178.397 162.716 168.143 147.961 163.471 157.889C162.825 155.187 158.434 156.207 157.032 158.605C155.63 161.003 155.335 164.172 153.139 165.838C151.449 167.108 148.958 167.185 147.58 168.789C146.599 169.918 146.435 171.507 146.31 172.994L145.61 181.512C145.415 183.801 145.259 186.246 146.388 188.247C147.517 190.248 150.484 191.362 152.173 189.804C152.952 189.096 153.287 188.021 153.925 187.173C154.454 186.502 155.165 185.999 155.973 185.723C156.781 185.447 157.652 185.409 158.48 185.615C159.841 186.091 161.041 186.938 161.945 188.06C169.887 196.625 172.729 208.779 173.079 220.435C173.142 222.569 173.142 224.764 173.928 226.75C174.847 229.086 176.786 230.954 177.362 233.391C177.798 235.26 177.362 237.324 178.187 239.068C179.666 242.283 184.603 242.416 187.289 240.111C189.975 237.806 190.91 234.092 191.455 230.596C192 227.1 192.35 223.417 194.305 220.474C195.519 218.644 197.31 217.188 198.159 215.164C199.342 212.33 198.462 208.935 199.568 206.116C201.04 202.293 205.361 200.651 208.436 197.949Z" fill="#355BE1"/>
<g opacity="0.6">
<path d="M82.2223 183.147C82.2223 183.528 82.2223 183.926 82.2223 184.292C82.2301 183.91 82.2301 183.521 82.2223 183.147Z" fill="#263238"/>
</g>
<path d="M92.9439 187.998L92.4767 187.92C91.1063 187.772 89.5024 187.702 88.7471 186.565C87.8673 185.241 88.7471 183.279 87.8361 181.979C87.2706 181.388 86.61 180.896 85.8818 180.523C85.2122 180.056 84.6516 179.168 85.0564 178.452C85.4613 177.736 86.2555 177.72 86.6838 177.167C86.858 176.945 86.9528 176.671 86.9528 176.389C86.9528 176.106 86.858 175.832 86.6838 175.61C85.2745 173.944 83.7094 177.346 82.9308 178.148C82.731 178.356 82.5205 178.554 82.3001 178.74C82.2924 178.885 82.2924 179.031 82.3001 179.176C82.3001 179.635 82.3001 180.11 82.3001 180.585C82.3001 181.06 82.3001 181.52 82.3001 181.987C82.3001 182.454 82.3001 182.765 82.3001 183.131C82.3001 183.497 82.3001 183.91 82.3001 184.276C83.1439 184.585 83.9529 184.982 84.7139 185.46C86.2711 186.339 87.9218 187.499 88.023 189.251C87.9903 189.536 88.0446 189.824 88.1787 190.077C88.3706 190.284 88.63 190.417 88.9106 190.45C90.212 190.755 91.5386 190.94 92.8738 191.003" fill="#355BE1"/>
<path d="M92.8115 191.019C92.8115 192.576 92.9438 194.227 92.9205 195.784C92.8815 198.042 92.1419 200.284 92.391 202.519C92.7492 205.68 94.9449 208.273 96.8603 210.811C104.148 220.544 108.158 232.216 112.433 243.646C113.211 244.277 113.99 244.868 114.839 245.452C115.485 245.912 116.131 246.371 116.785 246.807C117.439 247.243 118.109 247.687 118.778 248.107C119.246 248.403 119.721 248.683 120.196 248.972C120.133 248.831 120.071 248.707 120.016 248.574C118.296 244.806 118.194 239.379 121.893 237.51C122.636 237.243 123.339 236.874 123.98 236.412C125.622 234.855 124.275 231.647 125.918 230.09C126.845 229.226 128.254 229.311 129.438 228.766C131.493 227.816 132.163 225.177 131.999 222.903C131.836 220.63 131.088 218.395 131.345 216.137C131.758 212.719 134.46 209.246 132.903 206.155C131.182 202.714 126.183 203.267 122.664 201.725C117.751 199.568 116.232 193.464 113.017 189.158C110.144 185.265 103.424 181.068 98.3163 182.228C94.6101 183.069 93.3331 185.28 92.9516 187.998" fill="#355BE1"/>
<path d="M87.0809 159.282C88.5369 158.037 91.0596 157.889 92.1809 159.446C92.9595 160.559 92.796 162.078 92.5857 163.432C92.3054 165.265 92.0174 167.082 91.7215 168.883C91.5868 169.426 91.6138 169.997 91.7993 170.526C92.3444 171.686 94.2442 171.468 94.9761 170.432C95.708 169.397 95.6301 167.972 95.4277 166.71C95.2253 165.449 94.9761 164.11 95.4666 162.919C96.7046 159.983 101.088 160.427 103.627 158.512C105.184 157.328 105.916 155.343 106.85 153.599C107.784 151.854 109.357 150.118 111.335 150.204C111.997 150.204 112.659 150.476 113.32 150.453C115.275 150.391 116.435 147.533 115.026 146.155C114.701 145.897 114.411 145.599 114.161 145.267C114.027 144.922 114.015 144.542 114.127 144.189C114.238 143.837 114.468 143.533 114.776 143.329C115.405 142.94 116.118 142.71 116.855 142.659C118.522 142.386 120.188 142.129 121.854 141.88C123.692 141.6 126.051 140.65 125.794 138.766C125.568 137.209 123.411 136.43 123.092 134.873C123.066 134.479 122.995 134.09 122.882 133.713C122.376 132.7 120.857 133.105 119.876 133.65C119.753 133.298 119.55 132.979 119.282 132.719C119.015 132.459 118.691 132.264 118.335 132.15C117.98 132.036 117.603 132.006 117.234 132.062C116.865 132.119 116.514 132.26 116.209 132.475C115.22 133.253 115.103 134.725 114.753 135.947C113.974 138.914 111.584 141.156 109.303 143.243C108.622 144.025 107.693 144.547 106.671 144.722C105.643 144.777 104.576 143.679 105.044 142.776C105.363 142.161 106.251 141.802 106.165 141.109C106.04 140.245 104.538 140.331 104.242 139.474C104.833 137.03 107.636 136.017 109.785 134.709C112.417 133.107 114.418 130.65 115.454 127.748C115.564 127.528 115.628 127.286 115.64 127.039C115.652 126.793 115.612 126.546 115.524 126.316C115.205 125.701 114.379 125.599 113.671 125.599C112.02 125.599 109.957 125.794 109.349 127.343C109.03 128.169 109.264 129.103 109.069 129.967C108.485 132.537 104.966 132.825 102.84 134.351C102.084 135.04 101.275 135.668 100.419 136.228C99.3896 136.609 98.3006 136.804 97.203 136.804C97.0046 136.812 96.807 136.833 96.6112 136.866C95.926 137.808 95.272 138.774 94.6413 139.747C94.0106 140.72 93.4033 141.725 92.8193 142.729C90.0159 147.502 87.7368 152.564 86.022 157.826C85.4147 159.669 84.88 161.546 84.418 163.456C83.956 165.366 83.5641 167.297 83.2423 169.249C83.8965 167.67 84.3693 166.021 84.6516 164.336C85.0565 162.498 85.6638 160.536 87.0809 159.282Z" fill="#355BE1"/>
<path d="M152.555 120.865C153.295 119.892 153.077 118.529 153.559 117.385C154.338 115.524 156.822 114.862 157.678 113.032C158.005 112.324 158.091 111.475 158.667 110.946C159.243 110.416 159.851 110.416 160.365 110.027C161.517 109.147 161.042 107.138 159.819 106.36C156.76 104.405 151.13 106.663 148.483 108.579C145.08 111.039 141.756 114.029 137.232 113.71C135.986 113.632 134.686 113.289 133.518 113.71C132.35 114.13 131.633 115.898 132.638 116.645C133.198 117.058 133.993 116.941 134.623 117.229C135.791 117.774 135.9 119.456 135.332 120.608C134.764 121.761 133.775 122.625 133.066 123.723C132.416 124.804 132.126 126.064 132.241 127.32C132.251 127.761 132.35 128.195 132.532 128.596C132.714 128.998 132.975 129.358 133.3 129.656C134.709 130.777 136.85 129.819 138.041 128.465C139.233 127.11 140.058 125.35 141.6 124.447C142.391 124.027 143.242 123.73 144.123 123.567L150.024 122.166C150.991 122.032 151.884 121.573 152.555 120.865Z" fill="#355BE1"/>
<path d="M238.211 180.928C238.211 179.807 238.172 178.693 238.11 177.588C238.047 176.482 237.962 175.376 237.853 174.279C237.767 173.383 237.666 172.511 237.541 171.631C237.417 170.751 237.284 169.786 237.129 168.867C236.673 166.136 236.065 163.433 235.307 160.77C235.019 159.75 234.707 158.737 234.38 157.741C234.053 156.744 233.703 155.74 233.329 154.751C232.94 153.972 232.55 153.279 232.06 152.563C227.723 145.695 221.432 140.315 216.659 133.744C215.101 131.61 213.895 129.851 211.146 129.422C207.066 128.792 205.003 131.112 202.114 127.25C201.335 126.214 199.981 125.249 198.828 125.864C199.124 126.697 199.436 127.523 199.732 128.363C199.807 128.532 199.841 128.716 199.833 128.901C199.77 129.485 198.906 129.679 198.408 129.321C197.966 128.925 197.6 128.453 197.326 127.927C196.985 127.492 196.559 127.131 196.072 126.869C195.586 126.606 195.051 126.447 194.5 126.402C193.949 126.357 193.395 126.426 192.872 126.605C192.349 126.785 191.869 127.071 191.463 127.445C191.424 127.054 191.284 126.68 191.056 126.36C190.828 126.04 190.52 125.786 190.162 125.623C190.104 125.995 189.967 126.35 189.761 126.666C189.555 126.982 189.285 127.25 188.968 127.454C188.651 127.657 188.295 127.792 187.922 127.848C187.55 127.904 187.169 127.881 186.806 127.779C186.573 127.001 187.912 126.892 188.364 126.222C188.815 125.553 188.278 124.782 187.717 124.276C186.221 122.98 184.323 122.243 182.345 122.189C181.099 122.189 179.752 122.399 178.67 121.753C178.039 121.387 177.595 120.764 176.949 120.414C175.579 119.635 173.835 120.351 172.48 121.114C170.596 122.166 168.641 123.45 167.972 125.545C167.302 127.639 168.789 130.372 170.938 130.115C171.468 129.943 172.026 129.879 172.581 129.928C172.942 130.092 173.247 130.359 173.457 130.696C173.666 131.033 173.77 131.424 173.757 131.82C173.704 132.616 173.826 133.413 174.115 134.156C174.481 134.849 175.602 135.2 176.038 134.546C177.05 133.58 176.926 131.961 176.669 130.59C176.412 129.22 176.139 127.678 176.949 126.557C177.759 125.436 180.126 125.778 179.962 127.172C179.869 127.951 178.942 128.581 178.974 129.407C179.005 130.232 180.04 130.691 180.881 130.653C181.722 130.614 182.571 130.318 183.388 130.528C184.206 130.738 184.868 131.805 184.276 132.404C183.248 133.565 180.585 131.579 180.048 133.027C179.989 133.42 179.989 133.819 180.048 134.211C179.947 135.418 178.428 135.862 177.214 136.009C176.017 136.259 174.774 136.17 173.624 135.753C172.527 135.231 171.771 133.79 172.402 132.755C172.234 132.669 172.05 132.619 171.862 132.607C171.673 132.596 171.485 132.623 171.307 132.687C171.13 132.751 170.968 132.851 170.831 132.981C170.693 133.11 170.584 133.267 170.51 133.44C170.251 134.162 170.205 134.943 170.378 135.69C169.093 135.41 167.94 136.469 167.216 137.567C166.492 138.665 165.768 139.903 164.522 140.3C163.277 140.697 161.532 140.16 160.878 141.296C160.03 142.776 162.498 144.652 161.657 146.124C161.166 146.949 159.975 146.902 159.041 147.19C156.557 147.891 155.693 151.52 157.382 153.458C159.072 155.397 162.459 155.288 164.25 153.458C165.496 152.189 166.002 150.398 166.905 148.864C167.808 147.331 169.513 145.96 171.218 146.459C171.876 146.704 172.475 147.083 172.978 147.572C173.811 148.257 174.637 148.95 175.462 149.659C175.991 150.102 176.575 150.655 176.521 151.348C176.474 151.901 176.046 152.337 175.859 152.851C175.337 154.346 177.502 155.771 178.857 154.953C180.212 154.136 180.367 152.049 179.441 150.764C178.156 148.989 175.252 148.101 175.33 145.898C176.809 144.691 179.145 145.96 180.001 147.681C180.858 149.402 180.889 151.411 181.613 153.178C182.337 154.945 184.385 156.518 186.09 155.654C185.639 154.097 185.21 152.61 184.766 151.091C185.849 150.313 187.102 152.649 188.395 152.251C189.173 152.002 189.282 150.866 188.94 150.102C188.597 149.339 187.99 148.693 187.842 147.868C187.593 146.357 189.275 145.01 190.793 145.259C191.534 145.448 192.203 145.85 192.717 146.417C193.231 146.983 193.566 147.688 193.682 148.444C193.734 149.048 193.868 149.643 194.079 150.211C194.647 151.395 196.111 151.769 197.326 152.251C198.54 152.734 199.809 153.964 199.295 155.171C199.062 155.709 198.517 156.215 198.704 156.729C198.891 157.242 199.607 157.422 199.607 157.943C199.607 158.286 199.241 158.519 198.914 158.66C198.135 158.994 197.209 159.103 196.422 159.485C196.013 159.642 195.658 159.914 195.4 160.27C195.143 160.625 194.995 161.048 194.974 161.486C195.075 162.724 196.531 163.316 197.24 164.336C197.948 165.356 197.808 166.609 198.229 167.723C198.72 168.706 199.346 169.615 200.09 170.424C202.137 173.22 202.62 176.809 203.625 180.118C204.068 181.613 204.878 183.279 206.412 183.568C207.263 183.632 208.116 183.465 208.88 183.085C211.092 182.205 213.389 181.271 214.93 179.48C216.472 177.689 217.009 174.746 215.413 172.986C215.228 172.728 214.948 172.555 214.634 172.503C214.217 172.528 213.816 172.668 213.474 172.908C212.889 173.122 212.256 173.166 211.647 173.035C211.038 172.904 210.478 172.604 210.033 172.169C209.155 171.273 208.459 170.215 207.985 169.054C207.378 167.832 206.77 166.594 206.155 165.363C206.879 164.741 208.039 165.005 208.795 165.605C209.467 166.287 210.072 167.033 210.601 167.832C212.439 170.168 215.467 171.141 218.387 171.483C219.141 171.522 219.884 171.677 220.591 171.943C222.771 172.947 223.402 176.163 225.714 176.856C226.377 176.963 227.032 177.111 227.676 177.3C228.105 177.57 228.473 177.928 228.756 178.349C229.039 178.77 229.23 179.245 229.319 179.745C229.825 181.559 229.996 183.474 230.767 185.195C231.538 186.916 233.064 188.496 234.941 188.52C236.122 188.483 237.241 187.982 238.055 187.126C238.156 185.421 238.219 183.715 238.219 181.987C238.234 181.644 238.234 181.286 238.211 180.928Z" fill="#355BE1"/>
<path d="M206.809 213.35C205.649 213.576 205.415 214.261 204.785 215.125C203.959 216.238 202.784 217.367 202.036 218.473C200.767 220.35 201.904 223.269 200.238 224.85C199.86 225.124 199.498 225.421 199.155 225.738C198.85 226.153 198.721 226.672 198.795 227.182C198.87 227.691 199.142 228.152 199.552 228.463C199.98 228.75 200.482 228.907 200.998 228.915C201.513 228.924 202.02 228.783 202.457 228.509C203.33 227.947 203.965 227.082 204.24 226.08C204.357 225.347 204.669 224.659 205.143 224.087C206.101 223.246 207.588 223.869 208.841 223.69C214.19 222.942 211.894 212.33 206.809 213.35Z" fill="#355BE1"/>
<g opacity="0.6">
<path d="M208.436 197.949C211.551 195.278 212.766 189.259 208.935 187.866C207.487 187.336 205.82 187.764 204.388 187.204C202.511 186.48 201.631 184.377 200.962 182.485C199.181 177.518 197.403 172.55 195.628 167.583C194.554 164.593 192.926 161.12 189.781 160.684C187.998 160.435 186.269 161.284 184.494 161.603C178.397 162.716 168.143 147.961 163.471 157.889C162.825 155.187 158.434 156.207 157.032 158.605C155.63 161.003 155.335 164.172 153.139 165.838C151.449 167.108 148.958 167.185 147.58 168.789C146.599 169.918 146.435 171.507 146.31 172.994L145.61 181.512C145.415 183.801 145.259 186.246 146.388 188.247C147.517 190.248 150.484 191.362 152.173 189.804C152.952 189.096 153.287 188.021 153.925 187.173C154.454 186.502 155.165 185.999 155.973 185.723C156.781 185.447 157.652 185.409 158.48 185.615C159.841 186.091 161.041 186.938 161.945 188.06C169.887 196.625 172.729 208.779 173.079 220.435C173.142 222.569 173.142 224.764 173.928 226.75C174.847 229.086 176.786 230.954 177.362 233.391C177.798 235.26 177.362 237.324 178.187 239.068C179.666 242.283 184.603 242.416 187.289 240.111C189.975 237.806 190.91 234.092 191.455 230.596C192 227.1 192.35 223.417 194.305 220.474C195.519 218.644 197.31 217.188 198.159 215.164C199.342 212.33 198.462 208.935 199.568 206.116C201.04 202.293 205.361 200.651 208.436 197.949Z" fill="white"/>
</g>
<g opacity="0.6">
<path d="M112.417 243.646C113.196 244.276 113.974 244.868 114.823 245.452C115.469 245.912 116.116 246.371 116.77 246.807C117.424 247.243 118.093 247.687 118.763 248.107C119.23 248.403 119.705 248.683 120.18 248.972C120.118 248.831 120.055 248.707 120.001 248.574C118.28 244.806 118.179 239.379 121.877 237.51C122.621 237.243 123.323 236.874 123.964 236.412C125.607 234.855 124.26 231.647 125.903 230.09C126.829 229.226 128.239 229.311 129.422 228.766C131.478 227.816 132.147 225.177 131.984 222.903C131.82 220.63 131.073 218.395 131.33 216.137C131.742 212.719 134.444 209.246 132.887 206.155C131.166 202.714 126.168 203.267 122.648 201.725C117.735 199.568 116.217 193.464 113.001 189.158C110.128 185.265 103.408 181.068 98.3007 182.228C94.5945 183.069 93.3176 185.28 92.936 187.998L92.4689 187.92C91.0985 187.772 89.4945 187.694 88.7393 186.565C87.8594 185.241 88.7393 183.279 87.8283 181.979C87.2628 181.388 86.6022 180.896 85.874 180.523C85.2043 180.056 84.6437 179.168 85.0486 178.452C85.4535 177.736 86.2477 177.72 86.6759 177.167C86.8502 176.945 86.9449 176.671 86.9449 176.389C86.9449 176.106 86.8502 175.832 86.6759 175.61C85.2666 173.944 83.7016 177.346 82.923 178.148C82.7231 178.356 82.5126 178.554 82.2923 178.74C82.2846 178.885 82.2846 179.031 82.2923 179.176C82.2923 179.635 82.2923 180.11 82.2923 180.585C82.2923 181.06 82.2923 181.52 82.2923 181.987C82.2923 182.454 82.2923 182.765 82.2923 183.131C82.2923 183.497 82.2923 183.91 82.2923 184.276C82.2923 184.463 82.2923 184.634 82.2923 184.821C82.5906 193.286 84.2658 201.647 87.2521 209.573C88.5823 213.097 90.1779 216.514 92.0251 219.797C92.8037 221.222 93.629 222.615 94.5011 223.986C95.5911 225.675 96.7279 227.334 97.9504 228.922C99.1728 230.51 100.286 231.951 101.563 233.384C103.305 235.368 105.148 237.263 107.084 239.06C108.802 240.669 110.593 242.192 112.456 243.63" fill="white"/>
</g>
<g opacity="0.6">
<path d="M87.0809 159.282C88.5369 158.037 91.0596 157.889 92.1809 159.446C92.9595 160.559 92.796 162.078 92.5857 163.432C92.3054 165.265 92.0174 167.082 91.7215 168.883C91.5868 169.426 91.6138 169.997 91.7993 170.526C92.3444 171.686 94.2442 171.468 94.9761 170.432C95.708 169.397 95.6301 167.972 95.4277 166.71C95.2253 165.449 94.9761 164.11 95.4666 162.919C96.7046 159.983 101.088 160.427 103.627 158.512C105.184 157.328 105.916 155.343 106.85 153.599C107.784 151.854 109.357 150.118 111.335 150.204C111.997 150.204 112.659 150.476 113.32 150.453C115.275 150.391 116.435 147.533 115.026 146.155C114.701 145.897 114.411 145.599 114.161 145.267C114.027 144.922 114.015 144.542 114.127 144.189C114.238 143.837 114.468 143.533 114.776 143.329C115.405 142.94 116.118 142.71 116.855 142.659C118.522 142.386 120.188 142.129 121.854 141.88C123.692 141.6 126.051 140.65 125.794 138.766C125.568 137.209 123.411 136.43 123.092 134.873C123.066 134.479 122.995 134.09 122.882 133.713C122.376 132.7 120.857 133.105 119.876 133.65C119.753 133.298 119.55 132.979 119.282 132.719C119.015 132.459 118.691 132.264 118.335 132.15C117.98 132.036 117.603 132.006 117.234 132.062C116.865 132.119 116.514 132.26 116.209 132.475C115.22 133.253 115.103 134.725 114.753 135.947C113.974 138.914 111.584 141.156 109.303 143.243C108.622 144.025 107.693 144.547 106.671 144.722C105.643 144.777 104.576 143.679 105.044 142.776C105.363 142.161 106.251 141.802 106.165 141.109C106.04 140.245 104.538 140.331 104.242 139.474C104.833 137.03 107.636 136.017 109.785 134.709C112.417 133.107 114.418 130.65 115.454 127.748C115.564 127.528 115.628 127.286 115.64 127.039C115.652 126.793 115.612 126.546 115.524 126.316C115.205 125.701 114.379 125.599 113.671 125.599C112.02 125.599 109.957 125.794 109.349 127.343C109.03 128.169 109.264 129.103 109.069 129.967C108.485 132.537 104.966 132.825 102.84 134.351C102.084 135.04 101.275 135.668 100.419 136.228C99.3896 136.609 98.3006 136.804 97.203 136.804C97.0046 136.812 96.807 136.833 96.6112 136.866C95.926 137.808 95.272 138.774 94.6413 139.747C94.0106 140.72 93.4033 141.725 92.8193 142.729C90.0159 147.502 87.7368 152.564 86.022 157.826C85.4147 159.669 84.88 161.546 84.418 163.456C83.956 165.366 83.5641 167.297 83.2423 169.249C83.8965 167.67 84.3693 166.021 84.6516 164.336C85.0565 162.498 85.6638 160.536 87.0809 159.282Z" fill="white"/>
</g>
<g opacity="0.6">
<path d="M152.555 120.865C153.295 119.892 153.077 118.529 153.559 117.385C154.338 115.524 156.822 114.862 157.678 113.032C158.005 112.324 158.091 111.475 158.667 110.946C159.243 110.416 159.851 110.416 160.365 110.027C161.517 109.147 161.042 107.138 159.819 106.36C156.76 104.405 151.13 106.663 148.483 108.579C145.08 111.039 141.756 114.029 137.232 113.71C135.986 113.632 134.686 113.289 133.518 113.71C132.35 114.13 131.633 115.898 132.638 116.645C133.198 117.058 133.993 116.941 134.623 117.229C135.791 117.774 135.9 119.456 135.332 120.608C134.764 121.761 133.775 122.625 133.066 123.723C132.416 124.804 132.126 126.064 132.241 127.32C132.251 127.761 132.35 128.195 132.532 128.596C132.714 128.998 132.975 129.358 133.3 129.656C134.709 130.777 136.85 129.819 138.041 128.465C139.233 127.11 140.058 125.35 141.6 124.447C142.391 124.027 143.242 123.73 144.123 123.567L150.024 122.166C150.991 122.032 151.884 121.573 152.555 120.865Z" fill="white"/>
</g>
<g opacity="0.6">
<path d="M238.211 180.928C238.211 179.807 238.172 178.693 238.11 177.588C238.047 176.482 237.962 175.376 237.853 174.279C237.767 173.383 237.666 172.511 237.541 171.631C237.417 170.751 237.284 169.786 237.129 168.867C236.673 166.136 236.065 163.433 235.307 160.77C235.019 159.75 234.707 158.737 234.38 157.741C234.053 156.744 233.703 155.74 233.329 154.751C232.94 153.972 232.55 153.279 232.06 152.563C227.723 145.695 221.432 140.315 216.659 133.744C215.101 131.61 213.895 129.851 211.146 129.422C207.066 128.792 205.003 131.112 202.114 127.25C201.335 126.214 199.981 125.249 198.828 125.864C199.124 126.697 199.436 127.523 199.732 128.363C199.807 128.532 199.841 128.716 199.833 128.901C199.77 129.485 198.906 129.679 198.408 129.321C197.966 128.925 197.6 128.453 197.326 127.927C196.985 127.492 196.559 127.131 196.072 126.869C195.586 126.606 195.051 126.447 194.5 126.402C193.949 126.357 193.395 126.426 192.872 126.605C192.349 126.785 191.869 127.071 191.463 127.445C191.424 127.054 191.284 126.68 191.056 126.36C190.828 126.04 190.52 125.786 190.162 125.623C190.104 125.995 189.967 126.35 189.761 126.666C189.555 126.982 189.285 127.25 188.968 127.454C188.651 127.657 188.295 127.792 187.922 127.848C187.55 127.904 187.169 127.881 186.806 127.779C186.573 127.001 187.912 126.892 188.364 126.222C188.815 125.553 188.278 124.782 187.717 124.276C186.221 122.98 184.323 122.243 182.345 122.189C181.099 122.189 179.752 122.399 178.67 121.753C178.039 121.387 177.595 120.764 176.949 120.414C175.579 119.635 173.835 120.351 172.48 121.114C170.596 122.166 168.641 123.45 167.972 125.545C167.302 127.639 168.789 130.372 170.938 130.115C171.468 129.943 172.026 129.879 172.581 129.928C172.942 130.092 173.247 130.359 173.457 130.696C173.666 131.033 173.77 131.424 173.757 131.82C173.704 132.616 173.826 133.413 174.115 134.156C174.481 134.849 175.602 135.2 176.038 134.546C177.05 133.58 176.926 131.961 176.669 130.59C176.412 129.22 176.139 127.678 176.949 126.557C177.759 125.436 180.126 125.778 179.962 127.172C179.869 127.951 178.942 128.581 178.974 129.407C179.005 130.232 180.04 130.691 180.881 130.653C181.722 130.614 182.571 130.318 183.388 130.528C184.206 130.738 184.868 131.805 184.276 132.404C183.248 133.565 180.585 131.579 180.048 133.027C179.989 133.42 179.989 133.819 180.048 134.211C179.947 135.418 178.428 135.862 177.214 136.009C176.017 136.259 174.774 136.17 173.624 135.753C172.527 135.231 171.771 133.79 172.402 132.755C172.234 132.669 172.05 132.619 171.862 132.607C171.673 132.596 171.485 132.623 171.307 132.687C171.13 132.751 170.968 132.851 170.831 132.981C170.693 133.11 170.584 133.267 170.51 133.44C170.251 134.162 170.205 134.943 170.378 135.69C169.093 135.41 167.94 136.469 167.216 137.567C166.492 138.665 165.768 139.903 164.522 140.3C163.277 140.697 161.532 140.16 160.878 141.296C160.03 142.776 162.498 144.652 161.657 146.124C161.166 146.949 159.975 146.902 159.041 147.19C156.557 147.891 155.693 151.52 157.382 153.458C159.072 155.397 162.459 155.288 164.25 153.458C165.496 152.189 166.002 150.398 166.905 148.864C167.808 147.331 169.513 145.96 171.218 146.459C171.876 146.704 172.475 147.083 172.978 147.572C173.811 148.257 174.637 148.95 175.462 149.659C175.991 150.102 176.575 150.655 176.521 151.348C176.474 151.901 176.046 152.337 175.859 152.851C175.337 154.346 177.502 155.771 178.857 154.953C180.212 154.136 180.367 152.049 179.441 150.764C178.156 148.989 175.252 148.101 175.33 145.898C176.809 144.691 179.145 145.96 180.001 147.681C180.858 149.402 180.889 151.411 181.613 153.178C182.337 154.945 184.385 156.518 186.09 155.654C185.639 154.097 185.21 152.61 184.766 151.091C185.849 150.313 187.102 152.649 188.395 152.251C189.173 152.002 189.282 150.866 188.94 150.102C188.597 149.339 187.99 148.693 187.842 147.868C187.593 146.357 189.275 145.01 190.793 145.259C191.534 145.448 192.203 145.85 192.717 146.417C193.231 146.983 193.566 147.688 193.682 148.444C193.734 149.048 193.868 149.643 194.079 150.211C194.647 151.395 196.111 151.769 197.326 152.251C198.54 152.734 199.809 153.964 199.295 155.171C199.062 155.709 198.517 156.215 198.704 156.729C198.891 157.242 199.607 157.422 199.607 157.943C199.607 158.286 199.241 158.519 198.914 158.66C198.135 158.994 197.209 159.103 196.422 159.485C196.013 159.642 195.658 159.914 195.4 160.27C195.143 160.625 194.995 161.048 194.974 161.486C195.075 162.724 196.531 163.316 197.24 164.336C197.948 165.356 197.808 166.609 198.229 167.723C198.72 168.706 199.346 169.615 200.09 170.424C202.137 173.22 202.62 176.809 203.625 180.118C204.068 181.613 204.878 183.279 206.412 183.568C207.263 183.632 208.116 183.465 208.88 183.085C211.092 182.205 213.389 181.271 214.93 179.48C216.472 177.689 217.009 174.746 215.413 172.986C215.228 172.728 214.948 172.555 214.634 172.503C214.217 172.528 213.816 172.668 213.474 172.908C212.889 173.122 212.256 173.166 211.647 173.035C211.038 172.904 210.478 172.604 210.033 172.169C209.155 171.273 208.459 170.215 207.985 169.054C207.378 167.832 206.77 166.594 206.155 165.363C206.879 164.741 208.039 165.005 208.795 165.605C209.467 166.287 210.072 167.033 210.601 167.832C212.439 170.168 215.467 171.141 218.387 171.483C219.141 171.522 219.884 171.677 220.591 171.943C222.771 172.947 223.402 176.163 225.714 176.856C226.377 176.963 227.032 177.111 227.676 177.3C228.105 177.57 228.473 177.928 228.756 178.349C229.039 178.77 229.23 179.245 229.319 179.745C229.825 181.559 229.996 183.474 230.767 185.195C231.538 186.916 233.064 188.496 234.941 188.52C236.122 188.483 237.241 187.982 238.055 187.126C238.156 185.421 238.219 183.715 238.219 181.987C238.234 181.644 238.234 181.286 238.211 180.928Z" fill="white"/>
</g>
<g opacity="0.6">
<path d="M206.809 213.35C205.649 213.576 205.415 214.261 204.785 215.125C203.959 216.238 202.784 217.367 202.036 218.473C200.767 220.35 201.904 223.269 200.238 224.85C199.86 225.124 199.498 225.421 199.155 225.738C198.85 226.153 198.721 226.672 198.795 227.182C198.87 227.691 199.142 228.152 199.552 228.463C199.98 228.75 200.482 228.907 200.998 228.915C201.513 228.924 202.02 228.783 202.457 228.509C203.33 227.947 203.965 227.082 204.24 226.08C204.357 225.347 204.669 224.659 205.143 224.087C206.101 223.246 207.588 223.869 208.841 223.69C214.19 222.942 211.894 212.33 206.809 213.35Z" fill="white"/>
</g>
<path d="M108.143 123.917C108.143 123.917 108.758 123.466 110.003 122.726C111.82 121.649 113.715 120.709 115.672 119.915C118.776 118.669 122.005 117.758 125.303 117.198C127.364 116.841 129.444 116.605 131.532 116.489C132.638 116.404 133.783 116.373 134.95 116.349C136.118 116.326 137.286 116.349 138.548 116.349C143.917 116.511 149.25 117.295 154.439 118.685C160.402 120.285 166.077 122.81 171.257 126.168C176.995 129.893 181.901 134.762 185.67 140.471C189.76 146.605 192.343 153.619 193.207 160.941C193.602 164.442 193.547 167.98 193.043 171.468L192.716 171.281C195.391 169.145 198.397 167.461 201.616 166.298C204.74 165.203 208.01 164.581 211.317 164.452C217.576 164.201 223.756 165.914 228.992 169.35C233.672 172.467 237.446 176.764 239.932 181.808C242.096 186.156 243.165 190.967 243.046 195.823C242.82 202.828 240.269 209.558 235.797 214.954C234.596 216.397 233.264 217.726 231.819 218.925L230.658 219.804L230.253 220.093C230.253 220.093 230.378 219.976 230.635 219.773L231.772 218.862C233.187 217.648 234.49 216.308 235.665 214.86C237.537 212.556 239.08 210.004 240.251 207.276C241.802 203.645 242.66 199.755 242.781 195.807C242.888 190.995 241.819 186.23 239.667 181.925C237.181 176.944 233.43 172.705 228.79 169.63C223.612 166.254 217.509 164.577 211.333 164.834C208.065 164.961 204.834 165.578 201.748 166.664C198.575 167.812 195.611 169.472 192.973 171.577L192.568 171.904L192.646 171.39C193.144 167.936 193.196 164.432 192.802 160.964C191.933 153.723 189.373 146.788 185.327 140.72C181.589 135.058 176.725 130.227 171.039 126.526C165.894 123.178 160.256 120.659 154.33 119.059C149.172 117.652 143.868 116.848 138.524 116.661C137.302 116.661 136.103 116.583 134.935 116.661C133.767 116.739 132.599 116.707 131.532 116.785C129.444 116.886 127.364 117.112 125.303 117.463C122.014 118.003 118.791 118.887 115.687 120.102C113.73 120.877 111.831 121.79 110.003 122.835C109.373 123.186 108.906 123.481 108.586 123.676L108.143 123.917Z" fill="#355BE1" stroke="#355BE1"/>
<path d="M194.639 169.801C194.379 169.267 193.988 168.806 193.503 168.462C192.288 167.372 190.731 167.52 190.1 168.33C189.778 168.805 189.587 169.357 189.544 169.929C189.502 170.501 189.61 171.075 189.859 171.592C190.048 172.079 190.342 172.519 190.72 172.88C191.098 173.24 191.551 173.513 192.047 173.679C192.546 173.834 193.082 173.828 193.578 173.662C194.074 173.496 194.506 173.178 194.811 172.752C195.053 172.291 195.165 171.773 195.135 171.253C195.105 170.733 194.933 170.231 194.639 169.801Z" fill="#355BE1"/>
<path d="M175.213 122.173C175.501 120.71 173.375 119.168 171.584 118.389C171.584 118.389 170.401 117.805 169.903 117.611L167.8 114.122C167.626 113.842 167.375 113.617 167.076 113.476L166.734 113.32C166.695 113.305 166.653 113.3 166.612 113.307C166.57 113.314 166.532 113.332 166.5 113.36C166.469 113.387 166.446 113.423 166.433 113.462C166.421 113.502 166.42 113.545 166.43 113.585L167.271 116.7L163.938 115.586H163.884C163.261 115.374 162.743 114.931 162.436 114.348L161.657 112.939C161.619 112.868 161.563 112.809 161.494 112.768C161.434 112.734 161.367 112.716 161.298 112.717C161.23 112.717 161.163 112.734 161.103 112.768C161.044 112.802 160.994 112.85 160.959 112.909C160.923 112.967 160.904 113.034 160.902 113.102L160.832 115.477C160.826 115.659 160.873 115.839 160.967 115.995C161.061 116.151 161.198 116.277 161.361 116.357L162.194 116.785L166.5 118.934L164.265 120.071C164.244 120.082 164.226 120.097 164.212 120.116C164.197 120.135 164.188 120.157 164.183 120.18C164.179 120.204 164.179 120.228 164.186 120.251C164.192 120.273 164.203 120.295 164.219 120.312L164.351 120.468C164.437 120.575 164.551 120.658 164.679 120.707C164.808 120.756 164.947 120.771 165.083 120.748L168.766 120.056L173.827 122.547C174.465 122.89 175.065 122.718 175.213 122.173Z" fill="#355BE1"/>
<path d="M110.517 116.622C110.234 116.225 109.858 115.903 109.423 115.683C108.988 115.464 108.506 115.353 108.018 115.36C107.363 115.367 106.724 115.568 106.184 115.94C105.645 116.312 105.228 116.837 104.989 117.447C104.753 118.215 104.794 119.042 105.106 119.783C105.223 120.057 105.369 120.319 105.542 120.562C106.142 121.434 108.018 123.809 108.018 123.809H108.423C108.952 123.084 110.268 120.694 110.665 119.915C110.932 119.402 111.059 118.827 111.033 118.249C111.007 117.671 110.829 117.109 110.517 116.622ZM108.407 120.515C108.016 120.507 107.635 120.384 107.313 120.162C106.991 119.939 106.742 119.627 106.596 119.263C106.45 118.9 106.415 118.501 106.494 118.118C106.574 117.735 106.764 117.383 107.042 117.107C107.32 116.831 107.673 116.644 108.057 116.567C108.441 116.491 108.839 116.529 109.202 116.677C109.564 116.826 109.875 117.078 110.095 117.401C110.315 117.725 110.435 118.107 110.439 118.498C110.44 118.763 110.387 119.026 110.284 119.27C110.182 119.515 110.031 119.736 109.842 119.922C109.653 120.107 109.428 120.253 109.182 120.351C108.936 120.449 108.672 120.497 108.407 120.492V120.515Z" fill="#355BE1"/>
<g opacity="0.4">
<path d="M110.517 116.622C110.234 116.225 109.858 115.903 109.423 115.683C108.988 115.464 108.506 115.353 108.018 115.36C107.363 115.367 106.724 115.568 106.184 115.94C105.645 116.312 105.228 116.837 104.989 117.447C104.753 118.215 104.794 119.042 105.106 119.783C105.223 120.057 105.369 120.319 105.542 120.562C106.142 121.434 108.018 123.809 108.018 123.809H108.423C108.952 123.084 110.268 120.694 110.665 119.915C110.932 119.402 111.059 118.827 111.033 118.249C111.007 117.671 110.829 117.109 110.517 116.622ZM108.407 120.515C108.016 120.507 107.635 120.384 107.313 120.162C106.991 119.939 106.742 119.627 106.596 119.263C106.45 118.9 106.415 118.501 106.494 118.118C106.574 117.735 106.764 117.383 107.042 117.107C107.32 116.831 107.673 116.644 108.057 116.567C108.441 116.491 108.839 116.529 109.202 116.677C109.564 116.826 109.875 117.078 110.095 117.401C110.315 117.725 110.435 118.107 110.439 118.498C110.44 118.763 110.387 119.026 110.284 119.27C110.182 119.515 110.031 119.736 109.842 119.922C109.653 120.107 109.428 120.253 109.182 120.351C108.936 120.449 108.672 120.497 108.407 120.492V120.515Z" fill="black"/>
</g>
<path d="M110.922 116.637C110.64 116.241 110.266 115.919 109.832 115.699C109.398 115.479 108.917 115.368 108.431 115.376C107.775 115.382 107.137 115.584 106.597 115.956C106.057 116.328 105.641 116.853 105.402 117.463C105.162 118.23 105.201 119.057 105.511 119.799C105.631 120.072 105.777 120.332 105.947 120.577C106.554 121.449 108.431 123.824 108.431 123.824C108.431 123.824 110.595 120.842 111.07 119.931C111.341 119.419 111.47 118.843 111.444 118.264C111.418 117.685 111.238 117.124 110.922 116.637ZM108.407 120.531C108.016 120.523 107.635 120.4 107.313 120.177C106.991 119.955 106.742 119.642 106.596 119.279C106.45 118.915 106.415 118.517 106.494 118.134C106.574 117.75 106.764 117.399 107.042 117.123C107.32 116.847 107.673 116.659 108.057 116.583C108.441 116.506 108.839 116.545 109.202 116.693C109.564 116.841 109.875 117.093 110.095 117.417C110.315 117.741 110.435 118.122 110.439 118.514C110.441 118.779 110.388 119.042 110.286 119.287C110.184 119.532 110.034 119.754 109.844 119.94C109.655 120.126 109.43 120.272 109.183 120.369C108.936 120.466 108.673 120.513 108.407 120.507V120.531Z" fill="#355BE1"/>
<path d="M108.407 116.505C107.996 116.505 107.595 116.633 107.259 116.87C106.923 117.107 106.669 117.442 106.531 117.829C106.686 117.49 106.947 117.211 107.275 117.035C107.603 116.859 107.98 116.795 108.348 116.853C108.716 116.911 109.055 117.088 109.312 117.357C109.57 117.626 109.733 117.971 109.776 118.341C109.818 118.711 109.739 119.085 109.549 119.406C109.359 119.726 109.07 119.976 108.725 120.116C108.38 120.257 107.999 120.281 107.639 120.184C107.279 120.087 106.961 119.875 106.733 119.581C106.921 119.871 107.181 120.107 107.487 120.267C107.794 120.426 108.137 120.503 108.482 120.49C108.828 120.477 109.164 120.375 109.457 120.192C109.751 120.01 109.993 119.755 110.158 119.451C110.323 119.148 110.406 118.806 110.4 118.461C110.393 118.115 110.297 117.777 110.121 117.48C109.944 117.183 109.693 116.937 109.393 116.766C109.093 116.595 108.753 116.505 108.407 116.505Z" fill="#355BE1"/>
<g opacity="0.4">
<path d="M108.407 116.505C107.996 116.505 107.595 116.633 107.259 116.87C106.923 117.107 106.669 117.442 106.531 117.829C106.686 117.49 106.947 117.211 107.275 117.035C107.603 116.859 107.98 116.795 108.348 116.853C108.716 116.911 109.055 117.088 109.312 117.357C109.57 117.626 109.733 117.971 109.776 118.341C109.818 118.711 109.739 119.085 109.549 119.406C109.359 119.726 109.07 119.976 108.725 120.116C108.38 120.257 107.999 120.281 107.639 120.184C107.279 120.087 106.961 119.875 106.733 119.581C106.921 119.871 107.181 120.107 107.487 120.267C107.794 120.426 108.137 120.503 108.482 120.49C108.828 120.477 109.164 120.375 109.457 120.192C109.751 120.01 109.993 119.755 110.158 119.451C110.323 119.148 110.406 118.806 110.4 118.461C110.393 118.115 110.297 117.777 110.121 117.48C109.944 117.183 109.693 116.937 109.393 116.766C109.093 116.595 108.753 116.505 108.407 116.505Z" fill="black"/>
</g>
<path d="M288.595 280.604C288.004 278.268 289.553 275.932 291.289 274.204C293.026 272.475 295.097 270.996 296.008 268.754C297.487 265.11 295.556 260.368 298.056 257.339C299.527 255.556 302.151 255.003 303.459 253.064C304.062 252.011 304.464 250.854 304.643 249.654C306.061 243.597 309.078 238.031 313.379 233.537C313.64 238.946 312.437 244.326 309.898 249.109C308.878 251.024 307.64 252.878 307.29 255.019C306.729 258.484 308.645 262.065 307.773 265.468C306.776 269.361 302.385 271.946 302.159 275.956C301.964 279.343 304.9 282.34 304.658 285.727C304.463 287.168 303.93 288.543 303.101 289.737C300.454 294.082 296.584 297.064 290.744 296.932L283.597 297.142L288.595 280.604Z" fill="#355BE1"/>
<g opacity="0.3">
<path d="M288.595 280.604C288.004 278.268 289.553 275.932 291.289 274.204C293.026 272.475 295.097 270.996 296.008 268.754C297.487 265.11 295.556 260.368 298.056 257.339C299.527 255.556 302.151 255.003 303.459 253.064C304.062 252.011 304.464 250.854 304.643 249.654C306.061 243.597 309.078 238.031 313.379 233.537C313.64 238.946 312.437 244.326 309.898 249.109C308.878 251.024 307.64 252.878 307.29 255.019C306.729 258.484 308.645 262.065 307.773 265.468C306.776 269.361 302.385 271.946 302.159 275.956C301.964 279.343 304.9 282.34 304.658 285.727C304.463 287.168 303.93 288.543 303.101 289.737C300.454 294.082 296.584 297.064 290.744 296.932L283.597 297.142L288.595 280.604Z" fill="black"/>
</g>
<path d="M282.172 297.306C281.519 297.402 280.855 297.384 280.21 297.251C279.413 297.13 278.63 296.929 277.874 296.652C276.839 296.295 275.87 295.769 275.008 295.094C274.493 294.683 274.092 294.147 273.84 293.537C273.623 292.847 273.513 292.127 273.513 291.404C273.507 290.623 273.455 289.843 273.358 289.068C273.225 288.241 272.935 287.448 272.501 286.732C271.66 285.253 270.274 283.835 269.831 281.827C269.387 279.818 269.714 277.708 270.064 275.598C270.415 273.488 270.742 271.121 269.932 268.878C269.122 266.636 267.596 264.611 266.817 262.089C266.039 259.566 266.436 256.794 266.288 254.092C266.241 252.722 265.932 251.374 265.377 250.121C264.801 248.852 264.006 247.653 263.391 246.314C262.138 243.612 261.928 240.56 261.601 237.57C261.44 236.059 261.276 234.533 261.11 232.992C261.01 231.443 260.749 229.908 260.331 228.413C259.859 226.905 259.297 225.425 258.65 223.983C258.313 223.228 258.039 222.447 257.832 221.647C257.717 220.831 257.644 220.01 257.614 219.187C257.547 217.535 257.62 215.881 257.832 214.242C258.034 212.592 258.346 210.957 258.533 209.306C258.533 209.205 258.533 209.111 258.533 209.018L258.572 208.691L258.868 208.839C260.378 209.621 261.689 210.74 262.698 212.109C263.679 213.448 264.465 214.918 265.034 216.477C266.21 219.592 266.591 222.784 267.207 225.859C267.822 228.935 268.538 231.964 270.095 234.526C270.874 235.802 271.816 236.97 272.641 238.216C273.52 239.433 274.118 240.829 274.393 242.304C274.798 245.325 273.116 247.972 273.443 250.659C273.6 251.974 274.038 253.241 274.728 254.373C275.374 255.525 276.13 256.584 276.846 257.65C277.579 258.696 278.215 259.806 278.746 260.967C279.244 262.103 279.536 263.319 279.61 264.557C279.766 266.963 279.415 269.229 279.61 271.417C279.797 273.473 280.384 275.472 281.339 277.303C282.195 279.063 283.145 280.659 283.947 282.208C284.341 282.95 284.697 283.712 285.014 284.49C285.299 285.221 285.505 285.98 285.629 286.755C285.823 288.108 285.823 289.482 285.629 290.835C285.433 292.726 284.713 294.525 283.55 296.029C283.377 296.254 283.184 296.462 282.974 296.652C282.833 296.803 282.673 296.937 282.499 297.049C282.234 297.243 282.086 297.337 282.086 297.337C282.596 296.932 283.063 296.475 283.48 295.974C284.594 294.465 285.275 292.68 285.45 290.812C285.622 289.477 285.601 288.124 285.387 286.794C285.255 286.038 285.046 285.297 284.764 284.583C284.461 283.804 284.087 283.088 283.69 282.325C282.911 280.768 281.923 279.21 281.043 277.427C280.06 275.568 279.452 273.534 279.252 271.44C279.081 269.229 279.423 266.939 279.252 264.58C279.182 263.382 278.898 262.205 278.411 261.108C277.883 259.974 277.255 258.89 276.534 257.869C275.818 256.802 275.047 255.735 274.385 254.567C273.663 253.382 273.206 252.053 273.046 250.674C272.719 247.817 274.385 245.154 273.973 242.335C273.702 240.929 273.125 239.6 272.283 238.442C271.505 237.212 270.524 236.044 269.722 234.736C268.217 232.001 267.217 229.018 266.771 225.93C266.179 222.815 265.766 219.646 264.606 216.586C264.053 215.069 263.288 213.637 262.332 212.335C261.363 211.028 260.105 209.962 258.657 209.22L258.992 209.041C258.992 209.127 258.992 209.228 258.992 209.329C258.805 210.996 258.502 212.639 258.299 214.266C258.087 215.881 258.014 217.512 258.081 219.14C258.108 219.937 258.176 220.732 258.284 221.523C258.48 222.288 258.741 223.035 259.062 223.757C259.712 225.219 260.278 226.717 260.76 228.242C261.182 229.768 261.443 231.334 261.538 232.914C261.702 234.471 261.857 235.982 262.021 237.492C262.34 240.498 262.55 243.503 263.757 246.111C264.357 247.404 265.151 248.611 265.735 249.919C266.31 251.218 266.628 252.617 266.669 254.038C266.81 256.802 266.436 259.488 267.168 261.948C267.9 264.409 269.449 266.418 270.22 268.73C270.991 271.043 270.687 273.48 270.337 275.621C269.986 277.762 269.62 279.865 270.072 281.764C270.524 283.664 271.824 285.089 272.673 286.615C273.118 287.349 273.415 288.164 273.545 289.013C273.64 289.788 273.686 290.568 273.685 291.349C273.679 292.056 273.779 292.759 273.981 293.436C274.219 294.021 274.595 294.539 275.078 294.946C275.916 295.628 276.861 296.167 277.874 296.543C278.612 296.827 279.376 297.038 280.155 297.173C280.636 297.262 281.123 297.311 281.611 297.321C282 297.298 282.172 297.306 282.172 297.306Z" fill="#263238"/>
<path d="M260.059 212.934C260.092 213.003 260.116 213.077 260.129 213.152C260.168 213.324 260.222 213.534 260.285 213.799C260.417 214.359 260.581 215.208 260.845 216.275C261.11 217.341 261.764 218.54 262.309 220.02C262.951 221.682 263.507 223.377 263.975 225.096C264.513 227.012 264.987 229.13 265.478 231.403C265.896 233.833 266.653 236.192 267.728 238.411C268.304 239.579 268.958 240.747 269.48 242.047C269.986 243.37 270.323 244.751 270.485 246.158C270.826 249.076 271.322 251.974 271.972 254.84C273.373 260.71 274.712 266.293 275.927 271.385C277.142 276.477 278.263 281.025 279.236 284.879C280.21 288.733 280.902 291.801 281.432 293.989C281.673 295.04 281.868 295.865 282.008 296.472C282.063 296.729 282.109 296.947 282.14 297.119C282.152 297.193 282.152 297.27 282.14 297.344C282.106 297.275 282.08 297.202 282.063 297.126C282.016 296.963 281.961 296.753 281.884 296.496C281.728 295.896 281.502 295.071 281.23 294.035C280.669 291.855 279.867 288.764 278.894 284.957C277.92 281.149 276.76 276.548 275.483 271.487C274.206 266.425 272.906 260.804 271.497 254.941C270.86 252.057 270.379 249.141 270.056 246.205C269.902 244.833 269.575 243.485 269.083 242.195C268.585 240.933 267.946 239.766 267.362 238.59C266.287 236.336 265.532 233.944 265.12 231.481C264.645 229.207 264.193 227.09 263.679 225.182C263.166 223.274 262.628 221.577 262.083 220.105C261.538 218.634 260.946 217.419 260.69 216.321C260.433 215.223 260.316 214.39 260.207 213.814C260.16 213.549 260.129 213.331 260.098 213.16C260.074 213.087 260.061 213.011 260.059 212.934Z" fill="#263238"/>
<path d="M280.91 297.321C276.239 294.518 274.962 286.078 276.939 281.017C278.917 275.956 282.39 271.346 282.911 265.943C283.34 261.785 282 257.51 282.997 253.485C284.328 248.035 289.709 243.791 289.678 238.154C289.678 234.993 287.879 232.003 288.042 228.849C288.237 224.956 291.235 221.912 293.096 218.509C295.945 213.3 296.163 207.126 297.16 201.271C298.157 195.416 300.43 189.155 305.639 186.306C306.379 191.281 307.664 194.699 307.197 201.434C307.033 203.856 304.191 208.442 303.778 213.768C303.537 216.937 303.358 220.113 303.148 223.282C302.937 226.451 302.719 229.511 301.59 232.4C300.734 234.603 299.356 236.604 298.717 238.886C297.503 243.184 299.037 247.848 298.056 252.2C297.222 255.883 294.653 259.044 294.108 262.782C293.329 268.037 296.716 273.519 294.949 278.525C294.069 281.009 292.006 282.995 291.414 285.533C290.955 287.526 291.414 289.644 291.009 291.637C290.339 294.861 284.165 297.547 280.887 297.329" fill="#355BE1"/>
<path d="M304.316 191.203C304.326 191.296 304.326 191.39 304.316 191.483C304.316 191.694 304.253 191.958 304.207 192.301C304.098 193.017 303.965 194.076 303.716 195.415C303.467 196.755 302.735 198.328 302.159 200.188C301.583 202.049 300.929 204.229 300.423 206.565C299.916 208.901 299.418 211.611 298.935 214.461C298.453 217.31 297.923 220.425 296.491 223.383C295.821 224.878 295.081 226.366 294.521 227.954C293.97 229.583 293.63 231.276 293.508 232.992C293.224 236.648 292.746 240.287 292.076 243.892L287.926 264.65C286.579 271.004 285.372 276.734 284.352 281.554C283.332 286.374 282.483 290.228 281.899 292.945C281.611 294.261 281.377 295.281 281.214 296.06L281.027 296.838C281.009 296.932 280.98 297.024 280.941 297.111C280.945 297.017 280.958 296.923 280.98 296.831C280.98 296.62 281.066 296.356 281.121 296.052C281.268 295.312 281.471 294.269 281.728 292.938C282.281 290.212 283.067 286.319 284.064 281.523C285.06 276.727 286.228 270.957 287.536 264.596C288.844 258.234 290.191 251.204 291.655 243.846C292.321 240.26 292.799 236.642 293.088 233.007C293.218 231.254 293.571 229.524 294.139 227.861C294.715 226.241 295.47 224.746 296.132 223.267C297.557 220.347 298.071 217.295 298.585 214.453C299.099 211.611 299.566 208.948 300.142 206.55C300.637 204.389 301.245 202.255 301.964 200.157C302.564 198.289 303.303 196.762 303.592 195.423C303.88 194.084 304.02 193.025 304.16 192.309C304.222 191.974 304.277 191.709 304.316 191.53C304.303 191.422 304.303 191.312 304.316 191.203Z" fill="#263238"/>
<path d="M62.5075 265.063C64.0103 267.165 66.8756 266.433 68.1914 265.133C69.5073 263.833 70.0601 261.956 70.5273 260.173C71.6563 256.086 72.7931 251.803 71.8821 247.669C71.6637 246.413 71.1003 245.243 70.2548 244.289C69.833 243.82 69.2956 243.468 68.696 243.27C68.0964 243.072 67.4554 243.034 66.8367 243.16C65.3884 243.558 64.5008 244.99 63.8623 246.345C61.9878 250.351 61.0252 254.723 61.0437 259.146C61.0437 261.201 61.324 263.358 62.4997 265.047" fill="#355BE1"/>
<path d="M68.1525 275.707C70.6204 274.519 73.4037 274.154 76.0944 274.663C77.5639 274.78 78.9527 275.383 80.042 276.376C81.0309 277.451 81.2333 279.358 80.1199 280.269C79.3954 280.768 78.5201 280.999 77.6439 280.923C75.5416 280.923 73.2058 280.565 71.5395 281.85C70.5896 282.582 69.9823 283.789 68.8221 284.186C68.2502 284.323 67.6491 284.27 67.1097 284.036C66.5703 283.801 66.1219 283.397 65.8322 282.886C65.2735 281.839 65.1396 280.618 65.4585 279.475C65.5876 278.682 65.8978 277.93 66.365 277.276C66.8322 276.622 67.4439 276.085 68.1525 275.707Z" fill="#355BE1"/>
<path d="M58.4743 268.131C59.2252 267.133 59.7206 265.966 59.9174 264.732C60.1142 263.499 60.0064 262.236 59.6033 261.053C58.7704 258.688 57.3022 256.597 55.3598 255.011C53.1512 253.084 50.5886 251.606 47.815 250.659C46.7404 250.238 45.5877 250.055 44.4358 250.121C43.8603 250.16 43.3028 250.338 42.8117 250.641C42.3206 250.943 41.9106 251.361 41.6172 251.858C40.8386 253.376 41.6172 255.19 42.4503 256.677C43.923 259.286 45.5942 261.777 47.449 264.129C48.944 266.021 50.657 267.882 52.8994 268.715C55.1418 269.548 57.4932 269.431 58.6767 267.858" fill="#355BE1"/>
<path d="M62.7178 296.924C62.7904 296.61 62.8321 296.289 62.8424 295.967C62.9047 295.266 62.9748 294.409 63.0682 293.343C63.1874 292.052 63.3719 290.768 63.621 289.496C63.9526 287.947 64.4056 286.427 64.9758 284.949C65.5315 283.471 66.2972 282.082 67.2494 280.822C68.0216 279.796 69.014 278.955 70.1536 278.362C70.9267 277.972 71.7575 277.709 72.6141 277.583C72.9352 277.569 73.2538 277.52 73.564 277.435C73.2402 277.407 72.9145 277.407 72.5907 277.435C71.7023 277.516 70.8351 277.754 70.0291 278.136C68.8293 278.718 67.7796 279.567 66.9613 280.62C65.9832 281.901 65.1963 283.317 64.6254 284.825C64.0486 286.325 63.6006 287.873 63.2862 289.45C63.0524 290.737 62.8938 292.037 62.8113 293.343C62.7412 294.456 62.7178 295.359 62.71 295.982C62.6761 296.295 62.6787 296.612 62.7178 296.924Z" fill="#263238"/>
<path d="M62.8735 294.908C62.8935 294.76 62.8935 294.611 62.8735 294.464C62.8735 294.129 62.8735 293.685 62.8735 293.187C62.8735 292.081 62.8735 290.485 62.8735 288.515C62.928 284.567 63.2161 279.109 63.8156 273.114C64.4152 267.119 65.2794 261.699 66.058 257.822C66.2371 256.856 66.4162 255.977 66.5875 255.214C66.7588 254.45 66.8912 253.781 67.0235 253.251C67.1559 252.722 67.2338 252.333 67.3116 252.006C67.3556 251.864 67.3792 251.718 67.3817 251.57C67.3185 251.704 67.269 251.845 67.2338 251.99L66.8756 253.212C66.7199 253.742 66.5564 254.396 66.3695 255.167C66.1826 255.938 65.9802 256.802 65.7777 257.767C64.7243 262.822 63.9446 267.929 63.4419 273.067C62.9063 278.197 62.6282 283.35 62.6088 288.507C62.6088 290.485 62.6555 292.089 62.7178 293.179C62.7178 293.693 62.7878 294.113 62.8112 294.448C62.8174 294.603 62.8382 294.757 62.8735 294.908Z" fill="#263238"/>
<path d="M62.8034 284.365C62.8341 283.922 62.8341 283.477 62.8034 283.034C62.7168 281.825 62.5687 280.622 62.3596 279.428C62.0478 277.661 61.6397 275.912 61.1372 274.188C60.5348 272.061 59.7802 269.979 58.8792 267.959C57.3211 264.264 55.105 260.882 52.3388 257.978C51.847 257.483 51.3271 257.018 50.7815 256.584C50.5479 256.389 50.3377 256.194 50.1275 256.047L49.5357 255.642C49.18 255.376 48.8023 255.142 48.4067 254.941C49.7119 255.938 50.95 257.02 52.113 258.18C54.7924 261.106 56.9517 264.469 58.4976 268.123C59.3883 270.132 60.1452 272.197 60.7634 274.305C61.3552 276.228 61.7601 277.996 62.0637 279.491C62.3674 280.986 62.5231 282.208 62.6243 283.049C62.6461 283.492 62.706 283.932 62.8034 284.365Z" fill="#263238"/>
</svg>
