<svg width="333" height="249" viewBox="0 0 333 249" fill="none" xmlns="http://www.w3.org/2000/svg">
<path d="M247.432 197.323C255.005 184.535 248.098 162.444 241.618 152.474C234.159 141.006 221.019 136.11 208.751 132.394C193.273 127.732 184.415 124.202 178.568 107.459C173.42 92.7205 171.335 77.0429 164.702 62.9503C151.142 34.1325 128.904 4.88846 94.6853 15.378C63.3034 25.0017 44.4689 57.336 61.6717 87.972C76.1905 113.833 110.41 92.8937 115.225 128.032C119.714 160.759 82.4575 188.951 103.75 219.94C124.928 250.769 153.946 204.702 176.61 192.121C191.162 184.042 193.38 203.443 204.935 210.176C218.894 218.295 237.855 213.506 247.432 197.323Z" fill="#355BE1"/>
<path opacity="0.9" d="M247.432 197.323C255.005 184.535 248.098 162.444 241.618 152.474C234.159 141.006 221.019 136.11 208.751 132.394C193.273 127.732 184.415 124.202 178.568 107.459C173.42 92.7205 171.335 77.0429 164.702 62.9503C151.142 34.1325 128.904 4.88846 94.6853 15.378C63.3034 25.0017 44.4689 57.336 61.6717 87.972C76.1905 113.833 110.41 92.8937 115.225 128.032C119.714 160.759 82.4575 188.951 103.75 219.94C124.928 250.769 153.946 204.702 176.61 192.121C191.162 184.042 193.38 203.443 204.935 210.176C218.894 218.295 237.855 213.506 247.432 197.323Z" fill="white"/>
<path d="M166.5 248.125C237.817 248.125 295.631 244.749 295.631 240.586C295.631 236.422 237.817 233.047 166.5 233.047C95.1831 233.047 37.3693 236.422 37.3693 240.586C37.3693 244.749 95.1831 248.125 166.5 248.125Z" fill="white"/>
<path d="M153.266 238.841C153.334 239.046 153.35 239.265 153.314 239.478C153.278 239.691 153.19 239.892 153.059 240.063C152.928 240.235 152.757 240.373 152.561 240.463C152.365 240.554 152.15 240.596 151.934 240.586H59.1607C56.2636 240.586 56.2636 221.718 59.1607 221.718H151.961C152.176 221.708 152.39 221.749 152.586 221.84C152.781 221.931 152.951 222.067 153.082 222.238C153.213 222.409 153.301 222.609 153.338 222.821C153.374 223.033 153.359 223.251 153.293 223.456C152.134 227.052 152.134 235.251 153.266 238.841Z" fill="#355BE1"/>
<path opacity="0.8" d="M153.133 223.922H96.8362C94.6185 223.922 94.6185 238.381 96.8362 238.381H153.133C152.181 234.752 152.181 227.545 153.133 223.922Z" fill="white"/>
<path opacity="0.2" d="M94.0324 238.841C94.0997 239.046 94.116 239.265 94.0799 239.478C94.0438 239.691 93.9565 239.892 93.8254 240.063C93.6943 240.235 93.5234 240.373 93.3274 240.463C93.1314 240.554 92.9162 240.596 92.7004 240.586H59.1607C56.2636 240.586 56.2636 221.718 59.1607 221.718H92.7271C92.9421 221.708 93.1564 221.749 93.3517 221.84C93.547 221.931 93.7174 222.067 93.8483 222.238C93.9793 222.409 94.0668 222.609 94.1035 222.821C94.1402 223.033 94.125 223.251 94.0591 223.456C92.9002 227.052 92.9002 235.251 94.0324 238.841Z" fill="black"/>
<path d="M73.4663 221.718H65.8007C62.9036 221.718 62.9036 240.586 65.8007 240.586H73.4663C70.5959 240.586 70.5959 221.718 73.4663 221.718Z" fill="#355BE1"/>
<path d="M79.507 221.718H76.4967C73.5996 221.718 73.5996 240.586 76.4967 240.586H79.507C76.5899 240.586 76.5899 221.718 79.507 221.718Z" fill="#355BE1"/>
<path d="M53.7528 220.153C53.4331 220.926 54.219 221.718 55.2846 221.718H138.721C142.124 221.718 142.124 204.755 138.721 204.755H55.2779C54.2123 204.755 53.4264 205.541 53.7461 206.32C55.0781 209.55 55.0781 216.923 53.7528 220.153Z" fill="#263238"/>
<path opacity="0.2" d="M53.7528 220.153C53.4331 220.926 54.219 221.718 55.2846 221.718H96.197C99.6002 221.718 99.6002 204.755 96.197 204.755H55.2779C54.2123 204.755 53.4264 205.541 53.7461 206.32C55.0781 209.55 55.0781 216.923 53.7528 220.153Z" fill="black"/>
<path opacity="0.8" d="M53.8993 206.733H94.5253C97.1294 206.733 97.1294 219.733 94.5253 219.733H53.8993C55.0182 216.45 55.0182 209.996 53.8993 206.733Z" fill="white"/>
<path opacity="0.2" d="M108.018 208.538C107.765 207.785 108.498 207.053 109.51 207.053H132.867C135.344 207.053 135.344 219.414 132.867 219.414H109.51C108.498 219.414 107.765 218.688 108.018 217.935C108.818 214.854 108.818 211.619 108.018 208.538Z" fill="white"/>
<path d="M276.876 212.58C276.95 212.806 276.971 213.045 276.938 213.279C276.905 213.514 276.818 213.738 276.685 213.934C276.552 214.13 276.376 214.293 276.17 214.411C275.964 214.528 275.734 214.597 275.498 214.612H177.462C174.399 214.612 174.399 192.634 177.462 192.634H275.498C275.73 192.65 275.956 192.718 276.159 192.833C276.362 192.949 276.536 193.108 276.668 193.3C276.801 193.492 276.888 193.712 276.924 193.942C276.96 194.173 276.944 194.408 276.876 194.632C275.684 198.861 275.684 208.404 276.876 212.58Z" fill="#355BE1"/>
<path opacity="0.5" d="M276.876 212.58C276.95 212.806 276.971 213.045 276.938 213.279C276.905 213.514 276.818 213.738 276.685 213.934C276.552 214.13 276.376 214.293 276.17 214.411C275.964 214.528 275.734 214.597 275.498 214.612H177.462C174.399 214.612 174.399 192.634 177.462 192.634H275.498C275.73 192.65 275.956 192.718 276.159 192.833C276.362 192.949 276.536 193.108 276.668 193.3C276.801 193.492 276.888 193.712 276.924 193.942C276.96 194.173 276.944 194.408 276.876 194.632C275.684 198.861 275.684 208.404 276.876 212.58Z" fill="white"/>
<path opacity="0.8" d="M276.743 195.218H217.262C214.918 195.218 214.918 212.041 217.262 212.041H276.743C275.724 207.825 275.724 199.44 276.743 195.218Z" fill="white"/>
<path opacity="0.6" d="M214.299 212.58C214.372 212.806 214.394 213.045 214.36 213.279C214.327 213.514 214.241 213.738 214.108 213.934C213.975 214.13 213.799 214.293 213.593 214.411C213.387 214.528 213.157 214.597 212.92 214.612H177.462C174.399 214.612 174.399 192.634 177.462 192.634H212.92C213.153 192.65 213.379 192.718 213.582 192.833C213.784 192.949 213.958 193.108 214.091 193.3C214.223 193.492 214.311 193.712 214.347 193.942C214.383 194.173 214.366 194.408 214.299 194.632C213.12 198.861 213.12 208.404 214.299 212.58Z" fill="#355BE1"/>
<path opacity="0.5" d="M199.913 194.279C199.983 194.107 200.011 193.921 199.995 193.736C199.98 193.551 199.921 193.372 199.824 193.214C199.727 193.056 199.594 192.923 199.436 192.825C199.278 192.728 199.099 192.669 198.914 192.654H185.394C182.331 192.654 182.331 214.632 185.394 214.632H198.914C199.099 214.615 199.278 214.555 199.436 214.457C199.594 214.359 199.726 214.225 199.824 214.067C199.921 213.908 199.979 213.729 199.995 213.544C200.01 213.359 199.982 213.172 199.913 213C198.548 208.917 198.548 198.348 199.913 194.279Z" fill="white"/>
<path d="M269.843 238.168C269.922 238.46 269.93 238.767 269.867 239.063C269.804 239.359 269.671 239.635 269.48 239.869C269.288 240.104 269.044 240.289 268.766 240.41C268.489 240.531 268.187 240.585 267.885 240.566H166.027C161.678 240.566 161.671 214.592 166.027 214.592H267.925C268.227 214.573 268.529 214.626 268.806 214.747C269.084 214.868 269.328 215.053 269.519 215.288C269.711 215.522 269.844 215.799 269.907 216.095C269.97 216.39 269.962 216.697 269.883 216.989C268.145 221.938 268.152 233.226 269.843 238.168Z" fill="#355BE1"/>
<path opacity="0.2" d="M269.843 238.168C269.922 238.46 269.93 238.767 269.867 239.063C269.804 239.359 269.671 239.635 269.48 239.869C269.288 240.104 269.044 240.289 268.766 240.41C268.489 240.531 268.187 240.585 267.885 240.566H166.027C161.678 240.566 161.671 214.592 166.027 214.592H267.925C268.227 214.573 268.529 214.626 268.806 214.747C269.084 214.868 269.328 215.053 269.519 215.288C269.711 215.522 269.844 215.799 269.907 216.095C269.97 216.39 269.962 216.697 269.883 216.989C268.145 221.938 268.152 233.226 269.843 238.168Z" fill="white"/>
<path opacity="0.8" d="M269.643 217.629H208.058C204.728 217.629 204.728 237.529 208.058 237.529H269.65C268.225 232.54 268.225 222.624 269.643 217.629Z" fill="white"/>
<path opacity="0.6" d="M203.849 238.181C203.929 238.473 203.939 238.78 203.877 239.076C203.814 239.372 203.682 239.648 203.491 239.883C203.3 240.118 203.056 240.303 202.779 240.424C202.502 240.545 202.2 240.598 201.898 240.579H166.027C161.678 240.579 161.671 214.605 166.027 214.605H201.898C202.2 214.586 202.502 214.639 202.779 214.76C203.056 214.882 203.301 215.067 203.492 215.301C203.684 215.536 203.816 215.812 203.88 216.108C203.943 216.404 203.935 216.711 203.856 217.003C202.158 221.951 202.158 233.233 203.849 238.181Z" fill="#355BE1"/>
<path opacity="0.5" d="M182.364 215.511C182.42 215.416 182.448 215.307 182.446 215.197C182.444 215.087 182.411 214.979 182.352 214.886C182.293 214.794 182.209 214.719 182.11 214.67C182.011 214.622 181.901 214.602 181.791 214.612H175.697C171.355 214.612 171.355 240.586 175.697 240.586H181.818C181.928 240.596 182.038 240.576 182.137 240.527C182.236 240.479 182.319 240.404 182.379 240.311C182.438 240.218 182.47 240.111 182.472 240C182.475 239.89 182.446 239.782 182.391 239.687C179.747 235.671 179.747 219.52 182.364 215.511Z" fill="white"/>
<path opacity="0.5" d="M191.874 215.511C191.929 215.415 191.957 215.306 191.955 215.196C191.952 215.086 191.92 214.979 191.861 214.885C191.802 214.792 191.719 214.717 191.62 214.668C191.522 214.618 191.412 214.597 191.302 214.605H185.208C180.865 214.605 180.865 240.579 185.208 240.579H191.302C191.411 240.588 191.52 240.567 191.618 240.518C191.716 240.469 191.799 240.394 191.857 240.301C191.915 240.208 191.947 240.101 191.949 239.992C191.951 239.883 191.923 239.775 191.868 239.68C189.257 235.671 189.257 219.514 191.874 215.511Z" fill="white"/>
<path d="M268.844 178.834C268.726 176.985 268.291 175.169 267.559 173.466L268.158 173.173C268.919 174.948 269.37 176.84 269.49 178.768L268.844 178.834Z" fill="#355BE1"/>
<path d="M264.668 170.582H248.125V171.248H264.668V170.582Z" fill="#355BE1"/>
<path d="M156.849 190.835C156.51 191.741 157.342 192.654 158.468 192.654H264.668C268.258 192.654 268.258 172.913 264.668 172.913H158.468C157.342 172.913 156.51 173.832 156.849 174.738C158.248 178.488 158.248 187.072 156.849 190.835Z" fill="#355BE1"/>
<path opacity="0.2" d="M156.849 190.835C156.51 191.741 157.342 192.654 158.468 192.654H219.74C223.336 192.654 223.336 172.913 219.74 172.913H158.468C157.342 172.913 156.51 173.832 156.849 174.738C158.248 178.488 158.248 187.072 156.849 190.835Z" fill="black"/>
<path opacity="0.8" d="M157.009 175.224H217.962C220.719 175.224 220.719 190.349 217.962 190.349H157.009C158.188 186.553 158.188 179.021 157.009 175.224Z" fill="white"/>
<path opacity="0.2" d="M232.227 177.316C231.961 176.443 232.734 175.597 233.799 175.597H258.481C261.098 175.597 261.098 189.976 258.481 189.976H233.799C232.734 189.976 231.961 189.131 232.227 188.251C233.1 185.488 233.1 180.086 232.227 177.316Z" fill="white"/>
<path d="M146.92 28.638C143.916 31.8548 136.583 28.638 135.464 37.4958C134.252 47.0463 138.848 51.635 132.914 54.1458C123.59 58.0419 116.93 73.613 129.877 79.4538C142.824 85.2946 170.396 79.1741 167.293 67.2727C164.189 55.3713 164.802 48.9843 168.465 43.3766C173.293 35.964 172.261 26.4402 168.325 22.9903C162.198 17.5957 153.733 21.312 146.92 28.638Z" fill="#263238"/>
<path d="M162.943 66.9529C162.893 66.9548 162.843 66.9373 162.805 66.9039C162.766 66.8705 162.742 66.8237 162.737 66.773C162.732 66.7463 162.733 66.7188 162.739 66.6924C162.746 66.6659 162.757 66.641 162.773 66.6192C162.79 66.5974 162.81 66.5791 162.834 66.5655C162.857 66.5518 162.883 66.5432 162.91 66.54C165.481 66.187 167.013 65.5543 167.732 64.542C168.624 63.2832 168.238 61.4117 167.732 59.0408C166.946 55.1846 165.861 49.9033 169.324 43.23C173.526 35.1381 171.988 26.2669 168.052 23.3632C168.008 23.3312 167.978 23.2832 167.97 23.2295C167.961 23.1759 167.974 23.1211 168.005 23.0768C168.038 23.0325 168.087 23.0028 168.142 22.9941C168.197 22.9854 168.253 22.9983 168.298 23.0302C172.401 26.0338 173.986 35.1447 169.69 43.4231C166.3 49.9632 167.366 55.1647 168.138 58.9609C168.644 61.4251 169.044 63.3765 168.045 64.7817C167.259 65.8939 165.641 66.5799 162.95 66.9529H162.943Z" fill="#263238"/>
<path d="M129.364 55.4179C128.943 55.4161 128.523 55.3895 128.105 55.338C128.078 55.3347 128.051 55.326 128.028 55.3125C128.004 55.299 127.983 55.2808 127.966 55.2591C127.949 55.2374 127.937 55.2126 127.93 55.1861C127.923 55.1596 127.921 55.132 127.925 55.1049C127.928 55.0777 127.937 55.0514 127.951 55.0276C127.964 55.0037 127.982 54.9829 128.004 54.9661C128.026 54.9494 128.051 54.9371 128.077 54.9301C128.103 54.923 128.131 54.9213 128.158 54.9251C130.05 55.1582 131.422 54.8784 132.347 54.0659C134.079 52.5408 134.106 49.3506 134.126 45.6543C134.126 41.4719 134.186 36.7366 136.896 33.5065C136.914 33.4855 136.935 33.4682 136.959 33.4555C136.983 33.4428 137.01 33.435 137.037 33.4325C137.064 33.43 137.092 33.4329 137.118 33.4411C137.144 33.4492 137.168 33.4624 137.189 33.4799C137.21 33.4974 137.228 33.5188 137.24 33.543C137.253 33.5672 137.261 33.5937 137.263 33.6209C137.266 33.6481 137.263 33.6755 137.255 33.7016C137.247 33.7277 137.233 33.7519 137.216 33.7729C134.598 36.8898 134.552 41.5451 134.552 45.661C134.552 49.4505 134.505 52.7273 132.634 54.3789C131.711 55.1201 130.545 55.4906 129.364 55.4179Z" fill="#263238"/>
<path d="M194.732 172.9C190.289 172.847 188.545 172.567 186.5 172.601C184.455 172.634 183.969 172.994 181.838 172.9C180.399 172.84 180.393 171.129 180.945 169.957C181.378 169.038 181.911 168.112 182.404 166.966L188.038 167.379C188.798 169.524 192.567 170.443 195.871 171.202C197.183 171.515 196.51 172.92 194.732 172.9Z" fill="#355BE1"/>
<path d="M165.354 91.0822C165.354 91.0822 180.26 103.903 195.324 117.502C201.691 123.263 188.338 167.186 188.338 167.186C188.058 168.125 183.09 166.786 182.344 166.047C182.344 166.047 181.585 131.955 184.815 125.088C151.408 116.643 146.187 100.24 146.187 100.24L148.585 90.0632L165.354 91.0822Z" fill="#263238"/>
<path opacity="0.2" d="M148.391 104.282C150.261 106.896 152.477 109.244 154.978 111.262C158.308 107.366 157.376 101.072 157.376 101.072L148.391 104.282Z" fill="black"/>
<path d="M189.497 165.288C189.404 165.954 189.244 167.133 189.157 168.005C189.144 168.146 189.077 168.277 188.971 168.371C188.864 168.465 188.726 168.515 188.585 168.511C186.356 168.336 184.148 167.953 181.991 167.366C181.887 167.337 181.795 167.275 181.729 167.19C181.663 167.105 181.627 167.001 181.625 166.893L181.578 164.462C181.578 164.383 181.594 164.305 181.626 164.232C181.657 164.16 181.704 164.095 181.762 164.042C181.821 163.988 181.89 163.948 181.965 163.923C182.039 163.898 182.119 163.888 182.198 163.896L189.071 164.728C189.136 164.736 189.199 164.756 189.256 164.788C189.314 164.821 189.364 164.865 189.403 164.917C189.443 164.969 189.472 165.029 189.488 165.093C189.504 165.156 189.507 165.223 189.497 165.288Z" fill="#263238"/>
<path opacity="0.3" d="M189.497 165.288C189.404 165.954 189.244 167.133 189.157 168.005C189.144 168.146 189.077 168.277 188.971 168.371C188.864 168.465 188.726 168.515 188.585 168.511C186.356 168.336 184.148 167.953 181.991 167.366C181.887 167.337 181.795 167.275 181.729 167.19C181.663 167.105 181.627 167.001 181.625 166.893L181.578 164.462C181.578 164.383 181.594 164.305 181.626 164.232C181.657 164.16 181.704 164.095 181.762 164.042C181.821 163.988 181.89 163.948 181.965 163.923C182.039 163.898 182.119 163.888 182.198 163.896L189.071 164.728C189.136 164.736 189.199 164.756 189.256 164.788C189.314 164.821 189.364 164.865 189.403 164.917C189.443 164.969 189.472 165.029 189.488 165.093C189.504 165.156 189.507 165.223 189.497 165.288Z" fill="white"/>
<path d="M129.517 204.755C125.001 204.755 123.523 203.057 120.999 202.591C118.868 202.191 118.302 202.377 116.583 202.078C115.145 201.825 115.031 200.839 115.917 199.38C116.495 198.372 116.985 197.316 117.382 196.224L124.229 196.677C124.942 198.508 126.587 202.231 129.097 202.671C131.462 203.13 131.315 204.755 129.517 204.755Z" fill="#355BE1"/>
<path d="M164.322 91.0423C164.322 91.0423 148.571 119.048 142.231 136.37C135.571 154.565 124.968 184.322 124.202 196.677C123.07 197.216 119.354 197.01 117.356 196.224C117.356 196.224 115.504 153.6 128.325 136.523C131.382 99.9534 136.457 94.1059 141.851 89.6504L164.322 91.0423Z" fill="#263238"/>
<path d="M125.028 194.152C124.946 194.996 124.924 195.844 124.961 196.69C124.971 196.837 124.921 196.982 124.824 197.093C124.727 197.204 124.589 197.272 124.442 197.283C121.891 197.516 118.335 196.697 117.209 196.417C117.105 196.391 117.011 196.331 116.944 196.247C116.877 196.162 116.839 196.058 116.836 195.951L116.75 193.566C116.749 193.488 116.764 193.41 116.794 193.338C116.825 193.266 116.87 193.201 116.927 193.147C116.984 193.093 117.051 193.052 117.125 193.025C117.199 192.999 117.278 192.988 117.356 192.994L124.575 193.613C124.641 193.618 124.704 193.636 124.763 193.666C124.821 193.696 124.873 193.737 124.915 193.788C124.957 193.838 124.989 193.896 125.008 193.959C125.028 194.021 125.034 194.087 125.028 194.152Z" fill="#263238"/>
<path opacity="0.3" d="M125.028 194.152C124.946 194.996 124.924 195.844 124.961 196.69C124.971 196.837 124.921 196.982 124.824 197.093C124.727 197.204 124.589 197.272 124.442 197.283C121.891 197.516 118.335 196.697 117.209 196.417C117.105 196.391 117.011 196.331 116.944 196.247C116.877 196.162 116.839 196.058 116.836 195.951L116.75 193.566C116.749 193.488 116.764 193.41 116.794 193.338C116.825 193.266 116.87 193.201 116.927 193.147C116.984 193.093 117.051 193.052 117.125 193.025C117.199 192.999 117.278 192.988 117.356 192.994L124.575 193.613C124.641 193.618 124.704 193.636 124.763 193.666C124.821 193.696 124.873 193.737 124.915 193.788C124.957 193.838 124.989 193.896 125.008 193.959C125.028 194.021 125.034 194.087 125.028 194.152Z" fill="white"/>
<path d="M168.498 63.5698C169.164 64.8285 169.883 66.2338 170.616 67.5658C171.348 68.8978 172.088 70.2298 172.834 71.5285C174.339 74.1459 175.911 76.71 177.596 79.1276L176.69 78.3217C177.358 78.7915 178.095 79.1554 178.874 79.4006C179.817 79.7168 180.784 79.9573 181.765 80.1199C182.79 80.3064 183.856 80.4329 184.942 80.5328C186.027 80.6327 187.166 80.6927 188.205 80.7593H188.345C188.777 80.7841 189.188 80.9588 189.506 81.2534C189.823 81.5479 190.029 81.944 190.086 82.3734C190.144 82.8029 190.05 83.239 189.821 83.6068C189.592 83.9746 189.242 84.2512 188.831 84.389C187.641 84.7849 186.423 85.0921 185.188 85.308C183.947 85.5288 182.692 85.6645 181.432 85.7143C180.095 85.7656 178.757 85.6853 177.436 85.4745C175.945 85.2499 174.503 84.7724 173.173 84.0626C172.897 83.9116 172.651 83.7106 172.447 83.4699L172.268 83.2568C171.209 81.9914 170.176 80.6993 169.231 79.374C168.285 78.0486 167.359 76.71 166.5 75.378C165.641 74.046 164.808 72.6274 164.022 71.2222C163.237 69.8169 162.491 68.4249 161.778 66.8865C161.404 66.0123 161.378 65.0282 161.705 64.1354C162.032 63.2425 162.688 62.5085 163.539 62.0832C164.389 61.6579 165.37 61.5736 166.281 61.8475C167.192 62.1213 167.963 62.7326 168.438 63.5565L168.498 63.5698Z" fill="#FFB573"/>
<path d="M164.822 58.1951C169.171 59.627 169.876 61.5783 172.261 68.7845C170.676 73.1068 164.269 75.2979 164.269 75.2979C164.269 75.2979 156.703 62.9769 164.822 58.1951Z" fill="#355BE1"/>
<path d="M170.776 67.5725C170.529 69.9567 169.916 72.8005 168.631 78.3883C167.632 83.1302 167.619 92.3743 166.02 92.8605C162.95 94.3789 155.264 93.7929 141.851 89.6503C142.277 82.7239 143.083 78.022 140.779 62.1312C140.634 61.2982 140.676 60.4432 140.904 59.6287C141.131 58.8141 141.536 58.0604 142.091 57.4225C142.646 56.7845 143.337 56.2784 144.112 55.9408C144.887 55.6033 145.728 55.4428 146.573 55.4712C147.546 55.4712 148.571 55.5511 149.617 55.6444C153.306 55.8663 156.974 56.3537 160.592 57.1029C161.771 57.3693 162.99 57.6823 164.149 58.002C166.19 58.5849 167.966 59.8572 169.174 61.6022C170.382 63.3472 170.948 65.457 170.776 67.5725Z" fill="#355BE1"/>
<path d="M123.823 95.1181L125.155 93.8993C125.403 93.6727 125.592 93.3899 125.708 93.0747C125.824 92.7594 125.863 92.421 125.821 92.0878L125.454 88.9109C125.384 88.2866 125.167 87.6878 124.819 87.1644C124.472 86.6409 124.005 86.2077 123.456 85.9006L122.79 85.521C120.413 87.3925 119.221 91.162 119.221 91.162L118.761 92.201C118.66 92.411 118.602 92.6391 118.59 92.8718C118.578 93.1046 118.612 93.3374 118.691 93.5568C118.769 93.7762 118.891 93.9777 119.048 94.1497C119.205 94.3217 119.395 94.4607 119.607 94.5586L121.652 95.491C122.011 95.6443 122.407 95.6906 122.792 95.6244C123.177 95.5583 123.535 95.3825 123.823 95.1181Z" fill="#FFB573"/>
<path d="M193.733 79.1208L192.028 78.4548C191.712 78.3355 191.373 78.2939 191.038 78.3333C190.703 78.3727 190.382 78.492 190.103 78.6812L187.439 80.4661C186.916 80.8178 186.485 81.2899 186.183 81.8427C185.88 82.3955 185.715 83.0129 185.701 83.6429V84.4355C188.451 85.6875 192.361 85.0082 192.361 85.0082L193.493 84.9416C193.726 84.9339 193.955 84.8801 194.167 84.7834C194.379 84.6866 194.57 84.5488 194.728 84.3779C194.887 84.207 195.01 84.0064 195.091 83.7876C195.171 83.5689 195.208 83.3364 195.198 83.1035L195.091 80.859C195.061 80.4679 194.915 80.0945 194.674 79.7854C194.432 79.4763 194.105 79.2451 193.733 79.1208Z" fill="#FFB573"/>
<path d="M144.748 64.2758L143.896 64.6688L142.963 65.095C142.344 65.3947 141.731 65.7077 141.119 66.0274C139.887 66.6934 138.688 67.3594 137.509 68.0587C136.33 68.758 135.191 69.5372 134.086 70.3298C132.98 71.1223 131.955 71.9881 130.956 72.8739L131.395 72.3145C131.07 72.7921 130.785 73.2955 130.543 73.8196C130.25 74.4257 129.976 75.085 129.71 75.7577C129.177 77.0897 128.658 78.5149 128.178 79.9468C127.699 81.3787 127.213 82.8306 126.74 84.2825L125.301 88.6581C125.162 89.0879 124.871 89.4524 124.483 89.684C124.095 89.9155 123.636 89.9982 123.191 89.9168C122.747 89.8354 122.347 89.5954 122.066 89.2414C121.786 88.8874 121.643 88.4434 121.665 87.9921C121.738 86.387 121.885 84.8286 122.064 83.2568C122.244 81.6851 122.471 80.12 122.73 78.5482C122.99 76.9765 123.33 75.398 123.763 73.7996C123.976 73.0004 124.209 72.2012 124.502 71.3621C124.812 70.4384 125.208 69.5464 125.687 68.6981C125.771 68.5591 125.867 68.4277 125.974 68.3051L126.134 68.1386C127.231 66.9291 128.405 65.7923 129.65 64.7354C130.877 63.6927 132.162 62.721 133.5 61.825C134.819 60.9303 136.187 60.1077 137.596 59.3608C138.301 58.9878 139.014 58.6348 139.74 58.2885C140.106 58.122 140.466 57.9488 140.846 57.789C141.225 57.6292 141.572 57.4893 142.044 57.3095C142.951 56.9469 143.965 56.9553 144.865 57.3328C145.766 57.7103 146.483 58.4268 146.86 59.3276C147.238 60.2285 147.246 61.2417 146.883 62.1486C146.521 63.0556 145.816 63.7837 144.922 64.1759L144.748 64.2758Z" fill="#FFB573"/>
<path d="M151.182 57.2027C147.919 54.8651 145.934 54.612 138.035 58.0419C137.096 63.0102 140.173 70.3029 140.173 70.3029C140.173 70.3029 150.682 64.8284 151.182 57.2027Z" fill="#355BE1"/>
<path d="M152.034 43.3633C152.521 47.0196 152.834 53.6463 150.223 55.6976C150.223 55.6976 153.633 55.6377 160.153 60.9723C162.597 58.3083 161.199 57.1561 161.199 57.1561C157.316 55.6843 157.589 52.7472 158.435 50.0632L152.034 43.3633Z" fill="#FFB573"/>
<path d="M158.774 59.8932C156.397 59.8932 155.191 63.3498 155.191 63.3498C155.191 63.3498 149.477 58.7944 148.698 55.5909C149.456 55.285 150.199 54.9404 150.922 54.5586C150.922 54.5586 157.589 58.3615 158.774 59.8932Z" fill="white"/>
<path d="M161.052 59.8069C161.052 59.8069 162.85 60.4729 163.443 63.1369C164.662 58.062 162.284 57.2628 162.284 57.2628C161.688 56.816 160.948 56.6071 160.206 56.6767C160.692 57.016 161.044 57.5157 161.198 58.088C161.353 58.6604 161.301 59.2689 161.052 59.8069Z" fill="white"/>
<path opacity="0.2" d="M154.645 46.0938L158.428 50.0898C158.222 50.7144 158.073 51.3564 157.982 52.0078C156.49 51.5882 154.519 49.6502 154.452 48.0118C154.398 47.366 154.463 46.7158 154.645 46.0938Z" fill="black"/>
<path d="M147.932 38.0417C149.264 43.7294 149.75 46.1603 153.167 48.7577C158.301 52.6604 164.968 50.1296 165.328 44.2422C165.647 38.9142 163.37 30.5226 157.336 28.9242C156.057 28.5398 154.699 28.5038 153.402 28.8198C152.105 29.1358 150.915 29.7924 149.957 30.7218C148.998 31.6512 148.305 32.8196 147.949 34.1065C147.593 35.3933 147.587 36.7518 147.932 38.0417Z" fill="#FFB573"/>
<path d="M149.044 42.131C151.135 41.1054 153.353 36.0637 150.376 33.6795C152.834 34.139 155.651 33.4797 158.255 31.4683C161.652 28.8043 166.653 35.4177 165.008 31.5349C162.637 25.9405 155.491 24.5419 149.024 29.1906C142.557 33.8393 143.017 39.4936 149.044 42.131Z" fill="#263238"/>
<path d="M147.272 40.9923C147.25 40.99 147.228 40.9805 147.211 40.9652C147.195 40.9499 147.183 40.9296 147.179 40.9072C147.174 40.8848 147.177 40.8616 147.187 40.841C147.196 40.8203 147.212 40.8033 147.232 40.7925C148.897 40.0732 155.964 38.5681 156.263 38.5081C156.277 38.5042 156.291 38.5032 156.305 38.5051C156.319 38.5071 156.333 38.512 156.345 38.5196C156.357 38.5271 156.367 38.5372 156.375 38.549C156.382 38.5608 156.388 38.5741 156.39 38.5881C156.394 38.6144 156.388 38.6414 156.373 38.6635C156.359 38.6857 156.336 38.7016 156.31 38.7079C156.237 38.7079 148.984 40.273 147.312 40.9857L147.272 40.9923Z" fill="white"/>
<path opacity="0.2" d="M155.844 38.6281C155.13 38.3141 154.321 38.295 153.593 38.5748C154.333 38.7385 155.097 38.7566 155.844 38.6281Z" fill="black"/>
<path opacity="0.2" d="M155.784 39.1343C155.438 39.0612 155.079 39.0644 154.734 39.1438C154.389 39.2232 154.066 39.3767 153.786 39.5938C154.477 39.5828 155.158 39.4262 155.784 39.1343Z" fill="black"/>
<path d="M157.083 38.548C157.176 39.0342 157.502 39.3938 157.815 39.3538C158.128 39.3139 158.301 38.8943 158.208 38.4081C158.115 37.922 157.782 37.569 157.476 37.6023C157.169 37.6356 156.989 38.0685 157.083 38.548Z" fill="#263238"/>
<path d="M162.93 37.9153C163.023 38.3948 163.356 38.7544 163.663 38.7211C163.969 38.6878 164.149 38.2549 164.056 37.7754C163.962 37.2959 163.636 36.9296 163.323 36.9695C163.01 37.0095 162.837 37.4291 162.93 37.9153Z" fill="#263238"/>
<path d="M163.17 37.0161L164.249 36.5366C164.249 36.5366 163.836 37.5156 163.17 37.0161Z" fill="#263238"/>
<path d="M161.838 38.8411C162.414 39.9276 163.126 40.9368 163.956 41.8447C163.729 42.0354 163.462 42.1731 163.175 42.248C162.889 42.3229 162.589 42.333 162.297 42.2776L161.838 38.8411Z" fill="#ED893E"/>
<path d="M159.74 44.4289C160.008 44.4517 160.278 44.4517 160.546 44.4289C160.564 44.4265 160.582 44.4204 160.598 44.4109C160.613 44.4014 160.627 44.3888 160.638 44.3738C160.648 44.3587 160.656 44.3417 160.659 44.3236C160.663 44.3056 160.663 44.287 160.659 44.269C160.653 44.2308 160.632 44.1964 160.601 44.1729C160.57 44.1494 160.531 44.1385 160.493 44.1425C159.89 44.2155 159.278 44.1536 158.702 43.9613C158.127 43.7689 157.601 43.4509 157.163 43.0303C157.15 43.017 157.134 43.0064 157.117 42.9992C157.1 42.992 157.081 42.9883 157.063 42.9883C157.044 42.9883 157.026 42.992 157.009 42.9992C156.991 43.0064 156.976 43.017 156.963 43.0303C156.938 43.0574 156.924 43.0931 156.924 43.1302C156.924 43.1672 156.938 43.2029 156.963 43.2301C157.712 43.9542 158.699 44.3804 159.74 44.4289Z" fill="#263238"/>
<path d="M146.58 43.1369C146.901 43.5948 147.313 43.9811 147.792 44.2711C148.27 44.5612 148.803 44.7487 149.357 44.8219C150.742 44.9351 151.042 43.3234 150.336 41.8915C149.703 40.6061 148.218 38.9877 147.006 39.5471C145.794 40.1066 145.681 41.9581 146.58 43.1369Z" fill="#FFB573"/>
<path d="M155.211 34.8784C155.248 34.8784 155.285 34.8701 155.319 34.8539C155.352 34.8378 155.381 34.8143 155.404 34.7852C155.619 34.5109 155.897 34.2937 156.216 34.1531C156.534 34.0125 156.882 33.9528 157.229 33.9793C157.265 33.9849 157.302 33.9831 157.337 33.9739C157.373 33.9647 157.406 33.9484 157.434 33.9259C157.463 33.9034 157.487 33.8753 157.504 33.8432C157.522 33.8112 157.532 33.7759 157.536 33.7396C157.539 33.6631 157.514 33.5881 157.466 33.5282C157.419 33.4683 157.351 33.4275 157.276 33.4132C156.838 33.3744 156.397 33.4447 155.992 33.6179C155.588 33.791 155.233 34.0617 154.958 34.4056C154.926 34.451 154.907 34.5045 154.904 34.5601C154.9 34.6157 154.912 34.6712 154.938 34.7203C154.965 34.7694 155.004 34.8102 155.052 34.8381C155.101 34.8661 155.156 34.88 155.211 34.8784Z" fill="#263238"/>
<path d="M164.009 34.6319C164.045 34.6359 164.081 34.6326 164.115 34.6223C164.15 34.612 164.181 34.5949 164.209 34.572C164.236 34.5459 164.257 34.5148 164.271 34.4805C164.286 34.4462 164.293 34.4094 164.293 34.3722C164.293 34.335 164.286 34.2981 164.271 34.2638C164.257 34.2295 164.236 34.1984 164.209 34.1724C163.921 33.811 163.554 33.5208 163.136 33.3244C162.718 33.1281 162.26 33.0308 161.798 33.0402C161.761 33.0431 161.725 33.0539 161.693 33.0718C161.661 33.0897 161.633 33.1143 161.611 33.1439C161.589 33.1736 161.573 33.2075 161.565 33.2436C161.557 33.2797 161.557 33.3171 161.565 33.3532C161.576 33.4285 161.616 33.4968 161.675 33.5448C161.734 33.5928 161.809 33.6171 161.885 33.6129C162.251 33.609 162.613 33.6892 162.943 33.8474C163.273 34.0056 163.563 34.2376 163.789 34.5253C163.816 34.5582 163.849 34.5848 163.887 34.6032C163.925 34.6217 163.967 34.6315 164.009 34.6319Z" fill="#263238"/>
<path d="M158.887 41.5652C157.482 41.5652 156.263 40.0733 156.13 38.1619C156.05 37.2616 156.257 36.359 156.723 35.5845C156.907 35.2562 157.167 34.9766 157.481 34.7692C157.795 34.5618 158.154 34.4326 158.528 34.3923C160 34.2924 161.292 35.8176 161.432 37.7956C161.571 39.7736 160.486 41.4586 159.027 41.5585L158.887 41.5652ZM158.668 34.6321H158.548C158.205 34.6714 157.877 34.7915 157.59 34.9826C157.302 35.1736 157.065 35.4301 156.896 35.731C156.454 36.4677 156.258 37.3262 156.337 38.1819C156.463 40.04 157.669 41.4719 159.001 41.3853C160.333 41.2988 161.338 39.7004 161.212 37.8422C161.085 35.9841 159.966 34.6321 158.668 34.6321Z" fill="white"/>
<path d="M165.115 41.2055C163.709 41.2055 162.484 39.7203 162.351 37.8089C162.273 36.9088 162.481 36.0072 162.943 35.2314C163.129 34.903 163.39 34.6235 163.705 34.4161C164.02 34.2088 164.38 34.0796 164.755 34.0393C166.214 33.9394 167.519 35.4645 167.652 37.4359C167.73 38.3359 167.522 39.2376 167.059 40.0133C166.875 40.3425 166.614 40.6226 166.299 40.83C165.984 41.0375 165.623 41.1662 165.248 41.2055H165.115ZM164.895 34.2458H164.768C164.426 34.2851 164.097 34.4052 163.81 34.5962C163.523 34.7873 163.285 35.0438 163.117 35.3447C162.68 36.0838 162.485 36.9403 162.557 37.7955C162.684 39.5937 163.816 40.999 165.115 40.999H165.235C165.578 40.9613 165.907 40.8418 166.194 40.6506C166.482 40.4594 166.719 40.202 166.886 39.9001C167.325 39.1644 167.521 38.3092 167.446 37.4559C167.319 35.651 166.187 34.2458 164.895 34.2458Z" fill="white"/>
<path d="M162.504 38.0821C162.486 38.0811 162.469 38.0758 162.454 38.0665C162.439 38.0571 162.426 38.0442 162.417 38.0288C162.164 37.6292 161.425 38.0621 161.418 38.0621C161.407 38.0694 161.394 38.0742 161.381 38.0765C161.368 38.0787 161.354 38.0783 161.341 38.0752C161.328 38.0721 161.316 38.0664 161.305 38.0584C161.294 38.0504 161.285 38.0404 161.279 38.0288C161.262 38.0094 161.252 37.9846 161.252 37.9589C161.252 37.9332 161.262 37.9084 161.279 37.889C161.318 37.889 162.198 37.3428 162.557 37.889C162.566 37.8999 162.571 37.9126 162.574 37.926C162.577 37.9395 162.577 37.9534 162.574 37.9667C162.57 37.9801 162.564 37.9926 162.556 38.0033C162.547 38.0141 162.536 38.0228 162.524 38.0288C162.524 38.0386 162.523 38.0483 162.519 38.0575C162.516 38.0666 162.511 38.075 162.504 38.0821Z" fill="white"/>
<path d="M157.343 37.6491L158.415 37.1763C158.415 37.1763 158.009 38.1553 157.343 37.6491Z" fill="#263238"/>
</svg>
