<svg width="349" height="260" viewBox="0 0 349 260" fill="none" xmlns="http://www.w3.org/2000/svg">
<path d="M145.394 48.7062C119.651 49.0267 98.4852 35.8312 76.8109 56.1748C60.139 71.8296 57.0526 95.5312 65.5314 115.84C85.868 164.525 159.202 181.197 205.818 163.912C259.401 143.986 298.186 85.3176 266.696 43.1257C256.858 29.8884 229.68 17.6474 213.684 18.0446C184.938 18.6925 173.84 48.3439 145.394 48.7062Z" fill="#112D8E"/>
<path opacity="0.9" d="M145.394 48.7062C119.651 49.0267 98.4852 35.8312 76.8109 56.1748C60.139 71.8296 57.0526 95.5312 65.5314 115.84C85.868 164.525 159.202 181.197 205.818 163.912C259.401 143.986 298.186 85.3176 266.696 43.1257C256.858 29.8884 229.68 17.6474 213.684 18.0446C184.938 18.6925 173.84 48.3439 145.394 48.7062Z" fill="white"/>
<path d="M174.174 259.561C248.778 259.561 309.257 256.03 309.257 251.675C309.257 247.319 248.778 243.788 174.174 243.788C99.5701 243.788 39.0916 247.319 39.0916 251.675C39.0916 256.03 99.5701 259.561 174.174 259.561Z" fill="white"/>
<path d="M151.88 99.4605L151.42 100.157C151.281 100.359 151.135 100.54 150.995 100.728C150.71 101.105 150.41 101.425 150.11 101.808C149.504 102.505 148.891 103.202 148.236 103.815C146.927 105.073 145.53 106.237 144.056 107.298C142.584 108.359 141.036 109.309 139.423 110.141C138.608 110.538 137.8 110.949 136.957 111.283L135.696 111.785L135.34 111.917C135.145 111.98 134.964 112.05 134.748 112.099C134.327 112.204 133.893 112.253 133.459 112.245C132.632 112.239 131.817 112.036 131.084 111.653C130.494 111.345 129.952 110.953 129.474 110.489C128.718 109.743 128.064 108.9 127.53 107.981C126.618 106.391 125.873 104.709 125.308 102.965C124.212 99.6762 123.428 96.2915 122.967 92.8558L125.879 92.2148C126.409 93.7406 126.952 95.3151 127.551 96.8339C128.15 98.3527 128.75 99.8646 129.446 101.3C130.081 102.685 130.836 104.012 131.704 105.264C132.048 105.783 132.463 106.252 132.937 106.657C133.073 106.769 133.226 106.858 133.39 106.922C133.487 106.922 133.48 106.922 133.431 106.922H133.383L133.613 106.811L134.651 106.309C135.347 105.975 136.009 105.612 136.678 105.208C137.997 104.418 139.272 103.555 140.496 102.624C141.704 101.674 142.851 100.651 143.931 99.558C144.474 99.0285 144.99 98.4642 145.484 97.8929C145.728 97.6073 145.972 97.3216 146.181 97.036L146.515 96.611L146.787 96.2487L151.88 99.4605Z" fill="#B97964"/>
<path d="M143.443 99.1611L146.975 107.633L144.418 109.228L140.447 101.544L143.443 99.1611Z" fill="#263238"/>
<path d="M153.441 92.027C147.679 91.9503 141.827 99.2448 141.68 99.4259L146.237 110.141C146.237 110.141 156.374 101.913 156.882 98.6944C157.412 95.3433 157.091 92.0757 153.441 92.027Z" fill="#112D8E"/>
<path opacity="0.3" d="M153.441 92.027C147.679 91.9503 141.827 99.2448 141.68 99.4259L146.237 110.141C146.237 110.141 156.374 101.913 156.882 98.6944C157.412 95.3433 157.091 92.0757 153.441 92.027Z" fill="black"/>
<path d="M125.406 91.1071L121.42 88.0068L120.612 94.1099C120.612 94.1099 124.486 95.6287 126.548 94.3119L126.492 93.1972C126.472 92.7913 126.364 92.3946 126.176 92.034C125.989 91.6734 125.726 91.3573 125.406 91.1071Z" fill="#B97964"/>
<path d="M116.112 87.7002L116.362 92.3332L120.633 94.1098L121.441 88.0067L116.112 87.7002Z" fill="#B97964"/>
<path d="M203.436 90.6126L209.594 89.0729L205.289 84.6768C205.289 84.6768 201.297 86.307 202.272 89.7905L203.436 90.6126Z" fill="#B97964"/>
<path d="M212.653 87.9791L212.144 83.144L205.254 84.6768L209.56 89.0729L212.653 87.9791Z" fill="#B97964"/>
<path d="M183.35 245.565L177.616 246.116L172.83 232.586L178.564 232.028L183.35 245.565Z" fill="#B97964"/>
<path d="M244.729 217.119L240.507 221.215L229.652 212.744L233.881 208.647L244.729 217.119Z" fill="#B97964"/>
<path d="M239.288 220.421L242.534 214.659C242.589 214.56 242.678 214.485 242.784 214.446C242.89 214.408 243.007 214.409 243.112 214.45L248.045 216.359C248.167 216.412 248.277 216.49 248.366 216.589C248.456 216.687 248.524 216.803 248.566 216.929C248.608 217.055 248.623 217.189 248.61 217.321C248.597 217.453 248.557 217.581 248.491 217.697C247.328 219.69 246.666 220.588 245.237 223.124C244.36 224.685 242.646 228.259 241.433 230.412C240.221 232.565 238.027 231.478 238.34 230.474C239.734 225.967 239.497 223.452 239.12 221.459C239.051 221.104 239.111 220.736 239.288 220.421Z" fill="#263238"/>
<path d="M176.474 244.36H183.44C183.566 244.363 183.687 244.405 183.786 244.482C183.885 244.558 183.957 244.664 183.991 244.785L185.51 250.31C185.548 250.44 185.555 250.578 185.53 250.712C185.505 250.846 185.449 250.972 185.366 251.08C185.284 251.188 185.176 251.275 185.054 251.333C184.931 251.392 184.796 251.421 184.66 251.417C182.214 251.376 181.023 251.229 177.951 251.229C176.062 251.229 169.911 251.431 167.298 251.431C164.685 251.431 164.212 248.847 165.271 248.645C170.008 247.593 174.007 246.15 175.463 244.771C175.733 244.506 176.096 244.359 176.474 244.36Z" fill="#263238"/>
<path d="M172.837 232.586L175.296 239.567H181.232L178.57 232.028L172.837 232.586Z" fill="#A76755"/>
<path d="M233.888 208.647L229.659 212.751L235.254 217.112L239.483 213.015L233.888 208.647Z" fill="#A76755"/>
<path d="M147.832 93.8869C147.832 93.8869 145.464 95.6914 161.425 126.841L184.179 119.491C180.807 110.357 178.954 104.651 177.212 84.2168C173.837 84.5902 170.493 85.2072 167.207 86.063C163.694 86.9473 160.242 88.0621 156.875 89.4002C152.528 91.2674 147.832 93.8869 147.832 93.8869Z" fill="#112D8E"/>
<path opacity="0.3" d="M147.832 93.8869C147.832 93.8869 145.464 95.6914 161.425 126.841L184.179 119.491C180.807 110.357 178.954 104.651 177.212 84.2168C173.837 84.5902 170.493 85.2072 167.207 86.063C163.694 86.9473 160.242 88.0621 156.875 89.4002C152.528 91.2674 147.832 93.8869 147.832 93.8869Z" fill="black"/>
<path d="M162.393 74.7559C162.811 78.2951 164.128 84.5932 167.173 86.0633C167.173 86.0633 167.347 89.7279 161.174 91.7204C154.381 93.915 156.841 89.4004 156.841 89.4004C160.261 87.3103 159.272 84.5932 157.795 82.2245L162.393 74.7559Z" fill="#B97964"/>
<path d="M150.974 92.2011C152.653 91.3303 154.792 90.2713 156.841 89.4143C160.212 88.0516 163.676 86.9317 167.207 86.0632C169.193 85.5198 171.199 85.1157 172.892 84.8301C173.053 85.3038 172.572 86.53 171.395 88.223C167.667 91.3163 159.718 95.3363 153.859 95.19C151.295 94.2355 150.654 93.2253 150.974 92.2011Z" fill="#B97964"/>
<path d="M171.388 88.2231C168.857 91.6156 165.832 94.6098 162.414 97.106C159.504 96.7517 156.636 96.1099 153.852 95.1901C159.683 95.3364 167.632 91.3165 171.388 88.2231Z" fill="#263238"/>
<path d="M160.519 77.8003L157.795 82.2104C158.151 82.7601 158.456 83.3407 158.708 83.9452C160.059 83.2833 161.78 81.3256 161.453 79.765C161.258 79.0607 160.943 78.3958 160.519 77.8003Z" fill="#A76755"/>
<path d="M163.773 68.2208C164.121 74.0521 164.4 76.5115 161.836 79.8417C157.983 84.844 150.744 84.0219 148.654 78.3925C146.78 73.3415 146.522 64.6537 151.908 61.6718C153.091 61.0069 154.425 60.6551 155.782 60.65C157.139 60.6448 158.476 60.9864 159.664 61.6423C160.852 62.2982 161.853 63.2468 162.572 64.398C163.292 65.5493 163.705 66.8651 163.773 68.2208Z" fill="#B97964"/>
<path d="M175.29 57.77C176.607 51.977 172.979 46.213 167.186 44.8957C161.393 43.5785 155.629 47.2069 154.312 53C152.994 58.7931 156.623 64.5571 162.416 65.8743C168.209 67.1915 173.973 63.5631 175.29 57.77Z" fill="#263238"/>
<path d="M162.115 60.0554C164.33 61.5184 165.431 63.7618 164.574 65.0646C163.717 66.3675 161.223 66.2421 159 64.779C156.778 63.3159 155.684 61.0726 156.541 59.7697C157.398 58.4669 159.892 58.5923 162.115 60.0554Z" fill="#112D8E"/>
<path opacity="0.6" d="M162.115 60.0554C164.33 61.5184 165.431 63.7618 164.574 65.0646C163.717 66.3675 161.223 66.2421 159 64.779C156.778 63.3159 155.684 61.0726 156.541 59.7697C157.398 58.4669 159.892 58.5923 162.115 60.0554Z" fill="#EDEDED"/>
<path d="M160.937 72.1989C161.515 70.8613 159.502 66.8901 159.934 65.4061C158.777 64.3262 147.052 68.1441 147.999 65.3574C148.905 62.682 151.762 59.1358 158.283 60.6198C165.25 62.2083 165.856 68.2347 165.076 70.1576C164.295 72.0805 163.187 74.08 163.187 74.08L160.937 72.1989Z" fill="#263238"/>
<path d="M165.305 73.3346C165.32 74.4631 164.889 75.5519 164.107 76.3653C163.055 77.4312 161.787 76.6648 161.46 75.2854C161.16 74.0453 161.355 71.99 162.707 71.4466C163.005 71.3305 163.327 71.2912 163.644 71.3321C163.961 71.3731 164.263 71.493 164.522 71.681C164.78 71.8689 164.988 72.1188 165.125 72.4078C165.262 72.6967 165.324 73.0154 165.305 73.3346Z" fill="#B97964"/>
<path d="M161.425 126.841C161.425 126.841 150.877 178.285 156.757 195.25C162.874 212.897 172.83 237.532 172.83 237.532L182.131 237.003C182.131 237.003 174.467 205.874 172.579 191.815C169.994 172.433 181.065 120.529 181.065 120.529L161.425 126.841Z" fill="#112D8E"/>
<path opacity="0.6" d="M161.425 126.841C161.425 126.841 150.877 178.285 156.757 195.25C162.874 212.897 172.83 237.532 172.83 237.532L182.131 237.003C182.131 237.003 174.467 205.874 172.579 191.815C169.994 172.433 181.065 120.529 181.065 120.529L161.425 126.841Z" fill="#EDEDED"/>
<path d="M182.862 237.225L172.098 237.846L170.37 233.61L182.242 232.376L182.862 237.225Z" fill="#112D8E"/>
<path opacity="0.2" d="M182.862 237.225L172.098 237.846L170.37 233.61L182.242 232.376L182.862 237.225Z" fill="black"/>
<path d="M172.579 130.798C170.963 136.776 172.314 145.735 175.366 152.019C176.111 147.142 176.905 142.419 177.658 138.19C176.09 135.159 174.363 132.47 172.579 130.798Z" fill="#112D8E"/>
<path opacity="0.4" d="M172.579 130.798C170.963 136.776 172.314 145.735 175.366 152.019C176.111 147.142 176.905 142.419 177.658 138.19C176.09 135.159 174.363 132.47 172.579 130.798Z" fill="#EDEDED"/>
<path d="M167.43 124.897C167.43 124.897 183.092 162.331 193.466 182.883C201.826 199.506 232.85 216.903 232.85 216.903L238.424 210.995C238.424 210.995 215.238 190.408 209.455 179.135C190.951 143.053 194.755 127.294 184.193 119.491L167.43 124.897Z" fill="#112D8E"/>
<path opacity="0.6" d="M167.43 124.897C167.43 124.897 183.092 162.331 193.466 182.883C201.826 199.506 232.85 216.903 232.85 216.903L238.424 210.995C238.424 210.995 215.238 190.408 209.455 179.135C190.951 143.053 194.755 127.294 184.193 119.491L167.43 124.897Z" fill="#EDEDED"/>
<path d="M239.462 210.152L231.798 218.296L226.949 215.746L235.776 206.745L239.462 210.152Z" fill="#112D8E"/>
<path opacity="0.2" d="M239.462 210.152L231.798 218.296L226.949 215.746L235.776 206.745L239.462 210.152Z" fill="black"/>
<path d="M184.088 118.048L185.767 119.755C185.9 119.888 185.767 120.111 185.503 120.194L161.641 127.858C161.432 127.927 161.23 127.858 161.174 127.753L160.317 125.789C160.254 125.649 160.394 125.475 160.617 125.398L183.656 117.965C183.73 117.94 183.808 117.935 183.883 117.95C183.959 117.964 184.03 117.998 184.088 118.048Z" fill="#263238"/>
<path d="M181.838 121.623L182.451 121.428C182.577 121.386 182.646 121.288 182.618 121.219L181.476 118.662C181.476 118.592 181.309 118.564 181.19 118.599L180.57 118.801C180.452 118.801 180.375 118.933 180.41 119.01L181.552 121.56C181.573 121.637 181.699 121.664 181.838 121.623Z" fill="#112D8E"/>
<path opacity="0.6" d="M181.838 121.623L182.451 121.428C182.577 121.386 182.646 121.288 182.618 121.219L181.476 118.662C181.476 118.592 181.309 118.564 181.19 118.599L180.57 118.801C180.452 118.801 180.375 118.933 180.41 119.01L181.552 121.56C181.573 121.637 181.699 121.664 181.838 121.623Z" fill="#EDEDED"/>
<path d="M163.445 127.558L164.065 127.356C164.184 127.314 164.26 127.224 164.226 127.147L163.083 124.597C163.048 124.521 162.923 124.493 162.797 124.535L162.177 124.73C162.059 124.771 161.982 124.862 162.017 124.939L163.16 127.489C163.194 127.565 163.32 127.593 163.445 127.558Z" fill="#112D8E"/>
<path opacity="0.6" d="M163.445 127.558L164.065 127.356C164.184 127.314 164.26 127.224 164.226 127.147L163.083 124.597C163.048 124.521 162.923 124.493 162.797 124.535L162.177 124.73C162.059 124.771 161.982 124.862 162.017 124.939L163.16 127.489C163.194 127.565 163.32 127.593 163.445 127.558Z" fill="#EDEDED"/>
<path d="M172.635 124.59L173.248 124.388C173.373 124.388 173.45 124.256 173.415 124.179L172.272 121.629C172.238 121.553 172.105 121.525 171.987 121.567L171.367 121.769C171.248 121.804 171.172 121.901 171.206 121.971L172.349 124.528C172.383 124.568 172.43 124.595 172.481 124.607C172.533 124.618 172.587 124.612 172.635 124.59Z" fill="#112D8E"/>
<path opacity="0.6" d="M172.635 124.59L173.248 124.388C173.373 124.388 173.45 124.256 173.415 124.179L172.272 121.629C172.238 121.553 172.105 121.525 171.987 121.567L171.367 121.769C171.248 121.804 171.172 121.901 171.206 121.971L172.349 124.528C172.383 124.568 172.43 124.595 172.481 124.607C172.533 124.618 172.587 124.612 172.635 124.59Z" fill="#EDEDED"/>
<path d="M155.189 70.9098C155.245 71.3766 155.043 71.7946 154.737 71.8294C154.43 71.8643 154.13 71.5159 154.075 71.0422C154.019 70.5684 154.221 70.1574 154.528 70.1225C154.834 70.0877 155.134 70.436 155.189 70.9098Z" fill="#263238"/>
<path d="M149.86 71.5579C149.922 72.0316 149.713 72.4427 149.407 72.4775C149.1 72.5124 148.801 72.164 148.745 71.6972C148.689 71.2304 148.891 70.8124 149.198 70.7706C149.504 70.7288 149.79 71.0632 149.86 71.5579Z" fill="#263238"/>
<path d="M149.337 70.7848L148.167 70.5967C148.167 70.5967 148.856 71.4118 149.337 70.7848Z" fill="#263238"/>
<path d="M151.371 72.1987C151.08 73.3241 150.637 74.4046 150.055 75.4105C150.317 75.5504 150.606 75.6328 150.903 75.652C151.2 75.6712 151.497 75.6269 151.776 75.522L151.371 72.1987Z" fill="#A24E3F"/>
<path d="M153.643 77.1733C153.609 77.1737 153.577 77.1619 153.551 77.1402C153.525 77.1184 153.509 77.0881 153.503 77.0549C153.501 77.0175 153.513 76.9805 153.536 76.951C153.559 76.9214 153.592 76.9014 153.629 76.8947C154.216 76.8362 154.781 76.6405 155.278 76.3234C155.776 76.0063 156.192 75.5767 156.492 75.0693C156.5 75.0522 156.511 75.0367 156.524 75.0238C156.538 75.011 156.554 75.001 156.572 74.9945C156.589 74.988 156.608 74.9851 156.626 74.986C156.645 74.9869 156.664 74.9915 156.68 74.9996C156.697 75.0078 156.712 75.0191 156.724 75.033C156.736 75.0469 156.745 75.0631 156.751 75.0806C156.757 75.0981 156.759 75.1166 156.758 75.135C156.756 75.1534 156.751 75.1713 156.743 75.1877C156.427 75.7413 155.982 76.2106 155.446 76.5562C154.91 76.9017 154.299 77.1134 153.664 77.1733H153.643Z" fill="#263238"/>
<path d="M155.851 69.2378C155.785 69.237 155.72 69.2123 155.67 69.1681C155.413 68.9298 155.102 68.7567 154.764 68.6634C154.425 68.57 154.07 68.5592 153.726 68.6316C153.691 68.6422 153.653 68.6455 153.616 68.6414C153.579 68.6373 153.544 68.6258 153.511 68.6076C153.479 68.5894 153.45 68.5649 153.427 68.5355C153.404 68.5061 153.388 68.4725 153.378 68.4365C153.368 68.4013 153.364 68.3643 153.368 68.3278C153.373 68.2913 153.384 68.256 153.402 68.2241C153.421 68.1922 153.445 68.1643 153.475 68.1422C153.504 68.12 153.537 68.104 153.573 68.0952C154.005 68.0003 154.453 68.0096 154.881 68.1222C155.309 68.2349 155.703 68.4477 156.032 68.7431C156.059 68.769 156.08 68.7999 156.094 68.834C156.108 68.8681 156.116 68.9047 156.116 68.9417C156.116 68.9786 156.108 69.0152 156.094 69.0493C156.08 69.0834 156.059 69.1143 156.032 69.1402C155.986 69.1941 155.922 69.2289 155.851 69.2378Z" fill="#263238"/>
<path d="M147.108 69.398C147.066 69.4078 147.023 69.4078 146.982 69.398C146.918 69.3625 146.87 69.3037 146.848 69.2336C146.826 69.1635 146.831 69.0877 146.864 69.0218C147.054 68.6234 147.337 68.276 147.688 68.0083C148.04 67.7406 148.45 67.5603 148.884 67.4821C148.957 67.4742 149.03 67.4954 149.088 67.5411C149.145 67.5867 149.182 67.6531 149.191 67.7259C149.196 67.7626 149.193 67.7998 149.183 67.8355C149.174 67.8712 149.157 67.9046 149.134 67.9337C149.112 67.9629 149.084 67.9873 149.051 68.0054C149.019 68.0236 148.984 68.0351 148.947 68.0394C148.603 68.1035 148.279 68.2488 148.003 68.4634C147.727 68.6779 147.506 68.9553 147.358 69.2726C147.331 69.3138 147.294 69.3471 147.25 69.3691C147.206 69.3912 147.157 69.4011 147.108 69.398Z" fill="#263238"/>
<path d="M181.838 89.6581L182.103 89.9925L182.43 90.3896C182.653 90.6544 182.883 90.9261 183.127 91.1908C183.608 91.7273 184.109 92.2568 184.646 92.7584C185.696 93.7883 186.806 94.7561 187.969 95.6566C189.15 96.5513 190.375 97.3861 191.64 98.1578C192.274 98.541 192.922 98.9033 193.577 99.2586L194.574 99.7672L195.054 100.011C195.173 100.067 195.291 100.122 195.403 100.164C195.758 100.312 196.139 100.391 196.524 100.394C196.878 100.374 197.218 100.248 197.5 100.032C198.433 99.258 199.171 98.2745 199.652 97.1615C200.299 95.8194 200.819 94.42 201.206 92.9813C201.637 91.5141 201.993 90.0259 202.272 88.5225L205.247 88.7106C205.34 92.1403 204.85 95.5609 203.798 98.8266C203.5 99.7169 203.115 100.576 202.648 101.39C202.131 102.319 201.462 103.155 200.67 103.864C199.726 104.702 198.573 105.268 197.332 105.501C196.127 105.711 194.888 105.625 193.724 105.25C193.452 105.174 193.201 105.076 192.943 104.978L192.337 104.728L191.153 104.233C190.366 103.878 189.592 103.536 188.833 103.104C187.309 102.3 185.84 101.395 184.437 100.394C183.031 99.381 181.693 98.2779 180.431 97.0918C179.804 96.4927 179.197 95.8587 178.605 95.2038C178.313 94.8694 178.02 94.5071 177.741 94.1866L177.316 93.6362C177.17 93.4411 177.059 93.2879 176.864 93.0092L181.838 89.6581Z" fill="#B97964"/>
<path d="M186.778 93.3295L182.416 100.652L180.292 98.6453L184.318 91.3091L186.778 93.3295Z" fill="#263238"/>
<path d="M177.24 84.217C179.748 84.1752 185.837 91.3651 185.837 91.3651L180.542 100.582C180.542 100.582 173.798 94.6396 173.805 91.386C173.812 87.9931 174.383 84.3006 177.24 84.217Z" fill="#112D8E"/>
<path opacity="0.3" d="M177.24 84.217C179.748 84.1752 185.837 91.3651 185.837 91.3651L180.542 100.582C180.542 100.582 173.798 94.6396 173.805 91.386C173.812 87.9931 174.383 84.3006 177.24 84.217Z" fill="black"/>
<path d="M238.145 223.549C237.951 223.542 237.765 223.471 237.616 223.347C237.546 223.301 237.49 223.236 237.454 223.159C237.419 223.083 237.405 222.999 237.414 222.915C237.476 222.163 239.364 221.173 239.573 221.062C239.596 221.047 239.623 221.039 239.65 221.039C239.677 221.039 239.704 221.047 239.727 221.062C239.748 221.079 239.763 221.102 239.772 221.128C239.78 221.154 239.782 221.182 239.775 221.208C239.559 221.961 239.079 223.257 238.382 223.487C238.307 223.521 238.227 223.542 238.145 223.549ZM239.406 221.459C238.668 221.877 237.727 222.532 237.692 222.922C237.687 222.96 237.693 222.998 237.711 223.032C237.728 223.066 237.756 223.093 237.79 223.11C237.855 223.174 237.936 223.218 238.024 223.239C238.113 223.26 238.205 223.256 238.291 223.229C238.675 223.117 239.079 222.462 239.406 221.473V221.459Z" fill="#112D8E"/>
<path d="M237.887 221.724C237.581 221.75 237.275 221.674 237.017 221.508C236.933 221.436 236.876 221.337 236.856 221.228C236.835 221.119 236.853 221.007 236.905 220.909C236.943 220.808 237.003 220.717 237.081 220.643C237.16 220.57 237.255 220.515 237.358 220.484C238.166 220.212 239.643 221.027 239.706 221.062C239.728 221.075 239.747 221.093 239.761 221.115C239.774 221.137 239.782 221.162 239.782 221.188C239.781 221.212 239.774 221.235 239.762 221.256C239.75 221.276 239.733 221.294 239.713 221.306C239.144 221.582 238.52 221.725 237.887 221.724ZM237.741 220.707C237.642 220.706 237.543 220.72 237.448 220.749C237.384 220.769 237.325 220.803 237.276 220.849C237.226 220.895 237.188 220.951 237.163 221.014C237.093 221.181 237.163 221.25 237.163 221.299C237.476 221.564 238.633 221.452 239.295 221.181C238.812 220.924 238.285 220.764 237.741 220.707Z" fill="#112D8E"/>
<path d="M173.38 245.516C172.893 245.557 172.405 245.442 171.987 245.189C171.877 245.108 171.788 245.003 171.726 244.882C171.665 244.762 171.632 244.628 171.631 244.492C171.623 244.418 171.635 244.344 171.666 244.276C171.696 244.209 171.745 244.151 171.806 244.109C172.44 243.677 174.822 244.764 175.289 244.98C175.316 244.993 175.338 245.014 175.351 245.04C175.365 245.067 175.37 245.097 175.366 245.126C175.363 245.154 175.352 245.181 175.333 245.203C175.314 245.224 175.289 245.239 175.261 245.244C174.645 245.398 174.015 245.489 173.38 245.516ZM172.265 244.311C172.171 244.302 172.077 244.322 171.994 244.367C171.973 244.381 171.956 244.401 171.946 244.425C171.936 244.448 171.934 244.474 171.938 244.499C171.94 244.59 171.964 244.68 172.006 244.761C172.048 244.841 172.108 244.912 172.182 244.966C172.732 245.384 174.042 245.224 174.808 245.084C174.004 244.7 173.147 244.439 172.265 244.311Z" fill="#112D8E"/>
<path d="M175.261 245.272H175.206C174.418 244.952 172.83 243.677 172.92 243.015C172.92 242.869 173.032 242.688 173.394 242.646C174.788 242.465 175.373 245.008 175.394 245.112C175.4 245.137 175.399 245.163 175.391 245.187C175.384 245.212 175.37 245.234 175.352 245.252C175.325 245.268 175.293 245.275 175.261 245.272ZM173.52 242.911H173.429C173.283 242.911 173.199 242.973 173.192 243.043C173.143 243.419 174.237 244.436 175.045 244.868C174.871 244.269 174.356 242.911 173.52 242.911Z" fill="#112D8E"/>
<path d="M154.667 70.1295L153.496 69.9414C153.496 69.9414 154.186 70.7565 154.667 70.1295Z" fill="#263238"/>
<path d="M111.082 21.4443C109.848 22.991 103.056 24.8094 97.6562 24.3078C95.7961 36.5139 102.296 50.5663 102.296 50.5663C102.296 50.5663 116.404 48.8872 116.753 43.0768C117.101 37.2663 111.082 21.4443 111.082 21.4443Z" fill="#112D8E"/>
<path opacity="0.4" d="M111.082 21.4443C109.848 22.991 103.056 24.8094 97.6562 24.3078C95.7961 36.5139 102.296 50.5663 102.296 50.5663C102.296 50.5663 116.404 48.8872 116.753 43.0768C117.101 37.2663 111.082 21.4443 111.082 21.4443Z" fill="#EDEDED"/>
<path d="M217.878 12.1577C219.139 13.9343 225.542 15.6969 230.495 14.7773C233.15 29.2268 228.231 46.3934 228.231 46.3934C228.231 46.3934 215.084 45.223 214.297 38.3187C213.51 31.4144 217.878 12.1577 217.878 12.1577Z" fill="#112D8E"/>
<path opacity="0.4" d="M217.878 12.1577C219.139 13.9343 225.542 15.6969 230.495 14.7773C233.15 29.2268 228.231 46.3934 228.231 46.3934C228.231 46.3934 215.084 45.223 214.297 38.3187C213.51 31.4144 217.878 12.1577 217.878 12.1577Z" fill="#EDEDED"/>
<path d="M125.405 137.298C125.305 137.313 125.203 137.308 125.105 137.283C125.007 137.258 124.914 137.213 124.833 137.152C124.752 137.092 124.684 137.015 124.633 136.928C124.582 136.84 124.548 136.744 124.535 136.643L107.988 19.2707C107.974 19.167 107.982 19.0617 108.01 18.961C108.038 18.8602 108.086 18.7661 108.151 18.6843C108.216 18.6024 108.296 18.5344 108.388 18.4843C108.48 18.4343 108.581 18.4032 108.685 18.3929C108.785 18.3791 108.888 18.3853 108.986 18.4112C109.084 18.437 109.176 18.4819 109.257 18.5434C109.338 18.6048 109.406 18.6816 109.457 18.7694C109.509 18.8571 109.542 18.9541 109.556 19.0547L126.102 136.42C126.116 136.524 126.108 136.629 126.08 136.73C126.053 136.831 126.005 136.925 125.94 137.007C125.875 137.089 125.794 137.157 125.702 137.207C125.61 137.257 125.51 137.288 125.405 137.298Z" fill="#112D8E"/>
<path opacity="0.2" d="M125.405 137.298C125.305 137.313 125.203 137.308 125.105 137.283C125.007 137.258 124.914 137.213 124.833 137.152C124.752 137.092 124.684 137.015 124.633 136.928C124.582 136.84 124.548 136.744 124.535 136.643L107.988 19.2707C107.974 19.167 107.982 19.0617 108.01 18.961C108.038 18.8602 108.086 18.7661 108.151 18.6843C108.216 18.6024 108.296 18.5344 108.388 18.4843C108.48 18.4343 108.581 18.4032 108.685 18.3929C108.785 18.3791 108.888 18.3853 108.986 18.4112C109.084 18.437 109.176 18.4819 109.257 18.5434C109.338 18.6048 109.406 18.6816 109.457 18.7694C109.509 18.8571 109.542 18.9541 109.556 19.0547L126.102 136.42C126.116 136.524 126.108 136.629 126.08 136.73C126.053 136.831 126.005 136.925 125.94 137.007C125.875 137.089 125.794 137.157 125.702 137.207C125.61 137.257 125.51 137.288 125.405 137.298Z" fill="black"/>
<path d="M204.251 128.576C204.354 128.589 204.46 128.582 204.561 128.554C204.661 128.526 204.755 128.478 204.837 128.413C204.919 128.348 204.987 128.267 205.037 128.176C205.087 128.084 205.118 127.983 205.129 127.879L221.71 10.5134C221.725 10.4127 221.72 10.3101 221.695 10.2115C221.67 10.1128 221.626 10.0201 221.565 9.93853C221.504 9.85698 221.428 9.78824 221.34 9.73624C221.253 9.68425 221.156 9.65002 221.055 9.63552C220.952 9.62194 220.846 9.62933 220.745 9.65724C220.645 9.68515 220.551 9.73302 220.469 9.79801C220.387 9.86299 220.319 9.94376 220.269 10.0355C220.219 10.1273 220.188 10.2282 220.177 10.3322L203.596 127.698C203.568 127.901 203.621 128.107 203.743 128.271C203.866 128.435 204.048 128.545 204.251 128.576Z" fill="#112D8E"/>
<path opacity="0.2" d="M204.251 128.576C204.354 128.589 204.46 128.582 204.561 128.554C204.661 128.526 204.755 128.478 204.837 128.413C204.919 128.348 204.987 128.267 205.037 128.176C205.087 128.084 205.118 127.983 205.129 127.879L221.71 10.5134C221.725 10.4127 221.72 10.3101 221.695 10.2115C221.67 10.1128 221.626 10.0201 221.565 9.93853C221.504 9.85698 221.428 9.78824 221.34 9.73624C221.253 9.68425 221.156 9.65002 221.055 9.63552C220.952 9.62194 220.846 9.62933 220.745 9.65724C220.645 9.68515 220.551 9.73302 220.469 9.79801C220.387 9.86299 220.319 9.94376 220.269 10.0355C220.219 10.1273 220.188 10.2282 220.177 10.3322L203.596 127.698C203.568 127.901 203.621 128.107 203.743 128.271C203.866 128.435 204.048 128.545 204.251 128.576Z" fill="black"/>
<path d="M107.326 21.751L110.461 44.7978C110.481 44.9434 110.531 45.0832 110.609 45.2075C110.688 45.3317 110.792 45.4376 110.915 45.5177C111.038 45.5978 111.177 45.6503 111.323 45.6715C111.468 45.6928 111.616 45.6823 111.757 45.6408C118.766 43.6343 157.739 33.6297 217.606 39.9975C217.861 40.0268 218.117 39.9592 218.323 39.8081C218.53 39.657 218.672 39.4336 218.721 39.1824C219.85 33.3441 221.794 16.7139 222.288 12.4571C222.318 12.1887 222.241 11.9195 222.074 11.7071C221.908 11.4948 221.664 11.3563 221.396 11.3215C213.357 10.3043 158.478 4.22212 108.03 20.6363C107.802 20.7119 107.607 20.8643 107.478 21.0676C107.35 21.2709 107.296 21.5125 107.326 21.751Z" fill="#112D8E"/>
<path opacity="0.6" d="M107.326 21.751L110.461 44.7978C110.481 44.9434 110.531 45.0832 110.609 45.2075C110.688 45.3317 110.792 45.4376 110.915 45.5177C111.038 45.5978 111.177 45.6503 111.323 45.6715C111.468 45.6928 111.616 45.6823 111.757 45.6408C118.766 43.6343 157.739 33.6297 217.606 39.9975C217.861 40.0268 218.117 39.9592 218.323 39.8081C218.53 39.657 218.672 39.4336 218.721 39.1824C219.85 33.3441 221.794 16.7139 222.288 12.4571C222.318 12.1887 222.241 11.9195 222.074 11.7071C221.908 11.4948 221.664 11.3563 221.396 11.3215C213.357 10.3043 158.478 4.22212 108.03 20.6363C107.802 20.7119 107.607 20.8643 107.478 21.0676C107.35 21.2709 107.296 21.5125 107.326 21.751Z" fill="#EDEDED"/>
<path d="M117.38 25.7779L120.682 25.0812L123.016 31.1494L123.608 24.489L126.903 23.7923L129.795 29.7421L129.837 23.2001L133.125 22.5034L132.693 34.2776L129.286 34.9743L126.019 28.2721L125.322 35.7685L121.915 36.4652L117.38 25.7779Z" fill="#EDEDED"/>
<path d="M134.741 22.3783L144.14 20.9849L144.446 23.4094L138.566 24.2733L138.796 26.0847L144.251 25.2835L144.544 27.6035L139.089 28.4047L139.339 30.655L145.394 29.7702L145.721 32.348L136.149 33.7414L134.741 22.3783Z" fill="#EDEDED"/>
<path d="M146.53 20.7128L150.055 20.3296L150.807 28.9477L156.304 28.3555L156.555 31.1423L147.498 32.1177L146.53 20.7128Z" fill="#EDEDED"/>
<path d="M165.159 25.8198L168.301 26.5165C168.171 27.3213 167.874 28.0901 167.43 28.7738C167.023 29.3892 166.467 29.8923 165.814 30.2368C165.032 30.6138 164.181 30.8272 163.313 30.8639C162.277 30.9743 161.23 30.8627 160.24 30.5364C159.384 30.1662 158.657 29.5504 158.15 28.7668C157.483 27.7419 157.123 26.5478 157.112 25.3251C156.929 23.721 157.39 22.1099 158.394 20.8454C158.932 20.2745 159.579 19.8181 160.298 19.5032C161.016 19.1884 161.79 19.0217 162.574 19.013C163.757 18.8585 164.958 19.0777 166.009 19.6401C166.932 20.254 167.628 21.155 167.988 22.2039L164.901 23.1236C164.816 22.8553 164.687 22.6033 164.518 22.3781C164.305 22.125 164.032 21.9288 163.724 21.8068C163.223 21.6023 162.665 21.5855 162.153 21.7596C161.641 21.9337 161.209 22.287 160.937 22.7543C160.599 23.4702 160.471 24.2675 160.568 25.0534C160.628 26.3214 160.86 27.1783 161.265 27.6242C161.475 27.8465 161.735 28.0159 162.023 28.1188C162.311 28.2217 162.619 28.2552 162.923 28.2164C163.208 28.2129 163.49 28.149 163.75 28.029C164.009 27.9089 164.24 27.7353 164.428 27.5197C164.813 27.025 165.065 26.4397 165.159 25.8198Z" fill="#EDEDED"/>
<path d="M169.59 24.4888C169.535 23.6874 169.64 22.8832 169.899 22.1226C170.157 21.3621 170.564 20.6603 171.095 20.0578C171.665 19.4971 172.341 19.0564 173.084 18.762C173.827 18.4676 174.622 18.3255 175.421 18.344C176.215 18.2649 177.016 18.3477 177.776 18.5872C178.537 18.8267 179.241 19.218 179.845 19.7374C180.388 20.3015 180.81 20.9708 181.084 21.7041C181.359 22.4374 181.48 23.2192 181.441 24.0011C181.501 25.1454 181.286 26.2874 180.814 27.3314C180.387 28.2008 179.717 28.9272 178.884 29.4215C177.915 29.9624 176.824 30.2455 175.714 30.2436C174.618 30.3206 173.519 30.1442 172.502 29.728C171.627 29.3259 170.898 28.6642 170.412 27.833C169.841 26.8131 169.557 25.6574 169.59 24.4888ZM173.122 24.3913C173.061 25.2737 173.307 26.1502 173.819 26.8715C174.036 27.1173 174.309 27.3085 174.614 27.4295C174.919 27.5506 175.248 27.5981 175.575 27.5682C175.909 27.5758 176.24 27.5076 176.544 27.3688C176.848 27.2301 177.117 27.0244 177.33 26.767C177.816 25.9569 178.024 25.0101 177.922 24.0708C177.982 23.2297 177.735 22.3954 177.226 21.7229C177.003 21.4781 176.727 21.2878 176.419 21.167C176.111 21.0462 175.779 20.998 175.449 21.0262C175.122 21.0252 174.798 21.098 174.503 21.2391C174.207 21.3802 173.947 21.5861 173.742 21.8414C173.252 22.5937 173.033 23.4908 173.122 24.3843V24.3913Z" fill="#EDEDED"/>
<path d="M183.587 18.3164H188.234L189.836 25.3321L191.808 18.3652L196.455 18.407L196.141 29.9025H193.243L193.48 21.1311L191.014 29.8816H188.394L186.408 21.0893L186.171 29.8607H183.273L183.587 18.3164Z" fill="#EDEDED"/>
<path d="M199.005 18.5186L208.459 18.9435L208.313 21.3959L202.391 21.1312L202.272 22.9913L207.762 23.2352L207.616 25.5413L202.126 25.2974L201.987 27.5686L208.076 27.8334L207.909 30.439L198.28 30.0071L199.005 18.5186Z" fill="#EDEDED"/>
</svg>
