<svg width="281" height="320" viewBox="0 0 281 320" fill="none" xmlns="http://www.w3.org/2000/svg">
<path d="M260.288 65.4363L258.713 62.8439C245.414 40.9381 221.376 27.7234 196.029 29.3307C192.761 29.5257 189.512 29.9589 186.308 30.6269C163.261 35.5589 143.216 52.9863 134.9 75.3068C130.014 88.4308 128.646 103.545 119.346 113.966C107.272 127.524 86.7791 127.952 68.7555 127.388C50.7318 126.824 30.2325 127.304 18.2037 140.92C10.6793 149.443 8.28783 161.569 8.89704 172.982C10.4978 203.216 31.5805 230.241 58.3535 243.676C85.1264 257.112 116.682 258.311 145.996 252.406C187.066 244.124 226.12 221.388 249.601 186.3C273.082 151.212 279.077 103.337 260.288 65.4363Z" fill="#F5F5F5"/>
<path d="M269.537 312.174C269.537 312.271 211.603 312.343 140.15 312.343C68.6971 312.343 10.7506 312.297 10.7506 312.174C10.7506 312.051 68.6712 312.006 140.15 312.006C211.629 312.006 269.537 312.083 269.537 312.174Z" fill="#263238"/>
<path d="M0.387451 120.292C0.387451 120.292 7.03046 147.512 36.7653 141.264C36.7653 141.264 28.152 113.713 0.387451 120.292Z" fill="#455A64"/>
<path d="M14.7559 161.498C14.7559 161.498 28.4048 181.848 50.9587 167.771C50.9587 167.771 35.5793 147.732 14.7559 161.498Z" fill="#455A64"/>
<path d="M36.506 192.548C36.506 192.548 56.4221 209.483 75.4956 188.491C75.4956 188.511 53.8945 172.373 36.506 192.548Z" fill="#455A64"/>
<path d="M57.0896 127.22C57.0896 127.22 35.0024 137.836 45.7219 162.165C47.2968 161.29 67.5564 149.326 57.0896 127.22Z" fill="#455A64"/>
<path d="M61.8856 156.553C61.8856 156.553 50.8679 171.427 67.2843 184.201C68.3083 182.606 77.926 168.419 61.8856 156.553Z" fill="#455A64"/>
<path d="M10.7959 88.9753C10.7959 88.9753 8.26184 111.011 32.0795 114.562C32.0795 114.562 33.2396 91.7103 10.7959 88.9753Z" fill="#455A64"/>
<path d="M44.9572 66.668C44.9572 66.668 25.6892 74.7109 34.0562 97.2906C34.0562 97.2906 53.363 87.6599 44.9572 66.668Z" fill="#455A64"/>
<path d="M56.5841 98.885C56.5841 98.885 31.0749 101.795 33.3174 129.534C33.3174 129.534 59.3709 124.893 56.5841 98.885Z" fill="#455A64"/>
<path d="M92.8906 195.801L92.5665 195.704L91.6074 195.452C90.7713 195.231 89.5205 194.933 87.9521 194.421C83.5041 193.049 79.2034 191.238 75.1132 189.016C69.0561 185.712 63.4639 181.619 58.483 176.845C55.5282 174.019 52.7776 170.987 50.2522 167.771L48.3079 165.179C47.9838 164.751 47.6598 164.317 47.3422 163.883C47.0246 163.448 46.7395 162.975 46.4413 162.522L44.6331 159.748L42.974 156.844L42.1444 155.38L41.4056 153.882C40.9195 152.891 40.4205 151.906 39.9474 150.914L38.6512 147.92C38.4438 147.421 38.2234 146.928 38.0031 146.429C37.7827 145.93 37.6401 145.431 37.4652 144.932L36.4023 141.964C36.1042 140.966 35.8125 139.981 35.5273 139.002C35.3848 138.51 35.2357 138.023 35.0931 137.544C34.9505 137.064 34.8533 136.565 34.7367 136.086C34.5098 135.113 34.283 134.141 34.0886 133.202C32.6527 126.461 32.0347 119.572 32.248 112.683C32.3985 108.03 32.9164 103.397 33.7969 98.8264C34.1404 97.2127 34.445 95.9683 34.6395 95.1258C34.7302 94.7045 34.8015 94.387 34.8533 94.1601C34.9052 93.9333 34.9181 93.8296 34.9181 93.8296C34.9181 93.8296 34.8792 93.9333 34.8209 94.1536C34.7626 94.374 34.6848 94.6916 34.5811 95.1063C34.3737 95.9554 34.0497 97.1932 33.6867 98.8005C31.3532 110.185 31.4106 121.931 33.8553 133.292C34.0756 134.245 34.3024 135.204 34.5034 136.183C34.6265 136.669 34.7172 137.161 34.8598 137.648C35.0024 138.134 35.145 138.62 35.294 139.112C35.5792 140.091 35.8708 141.057 36.169 142.081L37.2318 145.062C37.4068 145.561 37.5883 146.066 37.7698 146.565C37.9512 147.064 38.1846 147.557 38.4179 148.056L39.7141 151.07C40.1807 152.061 40.6797 153.046 41.1723 154.044C41.4186 154.55 41.6648 155.049 41.9176 155.548C42.1704 156.047 42.4685 156.527 42.7472 157.019L44.4128 159.936L46.2275 162.716C46.5321 163.17 46.8172 163.636 47.1283 164.084L48.1005 165.38L50.0448 167.972C52.5779 171.189 55.3372 174.221 58.3015 177.046C63.3097 181.834 68.9353 185.932 75.029 189.23C79.1383 191.441 83.4617 193.228 87.9326 194.564C89.5075 195.063 90.7648 195.335 91.6074 195.542L92.573 195.763L92.8906 195.801Z" fill="#263238"/>
<path d="M64.2706 168.542C64.2428 168.758 64.2428 168.975 64.2706 169.191C64.2706 169.592 64.3613 170.169 64.452 170.876C64.6205 172.301 64.9187 174.259 65.3335 176.397C65.7482 178.536 66.2213 180.468 66.5908 181.848C66.7787 182.541 66.9407 183.099 67.0639 183.481C67.1088 183.684 67.1808 183.88 67.2777 184.064C67.2708 183.845 67.2359 183.627 67.1741 183.416L66.7917 181.77C66.4676 180.377 66.0399 178.452 65.6186 176.313C65.1973 174.174 64.8798 172.23 64.6529 170.817C64.5493 170.169 64.4585 169.599 64.3807 169.145C64.3675 168.941 64.3305 168.738 64.2706 168.542Z" fill="#263238"/>
<path d="M58.8459 190.63C59.0636 190.639 59.2815 190.619 59.494 190.571L61.1921 190.325C62.6179 190.111 64.5946 189.833 66.7787 189.58C68.9628 189.327 70.9524 189.139 72.3912 189.016L74.0957 188.867C74.3147 188.864 74.5324 188.833 74.7438 188.776C74.5285 188.751 74.311 188.751 74.0957 188.776C73.6874 188.776 73.1041 188.776 72.3847 188.834C70.9395 188.906 68.9433 189.061 66.7528 189.314C64.5622 189.567 62.5855 189.884 61.1597 190.15C60.4532 190.28 59.8635 190.396 59.4811 190.487C59.2644 190.509 59.0511 190.556 58.8459 190.63Z" fill="#263238"/>
<path d="M32.0017 163.636C32.2399 163.717 32.485 163.776 32.7341 163.811L34.7496 164.213C36.4541 164.544 38.8067 165.036 41.3797 165.659C43.9527 166.281 46.2664 166.922 47.932 167.402L49.8763 167.972C50.1155 168.059 50.3632 168.119 50.6151 168.154C50.3926 168.034 50.158 167.938 49.9152 167.869C49.455 167.7 48.7875 167.473 47.9709 167.22C46.3182 166.689 44.011 166.015 41.4251 165.393C38.8392 164.771 36.4866 164.304 34.7691 164.019C33.9136 163.876 33.2137 163.773 32.7341 163.714C32.4934 163.662 32.2479 163.636 32.0017 163.636Z" fill="#263238"/>
<path d="M51.4966 142.781C51.3219 142.979 51.1697 143.197 51.0429 143.429C50.7642 143.87 50.3948 144.531 49.9606 145.373C47.7199 149.73 46.3527 154.484 45.9359 159.366C45.8581 160.299 45.8257 161.051 45.8257 161.576C45.8022 161.847 45.8022 162.121 45.8257 162.392C45.8799 162.126 45.9081 161.854 45.9099 161.582C45.9099 161.064 46.0136 160.286 46.1108 159.385C46.6399 154.55 47.9946 149.841 50.1161 145.464C50.5179 144.621 50.8679 143.947 51.1142 143.52C51.2657 143.287 51.3938 143.039 51.4966 142.781Z" fill="#263238"/>
<path d="M21.9108 130.091C22.0904 130.249 22.2859 130.388 22.4941 130.506L24.1337 131.568C25.5077 132.482 27.3742 133.791 29.3185 135.373C31.2628 136.954 32.9414 138.503 34.1145 139.657L35.4949 141.031C35.6537 141.214 35.8319 141.379 36.0264 141.523C35.8978 141.32 35.7479 141.131 35.5792 140.959C35.2811 140.603 34.8339 140.11 34.283 139.514C32.7896 137.961 31.2008 136.502 29.5259 135.146C27.8504 133.79 26.0929 132.539 24.2634 131.4C23.5634 130.959 22.9672 130.622 22.5783 130.408C22.3674 130.28 22.1437 130.173 21.9108 130.091Z" fill="#263238"/>
<path d="M49.7661 109.948C49.7661 109.948 49.6819 110 49.5522 110.11L48.9949 110.609C48.5088 111.05 47.8218 111.704 46.9858 112.521C45.3202 114.161 43.0972 116.5 40.7705 119.216C38.4438 121.931 36.4995 124.504 35.1515 126.416C34.5034 127.369 33.9395 128.147 33.5831 128.698L33.1748 129.346C33.1222 129.414 33.0807 129.491 33.0516 129.572C33.0516 129.572 33.1229 129.514 33.2266 129.378L33.6738 128.775L35.3135 126.546C36.7069 124.673 38.6836 122.126 40.9908 119.417C43.2981 116.708 45.5275 114.349 47.1348 112.676L49.0791 110.732L49.5976 110.194C49.6664 110.122 49.7232 110.038 49.7661 109.948Z" fill="#263238"/>
<path d="M19.0398 96.1499C19.2015 96.3939 19.3837 96.6237 19.5842 96.8369L21.1332 98.6645C22.4294 100.213 24.1727 102.398 25.968 104.899C27.7632 107.401 29.2603 109.766 30.3102 111.497C30.8093 112.326 31.2176 113.02 31.5351 113.551C31.6736 113.809 31.8318 114.056 32.0083 114.29C31.9073 114.015 31.7838 113.748 31.6388 113.493C31.3796 112.988 30.9907 112.268 30.4852 111.393C29.4807 109.63 28.003 107.252 26.2013 104.731C24.3996 102.21 22.6303 100.051 21.2887 98.5284C20.6406 97.7701 20.0638 97.1674 19.6685 96.7591C19.4802 96.5351 19.2696 96.331 19.0398 96.1499Z" fill="#263238"/>
<path d="M42.1056 75.2097C41.9477 75.4672 41.8132 75.7383 41.7038 76.0198C41.464 76.5448 41.127 77.316 40.7187 78.2687C39.9086 80.1806 38.8392 82.8054 37.7439 85.8061C36.6486 88.8068 35.7218 91.4964 35.0932 93.4731C34.7821 94.4583 34.5358 95.2619 34.3738 95.8193C34.2744 96.1037 34.2006 96.3966 34.1534 96.6942C34.2957 96.4179 34.4128 96.1295 34.5034 95.8322C34.7108 95.236 34.983 94.4583 35.3071 93.5185C35.9876 91.5742 36.9338 88.8587 38.0356 85.8904C39.1373 82.9221 40.1484 80.2779 40.9131 78.3336C41.2761 77.4068 41.5612 76.6355 41.8075 76.0458C41.9293 75.7756 42.029 75.496 42.1056 75.2097Z" fill="#263238"/>
<path d="M280.612 116.422C280.612 116.422 273.969 143.643 244.235 137.401C244.235 137.401 252.854 109.844 280.612 116.422Z" fill="#455A64"/>
<path d="M266.244 157.629C266.244 157.629 252.595 177.985 230.041 163.909C230.041 163.883 245.421 143.869 266.244 157.629Z" fill="#455A64"/>
<path d="M244.487 188.679C244.487 188.679 224.578 205.62 205.504 184.622C205.504 184.622 227.105 168.51 244.487 188.679Z" fill="#455A64"/>
<path d="M223.91 123.357C223.91 123.357 245.998 133.973 235.278 158.296C233.71 157.402 213.476 145.464 223.91 123.357Z" fill="#455A64"/>
<path d="M219.114 152.684C219.114 152.684 230.132 167.557 213.716 180.338C212.692 178.744 203.074 164.531 219.114 152.684Z" fill="#455A64"/>
<path d="M270.211 85.1128C270.211 85.1128 272.745 107.148 248.92 110.7C248.92 110.7 247.76 87.8478 270.211 85.1128Z" fill="#455A64"/>
<path d="M236.062 62.7793C236.062 62.7793 255.33 70.8287 246.963 93.4085C246.944 93.4279 227.637 83.7907 236.062 62.7793Z" fill="#455A64"/>
<path d="M224.396 95.0222C224.396 95.0222 249.906 97.9322 247.663 125.697C247.683 125.697 221.629 121.03 224.396 95.0222Z" fill="#455A64"/>
<path d="M188.103 191.932L188.427 191.842L189.38 191.582C190.222 191.362 191.467 191.07 193.035 190.558C197.482 189.183 201.782 187.373 205.874 185.153C211.94 181.841 217.541 177.739 222.53 172.956C225.475 170.141 228.221 167.124 230.748 163.928L232.66 161.336L233.632 160.039C233.943 159.592 234.228 159.132 234.526 158.672C235.129 157.758 235.725 156.831 236.334 155.905L237.994 152.995C238.272 152.509 238.551 152.022 238.823 151.536L239.562 150.039C240.055 149.041 240.554 148.095 241.02 147.071L242.316 144.07C242.524 143.571 242.744 143.085 242.964 142.586C243.185 142.087 243.327 141.582 243.502 141.083L244.565 138.121C244.863 137.123 245.155 136.131 245.44 135.152C245.589 134.666 245.732 134.18 245.874 133.694C246.017 133.208 246.114 132.722 246.231 132.236C246.464 131.264 246.691 130.305 246.911 129.358C248.349 122.603 248.969 115.698 248.758 108.794C248.606 104.14 248.086 99.5041 247.203 94.9314C246.86 93.3241 246.555 92.0798 246.367 91.2308C246.27 90.816 246.199 90.4919 246.147 90.2651C246.095 90.0383 246.088 89.9346 246.088 89.9346L246.179 90.2586L246.419 91.2178C246.626 92.0603 246.95 93.3047 247.32 94.912C248.24 99.4876 248.788 104.13 248.959 108.794C249.187 115.718 248.569 122.643 247.119 129.417L246.471 132.301C246.354 132.787 246.257 133.286 246.114 133.766C245.972 134.245 245.829 134.744 245.68 135.23C245.395 136.215 245.103 137.207 244.805 138.205C244.455 139.19 244.105 140.149 243.742 141.18C243.567 141.685 243.386 142.184 243.204 142.69C243.023 143.195 242.789 143.681 242.556 144.18L241.26 147.194C240.787 148.186 240.288 149.138 239.795 150.169L239.056 151.672L238.22 153.137L236.555 156.054L234.74 158.834C234.442 159.294 234.15 159.761 233.839 160.201L232.867 161.498L230.923 164.09C228.387 167.307 225.626 170.339 222.66 173.163C217.654 177.957 212.028 182.057 205.932 185.354C201.823 187.565 197.5 189.35 193.028 190.682C191.454 191.181 190.196 191.459 189.354 191.66L188.395 191.887C188.298 191.906 188.201 191.922 188.103 191.932Z" fill="#263238"/>
<path d="M216.729 164.68C216.757 164.895 216.757 165.113 216.729 165.328C216.697 165.723 216.639 166.3 216.554 167.013C216.379 168.432 216.088 170.39 215.666 172.535C215.245 174.68 214.785 176.605 214.409 177.985C214.221 178.679 214.059 179.23 213.936 179.612C213.888 179.817 213.817 180.015 213.722 180.202C213.733 179.993 213.77 179.786 213.832 179.586C213.936 179.133 214.059 178.582 214.208 177.934C214.532 176.547 214.967 174.615 215.381 172.477C215.796 170.338 216.127 168.394 216.347 166.981C216.457 166.333 216.548 165.769 216.619 165.315C216.629 165.1 216.666 164.886 216.729 164.68Z" fill="#263238"/>
<path d="M222.16 186.767C221.943 186.776 221.725 186.756 221.512 186.709L219.821 186.463C218.388 186.249 216.418 185.97 214.228 185.711C212.037 185.452 210.054 185.27 208.615 185.147L206.917 184.998C206.698 184.998 206.48 184.967 206.269 184.907C206.484 184.882 206.702 184.882 206.917 184.907C207.319 184.907 207.902 184.907 208.628 184.965C210.067 185.037 212.063 185.186 214.254 185.445C216.444 185.704 218.421 186.015 219.847 186.281C220.553 186.411 221.143 186.527 221.525 186.618C221.742 186.643 221.955 186.693 222.16 186.767Z" fill="#263238"/>
<path d="M249.024 159.767C248.784 159.852 248.537 159.913 248.285 159.949L246.27 160.344C244.565 160.681 242.219 161.174 239.64 161.796C237.06 162.418 234.753 163.06 233.087 163.539L231.111 164.11C230.871 164.192 230.623 164.251 230.372 164.285C230.6 164.173 230.836 164.078 231.078 163.999C231.532 163.831 232.199 163.611 233.023 163.351C234.675 162.82 236.989 162.146 239.568 161.517C242.148 160.889 244.507 160.435 246.224 160.15C247.08 160.007 247.78 159.903 248.259 159.839C248.511 159.791 248.768 159.767 249.024 159.767Z" fill="#263238"/>
<path d="M229.503 138.911C229.676 139.123 229.828 139.351 229.957 139.592C230.242 140.033 230.605 140.694 231.046 141.536C233.281 145.895 234.646 150.648 235.064 155.529C235.142 156.462 235.181 157.22 235.174 157.745C235.202 158.014 235.202 158.286 235.174 158.555C235.124 158.29 235.096 158.021 235.09 157.752C235.09 157.227 234.993 156.455 234.889 155.548C234.357 150.708 233 145.996 230.877 141.614C230.476 140.778 230.132 140.104 229.879 139.67C229.731 139.429 229.605 139.175 229.503 138.911Z" fill="#263238"/>
<path d="M259.096 126.222C258.915 126.381 258.717 126.521 258.506 126.636L256.873 127.706C255.499 128.613 253.632 129.922 251.688 131.504C249.743 133.085 248.065 134.634 246.892 135.788L245.511 137.168C245.353 137.347 245.177 137.51 244.986 137.654C245.111 137.45 245.259 137.26 245.427 137.09C245.725 136.74 246.172 136.241 246.723 135.645C248.218 134.093 249.807 132.635 251.48 131.277C253.153 129.92 254.908 128.669 256.736 127.531C257.436 127.097 258.033 126.76 258.422 126.539C258.635 126.412 258.861 126.305 259.096 126.222Z" fill="#263238"/>
<path d="M231.24 106.085C231.318 106.128 231.388 106.183 231.448 106.247L232.012 106.746C232.498 107.187 233.178 107.835 234.014 108.658C235.68 110.291 237.903 112.631 240.229 115.347C242.556 118.062 244.5 120.642 245.855 122.547C246.503 123.5 247.06 124.284 247.417 124.828L247.825 125.476C247.877 125.548 247.919 125.626 247.948 125.71C247.882 125.65 247.824 125.582 247.773 125.509L247.326 124.906L245.686 122.683C244.293 120.81 242.316 118.263 240.009 115.554C237.702 112.845 235.472 110.492 233.865 108.82L231.921 106.876L231.396 106.331C231.331 106.258 231.279 106.175 231.24 106.085Z" fill="#263238"/>
<path d="M261.986 92.2808C261.827 92.5262 261.644 92.7562 261.442 92.9677L259.893 94.7954C258.597 96.3508 256.853 98.5284 255.058 101.037C253.263 103.545 251.766 105.904 250.722 107.628L249.491 109.682C249.349 109.94 249.191 110.189 249.018 110.428C249.118 110.151 249.244 109.884 249.394 109.63C249.646 109.125 250.042 108.405 250.541 107.524C251.545 105.768 253.023 103.383 254.825 100.868C256.626 98.3534 258.396 96.1823 259.737 94.6658C260.385 93.9075 260.962 93.2983 261.358 92.8965C261.552 92.6759 261.762 92.4701 261.986 92.2808Z" fill="#263238"/>
<path d="M238.894 71.3472C239.053 71.6018 239.188 71.8708 239.296 72.1508C239.543 72.6823 239.88 73.447 240.281 74.4062C241.091 76.3116 242.161 78.9429 243.256 81.9436C244.351 84.9443 245.278 87.6274 245.907 89.6041C246.224 90.5957 246.464 91.3929 246.626 91.9567C246.724 92.2394 246.798 92.5299 246.847 92.8252C246.713 92.5569 246.605 92.2771 246.523 91.9891L245.712 89.6689C245.032 87.7246 244.086 85.0091 242.984 82.0408C241.882 79.0725 240.852 76.4088 240.093 74.484L239.193 72.1962C239.075 71.9199 238.975 71.6363 238.894 71.3472Z" fill="#263238"/>
<path d="M174.37 232.063C174.37 232.063 177.727 245.472 174.37 250.909C174.234 251.136 174.085 251.363 173.929 251.557C171.746 254.697 168.594 257.034 164.957 258.213C161.319 259.391 157.395 259.346 153.786 258.084L116.021 245.122L118.905 234.985L143.151 237.98L169.023 230.935L174.37 232.063Z" fill="#FFBE9D"/>
<path d="M157.532 211.356C157.532 211.356 169.626 246.593 169.023 255.044C168.42 263.496 145.043 307.774 145.043 307.774L134.803 303.068C134.803 303.068 138.731 290.644 141.349 279.776C142.645 274.286 143.19 267.617 144.201 264.921C147.273 256.865 150.863 252.672 150.863 252.672L134.382 218.796L157.532 211.356Z" fill="#FFBE9D"/>
<path d="M124.395 187.862C124.395 187.862 120.824 197.687 123.293 206.968C125.762 216.249 149.003 254.279 149.003 254.279L175.899 238.725C175.899 238.725 174.862 204.829 165.491 185.918L124.395 187.862Z" fill="#263238"/>
<path d="M168.809 242.756C168.809 242.756 168.874 242.854 168.964 243.054C169.055 243.255 169.185 243.554 169.321 243.949C169.71 245.069 169.969 246.23 170.092 247.41C170.265 249.163 170.219 250.93 169.956 252.672C169.807 253.657 169.632 254.675 169.366 255.725C169.101 256.775 168.751 257.838 168.368 258.907C166.832 263.21 165.186 266.989 163.987 269.724C163.384 271.091 162.885 272.187 162.529 272.964C162.36 273.308 162.224 273.612 162.114 273.826C162.069 273.93 162.013 274.028 161.946 274.118C161.966 274.008 162.001 273.901 162.049 273.8L162.406 272.912L163.767 269.672C164.907 266.911 166.521 263.12 168.051 258.836C168.427 257.766 168.77 256.71 169.042 255.686C169.314 254.662 169.496 253.638 169.651 252.666C169.927 250.952 169.999 249.212 169.865 247.481C169.771 246.312 169.554 245.156 169.217 244.033C168.958 243.191 168.777 242.769 168.809 242.756Z" fill="#EB996E"/>
<path d="M142.295 275.148C142.288 274.845 142.308 274.541 142.354 274.241C142.405 273.651 142.509 272.809 142.652 271.772C143.003 269.049 143.622 266.368 144.499 263.768C145.455 261.192 146.696 258.731 148.199 256.431C148.763 255.55 149.236 254.837 149.573 254.357C149.733 254.098 149.918 253.855 150.124 253.631C150.002 253.91 149.854 254.177 149.684 254.428C149.347 254.986 148.919 255.725 148.387 256.554C146.955 258.872 145.755 261.325 144.803 263.878C143.933 266.46 143.282 269.112 142.859 271.804C142.691 272.789 142.554 273.612 142.451 274.254C142.432 274.557 142.38 274.857 142.295 275.148Z" fill="#EB996E"/>
<path d="M168.66 235.381C168.606 235.283 168.564 235.178 168.537 235.07L168.245 234.169C167.992 233.333 167.642 232.225 167.221 230.844C166.359 228.031 165.134 224.162 163.682 219.924C162.231 215.685 160.824 211.874 159.794 209.12L158.562 205.879C158.433 205.523 158.329 205.231 158.238 204.991C158.193 204.891 158.162 204.784 158.148 204.674C158.214 204.763 158.267 204.861 158.303 204.965L158.686 205.834C159.016 206.586 159.47 207.687 160.014 209.074C161.11 211.803 162.548 215.607 164.007 219.852C165.465 224.097 166.651 227.986 167.461 230.812C167.863 232.225 168.18 233.404 168.381 234.175C168.472 234.538 168.55 234.823 168.608 235.089C168.639 235.183 168.657 235.282 168.66 235.381Z" fill="#455A64"/>
<path d="M152.833 209.088C152.794 209.133 151.991 208.472 150.559 207.61C149.722 207.109 148.856 206.659 147.966 206.262C146.869 205.788 145.741 205.39 144.59 205.069C143.431 204.769 142.253 204.552 141.064 204.421C140.093 204.314 139.117 204.268 138.141 204.285C136.469 204.318 135.445 204.486 135.432 204.421C135.662 204.339 135.902 204.285 136.145 204.259C136.803 204.145 137.467 204.073 138.134 204.045C139.122 203.995 140.112 204.017 141.096 204.11C142.304 204.23 143.501 204.447 144.674 204.758C145.844 205.081 146.988 205.493 148.096 205.99C148.993 206.405 149.859 206.884 150.688 207.422C151.251 207.779 151.791 208.173 152.302 208.602C152.498 208.742 152.676 208.905 152.833 209.088Z" fill="#455A64"/>
<path d="M162.73 171.012C162.924 166.566 168.174 160.979 166.819 148.367C165.393 135.14 163.384 123.48 163.384 123.48L153.41 125.911L151.699 123.48L135.231 127.369L132.639 129.812L121.213 134.485C120.537 134.763 119.924 135.174 119.411 135.694C118.897 136.214 118.494 136.832 118.225 137.512L110.266 157.752L92.9684 146.118L86.4161 155.004C86.4161 155.004 108.192 174.985 113.883 174.408C118.983 173.889 123.254 166.151 125.373 161.517L128.653 175.186C128.653 175.186 123.468 184.324 122.425 199.813L156.631 201.11C157.686 201.151 158.737 200.946 159.7 200.512C160.662 200.078 161.511 199.426 162.179 198.608L168.66 190.695C168.66 190.695 162.535 175.432 162.73 171.012Z" fill="#355BE1"/>
<path d="M158.725 125.923L163.138 123.901L180.475 108.794L186.71 82.4424L197.727 87.0504C197.727 87.0504 196.671 106.85 195.29 113.622C193.91 120.395 166.068 142.495 166.068 142.495L158.725 125.923Z" fill="#355BE1"/>
<path d="M164.771 129.961C164.918 130.704 165.024 131.455 165.089 132.21C165.277 133.694 165.517 135.574 165.776 137.648C166.035 139.722 166.255 141.705 166.372 143.098C166.437 143.798 166.476 144.394 166.495 144.757C166.526 144.961 166.526 145.169 166.495 145.373C166.333 144.631 166.218 143.88 166.152 143.124C165.964 141.64 165.724 139.767 165.458 137.693C165.193 135.619 164.979 133.636 164.868 132.236C164.81 131.536 164.778 130.972 164.765 130.577C164.734 130.373 164.736 130.165 164.771 129.961Z" fill="#263238"/>
<path d="M152.937 165.354C152.82 165.253 152.711 165.142 152.613 165.023L151.738 164.025C150.96 163.124 149.871 161.867 148.549 160.325L138.128 148.011L132.399 141.199L132.327 141.115L132.386 141.024L133.663 138.801L133.818 139.015C133.066 139.171 132.36 139.209 131.712 139.346L131.524 139.391V139.197C131.874 136.449 132.172 134.174 132.366 132.547C132.47 131.782 132.554 131.173 132.619 130.719C132.637 130.5 132.676 130.283 132.736 130.071C132.74 130.288 132.727 130.505 132.697 130.719C132.651 131.18 132.593 131.789 132.515 132.56C132.34 134.187 132.094 136.449 131.796 139.222L131.628 139.08C132.276 138.924 133.021 138.879 133.734 138.723L134.051 138.652L133.896 138.937C133.501 139.65 133.086 140.396 132.651 141.167V140.992C134.408 143.079 136.359 145.379 138.4 147.797L148.77 160.163L151.874 163.934L152.704 164.971C152.795 165.09 152.873 165.218 152.937 165.354Z" fill="#263238"/>
<path d="M155.497 163.481C155.493 163.337 155.506 163.194 155.536 163.053L155.711 161.828C155.873 160.765 156.132 159.236 156.469 157.337C156.806 155.438 157.201 153.195 157.571 150.687C157.989 147.975 158.23 145.239 158.29 142.495C158.366 139.528 158.149 136.56 157.642 133.636L157.759 133.752L155.497 133.215L155.153 133.13L155.458 132.949L157.111 131.977L157.072 132.165C156.352 131.141 155.821 130.162 155.322 129.307C154.823 128.451 154.415 127.725 154.065 127.103C153.715 126.481 153.417 126.034 153.242 125.716C153.131 125.562 153.033 125.4 152.95 125.23C152.989 125.262 153.024 125.299 153.054 125.34C153.144 125.448 153.228 125.561 153.306 125.677C153.52 125.975 153.818 126.435 154.188 127.025L155.484 129.203C155.996 130.039 156.553 131.018 157.266 132.009L157.351 132.126L157.227 132.204L155.588 133.195L155.549 132.936L157.811 133.454H157.908V133.552C158.455 136.5 158.701 139.497 158.64 142.495C158.576 145.258 158.32 148.012 157.875 150.739C157.493 153.254 157.059 155.503 156.702 157.389C156.346 159.275 156.054 160.759 155.84 161.854C155.743 162.353 155.665 162.755 155.601 163.066C155.58 163.207 155.545 163.346 155.497 163.481Z" fill="#263238"/>
<path d="M157.642 170.454C157.492 170.588 157.321 170.697 157.137 170.778C156.8 170.966 156.307 171.219 155.691 171.517C152.471 173.059 149.095 174.252 145.62 175.075C144.972 175.231 144.415 175.347 144.039 175.412C143.845 175.466 143.643 175.488 143.442 175.477C144.136 175.221 144.844 175.005 145.562 174.829C146.858 174.46 148.679 173.915 150.636 173.222C152.594 172.528 154.343 171.815 155.594 171.277C156.259 170.96 156.943 170.686 157.642 170.454Z" fill="#263238"/>
<path d="M158.193 175.756C157.66 175.817 157.122 175.833 156.586 175.801C155.594 175.801 154.227 175.801 152.697 175.879C151.168 175.957 149.826 176.054 148.841 176.138C148.321 176.208 147.796 176.228 147.273 176.197C147.787 176.032 148.317 175.923 148.854 175.872C149.839 175.73 151.213 175.581 152.743 175.516C154.272 175.451 155.64 175.477 156.631 175.516C157.159 175.534 157.684 175.615 158.193 175.756Z" fill="#263238"/>
<path d="M155.698 170.59C155.503 169.417 155.416 168.228 155.439 167.039C155.353 165.853 155.379 164.662 155.516 163.481C155.716 164.654 155.802 165.843 155.776 167.032C155.865 168.218 155.839 169.41 155.698 170.59Z" fill="#263238"/>
<path d="M155.173 175.438C154.919 174.857 154.768 174.237 154.726 173.604C154.574 172.985 154.534 172.344 154.609 171.712C155.016 172.911 155.206 174.172 155.173 175.438Z" fill="#263238"/>
<path d="M159.224 200.727C159.159 200.409 159.124 200.086 159.12 199.761C159.075 199.113 159.01 198.232 158.906 197.124C158.718 194.894 158.381 191.822 157.882 188.452C157.383 185.082 156.793 182.029 156.346 179.865C156.119 178.77 155.912 177.888 155.776 177.272C155.681 176.96 155.62 176.639 155.594 176.313C155.723 176.613 155.827 176.923 155.905 177.24C156.08 177.836 156.32 178.711 156.553 179.8C157.085 181.978 157.707 185.017 158.213 188.394C158.718 191.77 159.016 194.875 159.146 197.098C159.217 198.219 159.243 199.12 159.25 199.748C159.273 200.075 159.265 200.403 159.224 200.727Z" fill="#263238"/>
<g opacity="0.3">
<path d="M131.55 139.3L132.314 139.618L131.472 141.562C131.472 141.562 144.434 157.415 147.979 160.48C152.256 164.2 152.38 164.68 152.38 164.68L132.515 141.083L133.766 138.86L131.55 139.3Z" fill="black"/>
</g>
<g opacity="0.3">
<path d="M140.863 176.261L159.943 170.312C160.055 170.867 160.013 171.443 159.819 171.976C159.626 172.508 159.29 172.978 158.848 173.332C157.949 174.026 156.909 174.515 155.802 174.764C151.207 176.06 145.665 176.864 140.934 176.261" fill="black"/>
</g>
<path d="M114.978 161.938C113.901 159.772 112.008 158.122 109.715 157.35C110.079 157.339 110.44 157.41 110.772 157.557C112.438 158.143 113.818 159.344 114.628 160.914C114.816 161.227 114.936 161.576 114.978 161.938Z" fill="#263238"/>
<path d="M121.763 144.226C121.813 144.322 121.848 144.424 121.867 144.53C121.932 144.777 122.01 145.068 122.1 145.425C122.295 146.261 122.561 147.369 122.885 148.737C123.533 151.53 124.414 155.399 125.36 159.67C126.307 163.941 127.123 167.778 127.745 170.629C128.031 171.997 128.264 173.125 128.432 173.961C128.504 174.324 128.562 174.609 128.607 174.868C128.633 174.972 128.648 175.078 128.653 175.186C128.503 174.797 128.388 174.395 128.309 173.987C128.108 173.157 127.836 172.042 127.512 170.681C126.864 167.888 125.976 164.025 125.03 159.748C124.084 155.47 123.241 151.569 122.645 148.788C122.366 147.421 122.133 146.293 121.997 145.457C121.932 145.094 121.874 144.809 121.828 144.543C121.793 144.441 121.772 144.334 121.763 144.226Z" fill="#263238"/>
<path d="M89.2289 154.161C89.1644 154.427 89.1779 154.706 89.2678 154.965C89.3187 155.094 89.3973 155.21 89.4981 155.305C89.5989 155.4 89.7194 155.472 89.851 155.516C90.01 155.552 90.1764 155.54 90.3281 155.48C90.4797 155.419 90.6095 155.314 90.7001 155.179C90.8037 155.054 90.8677 154.9 90.8839 154.739C90.9 154.577 90.8676 154.414 90.7908 154.271C90.7105 154.158 90.6071 154.064 90.4876 153.993C90.3681 153.923 90.2351 153.878 90.0973 153.863C89.8232 153.848 89.5507 153.913 89.3131 154.051C89.3131 154.051 89.3131 153.947 89.4557 153.837C89.6413 153.695 89.8703 153.622 90.1038 153.63C90.2855 153.63 90.4647 153.673 90.6268 153.755C90.7889 153.837 90.9294 153.956 91.0371 154.103C91.1507 154.301 91.2034 154.529 91.1887 154.757C91.174 154.985 91.0926 155.204 90.9544 155.387C90.8163 155.569 90.6276 155.707 90.4118 155.783C90.1961 155.859 89.9627 155.869 89.7409 155.814C89.5697 155.752 89.4157 155.651 89.2916 155.518C89.1676 155.385 89.0772 155.224 89.028 155.049C88.9433 154.826 88.9433 154.579 89.028 154.356C89.1317 154.207 89.2159 154.161 89.2289 154.161Z" fill="#263238"/>
<path d="M188.161 86.1107C188.161 86.1107 188.213 86.0135 188.401 85.9617C188.531 85.9441 188.664 85.9529 188.791 85.9874C188.918 86.0219 189.036 86.0815 189.14 86.1626C189.461 86.3946 189.678 86.7439 189.743 87.1347C189.761 87.3888 189.694 87.6417 189.552 87.8532C189.409 88.0646 189.201 88.2223 188.958 88.3013C188.729 88.397 188.477 88.4246 188.232 88.381C187.987 88.3373 187.76 88.2241 187.578 88.055C187.443 87.9044 187.351 87.7203 187.311 87.5221C187.271 87.3238 187.285 87.1185 187.351 86.9273C187.559 86.2792 187.921 86.0848 187.941 86.1107C187.796 86.3913 187.677 86.684 187.584 86.9857C187.544 87.1336 187.542 87.2896 187.579 87.4384C187.617 87.5872 187.692 87.7237 187.798 87.8347C187.941 87.9535 188.114 88.0308 188.298 88.0582C188.482 88.0857 188.67 88.0621 188.842 87.9902C189.016 87.9355 189.168 87.8256 189.274 87.6772C189.38 87.5287 189.436 87.3497 189.432 87.1671C189.388 86.8508 189.231 86.5609 188.991 86.3505C188.836 86.1991 188.631 86.1093 188.414 86.0978C188.258 86.1107 188.174 86.1691 188.161 86.1107Z" fill="#263238"/>
<path d="M96.6497 130.596C100.901 125.172 106.643 120.875 113.578 119.773C117.156 119.196 120.623 119.773 124.019 120.946C127.622 122.171 131.077 123.623 134.881 124.122C139.249 124.698 143.637 124.297 147.992 123.798C148.835 123.7 151.952 122.91 151.952 121.989C151.952 121.212 148.841 120.551 147.992 120.648C144.039 121.101 140.04 121.497 136.061 121.114C132.172 120.739 128.64 119.203 124.991 117.958C121.431 116.645 117.616 116.175 113.844 116.584C110.07 117.067 106.444 118.358 103.215 120.369C99.8366 122.501 96.8597 125.21 94.4202 128.373C94.1396 128.675 93.9836 129.072 93.9836 129.485C93.9836 129.897 94.1396 130.294 94.4202 130.596C94.7173 130.889 95.1177 131.053 95.5349 131.053C95.9521 131.053 96.3526 130.889 96.6497 130.596Z" fill="#455A64"/>
<g opacity="0.3">
<path d="M96.6626 130.642C100.914 125.217 106.656 120.92 113.591 119.818C117.117 119.339 120.706 119.742 124.038 120.991C127.642 122.21 131.096 123.668 134.894 124.167C139.262 124.744 143.656 124.342 148.005 123.843C148.854 123.746 151.952 123.195 151.952 122.281C151.952 121.503 148.854 120.596 148.005 120.693C144.052 121.147 140.053 121.542 136.074 121.154C132.185 120.784 128.659 119.248 125.01 118.004C121.448 116.692 117.631 116.22 113.857 116.623C110.083 117.109 106.457 118.402 103.228 120.415C99.8515 122.546 96.8767 125.256 94.4396 128.419C94.1562 128.719 93.9983 129.117 93.9983 129.53C93.9983 129.943 94.1562 130.341 94.4396 130.642C94.7356 130.934 95.135 131.098 95.5511 131.098C95.9673 131.098 96.3666 130.934 96.6626 130.642Z" fill="black"/>
</g>
<path d="M158.29 92.3389C159.768 91.5029 160.06 89.254 159.055 87.8735C158.512 87.2147 157.784 86.734 156.965 86.4936C156.145 86.2533 155.273 86.2644 154.46 86.5255C154.634 86.0336 154.645 85.4985 154.491 84.9999C154.337 84.5013 154.026 84.0658 153.605 83.7581C152.744 83.1629 151.714 82.8648 150.669 82.9091C149.275 82.9091 147.681 83.3433 147.111 84.6136C146.89 83.784 145.95 83.3628 145.095 83.3174C143.946 83.2781 142.823 83.6636 141.941 84.4001C141.059 85.1366 140.479 86.1725 140.312 87.3097C139.546 86.8725 138.662 86.6845 137.784 86.7718C137.348 86.8263 136.941 87.0236 136.628 87.3331C136.315 87.6425 136.113 88.0467 136.054 88.4827C135.761 88.1646 135.392 87.9249 134.982 87.7857C134.573 87.6465 134.134 87.612 133.708 87.6856C133.079 87.7036 132.47 87.9139 131.965 88.2883C131.717 88.48 131.533 88.7427 131.438 89.0414C131.343 89.3402 131.341 89.6607 131.433 89.9604C130.836 89.8587 130.223 89.9821 129.712 90.3068C129.201 90.6314 128.829 91.1342 128.668 91.7176C128.506 92.301 128.567 92.9236 128.839 93.4646C129.11 94.0057 129.573 94.4267 130.137 94.6462C129.727 94.9832 129.41 95.419 129.216 95.9125C129.021 96.4059 128.956 96.9408 129.025 97.4666C129.095 97.9925 129.297 98.492 129.612 98.9181C129.928 99.3442 130.347 99.6829 130.83 99.9022C130.712 99.9541 130.608 100.032 130.524 100.13C130.441 100.229 130.381 100.345 130.349 100.47C130.317 100.595 130.314 100.725 130.34 100.851C130.366 100.978 130.421 101.096 130.5 101.198C130.811 101.626 130.603 101.652 131.148 101.639C131.252 103.454 131.394 104.847 131.498 106.662C131.569 107.835 131.543 109.371 131.971 110.46C132.292 111.069 132.73 111.61 133.261 112.049C133.791 112.488 134.404 112.818 135.062 113.02L156.677 104.906C157.393 104.144 157.88 103.195 158.079 102.168C158.279 101.142 158.183 100.08 157.804 99.1051C157.735 99.0183 157.687 98.9169 157.662 98.8086C157.638 98.7003 157.639 98.5878 157.664 98.4798C157.69 98.3719 157.74 98.2711 157.81 98.1852C157.88 98.0992 157.969 98.0304 158.07 97.9839C158.508 97.6469 158.873 97.2243 159.142 96.7419C159.412 96.2595 159.581 95.7273 159.638 95.1776C159.679 94.6282 159.576 94.0775 159.34 93.5798C159.104 93.0821 158.742 92.6545 158.29 92.3389Z" fill="#263238"/>
<path d="M156.346 99.7207C155.86 95.3461 150.934 91.1853 146.625 91.8528L132.6 95.184L132.762 97.5431L136.339 129.3L151.498 138.334L150.61 122.722C150.61 122.722 156.145 121.529 156.949 114.154C157.351 110.518 156.878 104.556 156.346 99.7207Z" fill="#FFBE9D"/>
<path d="M153.644 106.079C153.656 106.322 153.574 106.56 153.415 106.744C153.255 106.928 153.03 107.042 152.788 107.064C152.553 107.087 152.318 107.017 152.134 106.867C151.951 106.718 151.834 106.502 151.809 106.267C151.793 106.022 151.874 105.781 152.034 105.596C152.194 105.41 152.421 105.295 152.665 105.275C152.901 105.253 153.136 105.325 153.319 105.476C153.502 105.626 153.619 105.843 153.644 106.079Z" fill="#263238"/>
<path d="M155.199 102.858C155.089 102.987 154.35 102.495 153.345 102.547C152.341 102.598 151.628 103.136 151.518 103.02C151.408 102.903 151.563 102.741 151.874 102.488C152.295 102.169 152.804 101.986 153.332 101.963C153.858 101.932 154.379 102.073 154.817 102.365C155.134 102.586 155.251 102.806 155.199 102.858Z" fill="#263238"/>
<path d="M144.842 106.357C144.858 106.6 144.778 106.839 144.62 107.024C144.461 107.208 144.236 107.323 143.993 107.342C143.875 107.358 143.754 107.349 143.639 107.317C143.524 107.285 143.416 107.23 143.323 107.156C143.229 107.082 143.151 106.989 143.094 106.884C143.036 106.78 143.001 106.664 142.989 106.545C142.973 106.302 143.052 106.062 143.211 105.876C143.37 105.691 143.595 105.575 143.838 105.554C143.957 105.538 144.078 105.547 144.193 105.58C144.309 105.612 144.417 105.667 144.511 105.742C144.604 105.817 144.682 105.91 144.739 106.016C144.796 106.122 144.831 106.238 144.842 106.357Z" fill="#263238"/>
<path d="M145.361 103.732C145.251 103.862 144.518 103.369 143.514 103.421C142.509 103.473 141.796 104.011 141.68 103.888C141.563 103.765 141.731 103.616 142.043 103.363C142.459 103.041 142.964 102.855 143.49 102.832C144.016 102.809 144.536 102.949 144.978 103.233C145.328 103.46 145.413 103.674 145.361 103.732Z" fill="#263238"/>
<path d="M149.334 110.836C149.855 110.64 150.4 110.514 150.954 110.46C151.207 110.421 151.446 110.356 151.485 110.181C151.493 109.913 151.42 109.649 151.278 109.423L150.422 107.478C149.23 104.731 148.355 102.469 148.478 102.423C148.601 102.378 149.645 104.562 150.837 107.31C151.122 107.958 151.395 108.606 151.66 109.254C151.835 109.558 151.899 109.913 151.842 110.259C151.809 110.353 151.755 110.438 151.684 110.507C151.614 110.577 151.528 110.629 151.433 110.661C151.295 110.705 151.151 110.731 151.006 110.738C150.454 110.838 149.893 110.87 149.334 110.836Z" fill="#263238"/>
<path d="M150.61 122.748C147.18 122.964 143.757 122.218 140.727 120.596C140.727 120.596 143.708 126.034 150.967 125.003L150.61 122.748Z" fill="#EB996E"/>
<path d="M149.029 113.286C148.826 113.054 148.567 112.878 148.276 112.773C147.986 112.669 147.674 112.64 147.37 112.689C147.151 112.717 146.94 112.788 146.749 112.899C146.559 113.011 146.393 113.16 146.262 113.337C146.139 113.514 146.073 113.725 146.073 113.94C146.073 114.156 146.139 114.366 146.262 114.543C146.431 114.718 146.649 114.837 146.887 114.886C147.125 114.934 147.373 114.91 147.597 114.815C148.065 114.625 148.49 114.343 148.847 113.986C148.957 113.899 149.049 113.794 149.12 113.674C149.155 113.618 149.173 113.553 149.173 113.487C149.173 113.42 149.155 113.355 149.12 113.299" fill="#EB996E"/>
<path d="M146.411 111.672C146.573 111.672 146.631 112.748 147.603 113.487C148.575 114.225 149.729 114.044 149.742 114.193C149.755 114.342 149.496 114.42 149.003 114.459C148.365 114.497 147.734 114.309 147.221 113.927C146.727 113.557 146.393 113.012 146.288 112.404C146.229 111.944 146.333 111.672 146.411 111.672Z" fill="#263238"/>
<path d="M145.49 100.11C145.4 100.388 144.395 100.311 143.222 100.505C142.049 100.699 141.109 101.075 140.941 100.836C140.863 100.719 141.018 100.453 141.388 100.187C141.887 99.8396 142.458 99.6094 143.058 99.514C143.659 99.4186 144.273 99.4605 144.855 99.6365C145.328 99.7726 145.523 99.98 145.49 100.11Z" fill="#263238"/>
<path d="M154.687 99.9542C154.518 100.194 153.812 99.9542 152.982 100.019C152.153 100.084 151.453 100.246 151.278 100.019C151.2 99.9024 151.278 99.6691 151.595 99.4358C151.996 99.1544 152.473 99.0008 152.963 98.9951C153.453 98.9815 153.935 99.1195 154.343 99.3904C154.648 99.6107 154.758 99.8376 154.687 99.9542Z" fill="#263238"/>
<path d="M152.924 91.4057L152.47 91.2178C153.177 89.6364 151.984 87.6078 150.299 87.2125C149.444 87.0655 148.565 87.1987 147.792 87.5923C147.018 87.9859 146.393 88.6187 146.009 89.3966C145.62 88.718 145.014 88.1906 144.288 87.9C143.562 87.6094 142.76 87.5727 142.01 87.7958C140.785 88.2041 139.91 89.254 139.068 90.2391C138.88 90.4595 138.64 90.6993 138.348 90.6669C138.141 90.6119 137.955 90.4942 137.817 90.3298C137.087 89.7279 136.193 89.3596 135.251 89.2729C134.309 89.1862 133.362 89.3851 132.535 89.8438C131.72 90.3222 131.009 90.9594 130.445 91.7175C129.88 92.4756 129.474 93.3393 129.249 94.2573C129.014 94.9994 128.974 95.7895 129.132 96.5516C129.215 96.9294 129.395 97.2787 129.656 97.5643C129.917 97.85 130.248 98.0617 130.617 98.1783C130.287 98.6404 130.069 99.172 129.978 99.732C129.887 100.292 129.926 100.865 130.092 101.408C130.258 101.95 130.547 102.447 130.935 102.861C131.324 103.274 131.803 103.592 132.334 103.791C132.412 104.038 132.518 104.275 132.652 104.497C132.529 105.829 132.483 107.166 132.515 108.503C132.496 109.08 132.616 109.654 132.865 110.175C132.998 110.429 133.208 110.636 133.466 110.764C133.723 110.892 134.014 110.935 134.298 110.888C134.9 110.719 135.743 110.408 135.924 109.805C136.242 108.729 135.892 107.245 135.976 106.124C136.601 106.031 137.185 105.761 137.66 105.345C138.135 104.929 138.48 104.386 138.655 103.78C138.83 103.173 138.827 102.529 138.646 101.925C138.465 101.32 138.114 100.78 137.635 100.369C138.159 100.587 138.726 100.678 139.291 100.634C139.856 100.59 140.403 100.412 140.886 100.115C141.369 99.818 141.774 99.4106 142.069 98.9263C142.364 98.442 142.539 97.8947 142.58 97.3293C143.097 97.8123 143.712 98.1781 144.383 98.4017C145.054 98.6254 145.766 98.7018 146.469 98.6255C147.145 98.5887 147.78 98.2886 148.238 97.7895C148.455 97.5315 148.57 97.2028 148.561 96.8658C148.551 96.5288 148.418 96.207 148.186 95.9618C148.832 96.2501 149.547 96.3424 150.244 96.2272C150.942 96.112 151.589 95.7943 152.107 95.3137C152.608 94.8117 152.951 94.1749 153.096 93.4811C153.241 92.7872 153.182 92.0661 152.924 91.4057Z" fill="#263238"/>
<path d="M134.641 107.271C134.531 107.226 130.292 106.117 130.565 110.414C130.837 114.711 135.069 113.564 135.069 113.441C135.069 113.318 134.641 107.271 134.641 107.271Z" fill="#FFBE9D"/>
<path d="M133.663 111.892C133.663 111.892 133.591 111.95 133.468 112.015C133.295 112.103 133.095 112.119 132.911 112.061C132.623 111.899 132.384 111.665 132.215 111.382C132.047 111.099 131.956 110.776 131.952 110.447C131.921 110.08 131.969 109.711 132.094 109.365C132.127 109.228 132.191 109.102 132.283 108.996C132.374 108.89 132.489 108.807 132.619 108.755C132.704 108.727 132.796 108.729 132.879 108.762C132.963 108.796 133.031 108.857 133.073 108.937C133.138 109.053 133.118 109.138 133.138 109.144C133.157 109.151 133.228 109.066 133.183 108.891C133.151 108.786 133.085 108.695 132.995 108.632C132.935 108.591 132.867 108.563 132.796 108.549C132.725 108.534 132.652 108.534 132.58 108.548C132.406 108.593 132.247 108.682 132.117 108.807C131.988 108.932 131.893 109.088 131.841 109.261C131.681 109.643 131.618 110.06 131.66 110.473C131.66 110.857 131.774 111.233 131.987 111.552C132.201 111.872 132.504 112.121 132.859 112.268C132.972 112.289 133.088 112.286 133.199 112.259C133.311 112.232 133.416 112.182 133.507 112.112C133.663 111.996 133.663 111.899 133.663 111.892Z" fill="#EB996E"/>
<path d="M142.367 96.6034C142.405 96.6076 142.444 96.6076 142.483 96.6034L142.827 96.6423C143.26 96.6751 143.695 96.6533 144.123 96.5775C144.434 96.5174 144.737 96.4194 145.024 96.2859C145.365 96.1326 145.671 95.9121 145.925 95.6378C146.211 95.3113 146.414 94.9197 146.514 94.4971C146.627 94.0197 146.563 93.5176 146.333 93.0843L146.216 93.1944C147.112 93.7671 148.17 94.0332 149.23 93.9527C149.809 93.9171 150.376 93.7742 150.902 93.5314C151.178 93.4029 151.436 93.2371 151.667 93.0389C151.902 92.8233 152.075 92.5477 152.166 92.2417C152.257 91.8879 152.269 91.5181 152.198 91.1594C152.142 90.814 152.057 90.4737 151.945 90.1419C151.843 89.8147 151.697 89.5029 151.511 89.2151C151.419 89.0669 151.295 88.9412 151.148 88.847C151.001 88.7528 150.835 88.6926 150.662 88.6707V88.8457C151.298 89.0079 151.97 88.9485 152.568 88.6772C153.117 88.4433 153.588 88.0591 153.929 87.5689C154.224 87.1389 154.389 86.6323 154.402 86.1107C154.405 85.5659 154.266 85.0296 153.997 84.5554C153.729 84.0812 153.341 83.6857 152.872 83.4081C152.672 83.2896 152.453 83.2063 152.224 83.1619C152.428 83.251 152.627 83.3505 152.82 83.46C153.345 83.7919 153.757 84.2756 154 84.8469C154.173 85.2453 154.257 85.6766 154.246 86.1107C154.235 86.6137 154.073 87.1017 153.78 87.5106C153.454 87.9713 153.004 88.3307 152.483 88.5476C151.919 88.7986 151.286 88.8511 150.688 88.6966L150.656 88.8781C150.803 88.8983 150.943 88.9513 151.066 89.0332C151.19 89.1151 151.293 89.2238 151.369 89.3512C151.546 89.6207 151.682 89.9158 151.771 90.2262C152.029 90.8555 152.106 91.5451 151.991 92.2158C151.895 92.4832 151.741 92.7263 151.54 92.9279C151.34 93.1294 151.098 93.2846 150.831 93.3824C150.324 93.6161 149.78 93.7566 149.223 93.7972C148.202 93.8778 147.182 93.6278 146.313 93.0843L146.035 92.9028L146.197 93.1944C146.413 93.5901 146.475 94.0518 146.372 94.4906C146.281 94.891 146.097 95.2642 145.834 95.5794C145.595 95.851 145.304 96.0715 144.978 96.2275C144.703 96.3632 144.411 96.4634 144.11 96.5257C143.684 96.6139 143.249 96.6509 142.814 96.6358C142.666 96.6158 142.516 96.605 142.367 96.6034Z" fill="white"/>
<path d="M153.754 94.4194C153.754 94.4194 153.838 94.4778 154.006 94.5231C154.316 94.602 154.639 94.6061 154.95 94.5351C155.261 94.4641 155.551 94.32 155.795 94.1148C155.888 94.0332 155.963 93.9338 156.017 93.8224C156.07 93.7111 156.101 93.5901 156.106 93.4667C156.112 93.3349 156.08 93.204 156.015 93.0894C155.95 92.9747 155.853 92.8808 155.737 92.8186L155.672 93.0001H155.737C156.156 93.0962 156.59 93.099 157.01 93.0083C157.431 92.9176 157.825 92.7355 158.167 92.4751C158.373 92.3193 158.554 92.1336 158.705 91.9243C158.766 91.8515 158.812 91.7679 158.841 91.678C158.61 91.9278 158.359 92.1576 158.089 92.365C157.757 92.5955 157.38 92.7548 156.983 92.8329C156.586 92.9109 156.177 92.9061 155.782 92.8186H155.724L154.823 92.6177L155.659 92.9936C155.745 93.0423 155.816 93.1144 155.863 93.2015C155.91 93.2887 155.931 93.3874 155.925 93.4862C155.91 93.6816 155.822 93.8643 155.679 93.9982C155.415 94.236 155.089 94.3934 154.739 94.4518C154.411 94.4892 154.079 94.4783 153.754 94.4194Z" fill="white"/>
<path d="M188.589 82.9805L189.062 80.2973C189.062 80.2973 187.494 74.4645 187.656 73.6219C187.818 72.7794 187.993 68.7806 187.993 68.7806L192.024 64.2439C192.308 64.2332 192.589 64.307 192.831 64.4557C193.073 64.6045 193.266 64.8218 193.385 65.08C193.385 65.08 195.225 64.9309 195.64 66.1753C195.798 66.0903 195.976 66.0471 196.155 66.0497C196.335 66.0524 196.511 66.1007 196.666 66.1902C196.822 66.2798 196.952 66.4075 197.045 66.5614C197.138 66.7152 197.189 66.8902 197.196 67.0696C197.278 67.4528 197.315 67.8444 197.306 68.2362C197.572 68.2946 199.101 68.6575 199.114 69.4158C199.067 70.582 198.849 71.7351 198.466 72.8377C198.386 73.0337 198.259 73.2071 198.096 73.3427C197.933 73.4783 197.74 73.5719 197.533 73.6154L197.079 75.6829C197.079 75.6829 196.684 79.0789 195.925 80.6603L195.349 81.6L195.174 85.8321L188.589 82.9805Z" fill="#FFBE9D"/>
<path d="M194.584 67.9187C194.365 66.8354 193.923 65.8093 193.288 64.905L191.745 65.8901C191.925 66.4147 192.141 66.9258 192.393 67.4197C192.501 67.7112 192.673 67.9744 192.898 68.189C193.123 68.4035 193.393 68.5638 193.69 68.6575C194.033 68.7418 194.474 68.6575 194.584 68.3205C194.616 68.1885 194.616 68.0507 194.584 67.9187Z" fill="#FFBE9D"/>
<path d="M191.752 65.8901C191.759 65.999 191.783 66.1061 191.823 66.2076C191.915 66.487 192.025 66.7599 192.154 67.0242C192.231 67.1992 192.309 67.3872 192.4 67.5881C192.499 67.8034 192.63 68.0023 192.789 68.1779C192.969 68.3779 193.19 68.537 193.437 68.6445C193.573 68.7024 193.72 68.7323 193.868 68.7323C194.016 68.7323 194.162 68.7024 194.299 68.6445C194.372 68.6144 194.438 68.5694 194.492 68.5125C194.547 68.4556 194.589 68.388 194.616 68.314C194.652 68.1714 194.652 68.0223 194.616 67.8797C194.575 67.6207 194.514 67.365 194.435 67.115C194.305 66.6968 194.138 66.2912 193.936 65.903C193.761 65.566 193.599 65.3133 193.489 65.1383C193.431 65.0444 193.366 64.9555 193.294 64.8726C193.337 64.9733 193.386 65.0708 193.443 65.1642C193.547 65.3457 193.69 65.6049 193.852 65.9419C194.043 66.3317 194.202 66.7372 194.325 67.1539C194.394 67.3993 194.45 67.648 194.493 67.8992C194.523 68.0206 194.523 68.1472 194.493 68.2686C194.472 68.3266 194.44 68.3797 194.398 68.4243C194.355 68.469 194.304 68.5042 194.247 68.5278C194.127 68.579 193.998 68.6054 193.868 68.6054C193.737 68.6054 193.608 68.579 193.489 68.5278C193.259 68.4312 193.053 68.2852 192.886 68.1001C192.73 67.9314 192.599 67.7416 192.497 67.5362C192.406 67.3483 192.329 67.1539 192.244 66.9854C192.107 66.7265 191.984 66.4604 191.875 66.1882C191.842 66.0857 191.801 65.986 191.752 65.8901Z" fill="#EB996E"/>
<path d="M194.208 68.612C194.208 68.612 194.208 68.612 194.208 68.7027C194.201 68.7912 194.201 68.88 194.208 68.9684C194.23 69.2931 194.316 69.6101 194.461 69.9017C194.682 70.3331 195.004 70.7045 195.4 70.984C195.52 71.0718 195.657 71.1333 195.802 71.1646C195.948 71.1959 196.098 71.1962 196.243 71.1655C196.403 71.1354 196.547 71.0506 196.651 70.9257C196.755 70.7921 196.812 70.6282 196.813 70.4591C196.796 70.1543 196.746 69.8523 196.664 69.5582C196.593 69.273 196.515 69.0008 196.437 68.7416L196.016 67.3806C195.9 66.9982 195.809 66.6807 195.757 66.4668C195.735 66.3489 195.7 66.2337 195.653 66.1233C195.658 66.2415 195.675 66.3588 195.705 66.4733C195.75 66.7001 195.822 67.0177 195.932 67.4065C196.042 67.7954 196.178 68.2685 196.327 68.774C196.399 69.0333 196.47 69.3055 196.541 69.5841C196.617 69.8681 196.665 70.1591 196.684 70.4526C196.687 70.5933 196.641 70.7307 196.554 70.8415C196.466 70.944 196.348 71.0165 196.217 71.0488C196.087 71.0733 195.954 71.0715 195.825 71.0437C195.696 71.0159 195.574 70.9625 195.465 70.8868C195.082 70.6375 194.763 70.3024 194.532 69.9082C194.382 69.6305 194.285 69.3271 194.247 69.0138C194.214 68.7675 194.221 68.612 194.208 68.612Z" fill="#EB996E"/>
<path d="M195.193 70.8221C195.193 70.8221 195.193 70.8221 195.154 70.9258C195.115 71.0295 195.115 71.0943 195.089 71.2304C195.029 71.6104 195.029 71.9975 195.089 72.3775C195.165 72.9537 195.432 73.4878 195.848 73.8941C196.102 74.1401 196.44 74.2793 196.794 74.2829C196.89 74.2813 196.985 74.2603 197.073 74.2214C197.161 74.1824 197.24 74.1262 197.306 74.0561C197.432 73.9054 197.509 73.7201 197.526 73.5246C197.576 72.8299 197.576 72.1325 197.526 71.4378C197.474 70.7897 197.429 70.2388 197.39 69.7527C197.351 69.2666 197.338 68.8843 197.325 68.6185C197.334 68.4782 197.334 68.3376 197.325 68.1973C197.325 68.1973 197.325 68.2362 197.325 68.3074C197.325 68.3787 197.325 68.4824 197.325 68.6185C197.325 68.8843 197.325 69.2666 197.325 69.7592C197.325 70.2517 197.397 70.8156 197.436 71.4507C197.481 72.1348 197.481 72.8211 197.436 73.5052C197.421 73.674 197.355 73.8344 197.248 73.9653C197.195 74.0252 197.13 74.0733 197.057 74.1068C196.985 74.1403 196.906 74.1583 196.826 74.1598C196.505 74.152 196.198 74.025 195.964 73.8033C195.562 73.418 195.3 72.9094 195.219 72.3581C195.121 71.8515 195.112 71.3316 195.193 70.8221Z" fill="#EB996E"/>
<path d="M154.33 68.6899L154.395 68.5278L154.492 68.6704C154.57 68.7813 154.678 68.867 154.803 68.9167L154.959 68.9815L154.823 69.0787C154.708 69.1531 154.619 69.262 154.57 69.3898L154.505 69.5453L154.415 69.4028C154.336 69.2934 154.228 69.2081 154.104 69.1565L153.948 69.0917L154.084 68.9945C154.193 68.9182 154.279 68.8126 154.33 68.6899Z" fill="#E0E0E0"/>
<path d="M197.494 50.7894L197.604 50.5237L197.773 50.757C197.904 50.9485 198.089 51.0973 198.304 51.1847L198.57 51.2949L198.336 51.4634C198.143 51.5931 197.994 51.7784 197.909 51.9949L197.798 52.2606L197.63 52.0273C197.499 51.8357 197.314 51.687 197.099 51.5995L196.826 51.4894L197.066 51.3208C197.256 51.1875 197.404 51.0033 197.494 50.7894Z" fill="#E0E0E0"/>
<path d="M195.595 41.1132L195.776 40.666L196.062 41.0614C196.283 41.3838 196.594 41.634 196.956 41.7807L197.403 41.9622L197.008 42.2474C196.687 42.47 196.437 42.7806 196.288 43.1418L196.107 43.5889L195.828 43.1936C195.603 42.8722 195.291 42.6225 194.927 42.4742L194.48 42.2927L194.876 42.0141C195.197 41.7891 195.447 41.4764 195.595 41.1132Z" fill="#E0E0E0"/>
<path d="M173.735 81.3472L173.573 80.887L174.046 81.0037C174.425 81.0937 174.823 81.0757 175.193 80.9518L175.653 80.7898L175.543 81.2629C175.446 81.642 175.464 82.0412 175.595 82.41L175.75 82.8702L175.277 82.7535C174.897 82.6636 174.5 82.6815 174.13 82.8054L173.67 82.9674L173.786 82.4943C173.876 82.1146 173.858 81.7172 173.735 81.3472Z" fill="#E0E0E0"/>
<path d="M165.867 64.7233C165.044 65.7149 164.195 66.6676 163.397 67.6916C163.044 68.1185 162.787 68.6175 162.646 69.1537C162.505 69.6898 162.483 70.2503 162.581 70.796C162.705 71.3504 162.942 71.8734 163.276 72.3327C163.611 72.7919 164.036 73.1777 164.525 73.4662C167.552 75.5401 171.259 77.29 175.018 76.8298C177.573 76.4682 179.892 75.1416 181.499 73.1227C181.63 72.957 181.692 72.7465 181.67 72.5361C181.648 72.3258 181.545 72.1322 181.383 71.9968C181.22 71.8614 181.011 71.7949 180.8 71.8116C180.59 71.8282 180.394 71.9266 180.254 72.0858C179.049 73.6186 177.353 74.6915 175.452 75.1253C173.812 75.4103 172.126 75.2742 170.552 74.73C169.045 74.2309 167.607 73.5404 166.275 72.6755C165.569 72.3256 164.945 71.8284 164.447 71.2173C164.217 70.8337 164.112 70.3879 164.147 69.9419C164.182 69.4958 164.355 69.0717 164.642 68.7286C165.439 67.7176 166.294 66.7843 167.117 65.7603C167.255 65.5944 167.321 65.3807 167.301 65.1662C167.281 64.9517 167.176 64.7539 167.011 64.6164C166.845 64.4789 166.631 64.4129 166.416 64.433C166.202 64.453 166.004 64.5575 165.867 64.7233Z" fill="#355BE1"/>
<path d="M182.717 46.8424C183.495 45.9091 184.266 44.9758 185.044 44.049C185.246 43.7652 185.509 43.5308 185.814 43.3635C186.12 43.1963 186.459 43.1005 186.807 43.0834C187.766 43.0834 188.369 43.7315 188.984 44.3796C191.162 46.622 193.184 49.4996 193.404 52.7141C193.5 54.8737 192.762 56.9875 191.343 58.6183C191.212 58.784 191.151 58.9945 191.172 59.2049C191.194 59.4153 191.297 59.6088 191.459 59.7442C191.622 59.8796 191.831 59.9461 192.042 59.9295C192.253 59.9129 192.449 59.8144 192.588 59.6553C194.097 57.9148 194.974 55.7155 195.076 53.4141C195.072 51.4193 194.547 49.4602 193.553 47.7302C192.655 46.1216 191.54 44.6433 190.242 43.3361C189.598 42.5165 188.728 41.9036 187.74 41.5733C187.157 41.428 186.547 41.4258 185.962 41.5668C185.378 41.7079 184.836 41.988 184.383 42.3834C183.329 43.4451 182.356 44.5847 181.473 45.7924C181.404 45.8741 181.353 45.9685 181.321 46.0702C181.289 46.1719 181.277 46.279 181.286 46.3852C181.296 46.4914 181.326 46.5947 181.375 46.6893C181.424 46.7839 181.492 46.8678 181.573 46.9363C181.655 47.0048 181.749 47.0566 181.851 47.0886C181.953 47.1207 182.06 47.1323 182.166 47.123C182.272 47.1137 182.376 47.0835 182.47 47.0343C182.565 46.985 182.649 46.9176 182.717 46.8359V46.8424Z" fill="#355BE1"/>
<path d="M194.351 69.6426L192.646 70.9388V70.9906H192.601L191.641 72.9349C191.641 72.9349 194.629 75.793 195.899 78.8974L198.427 75.8708L198.492 75.7866L201.019 72.7599C197.701 72.073 194.351 69.6426 194.351 69.6426Z" fill="#355BE1"/>
<path d="M195.083 69.2602L191.376 73.7061C191.262 73.8435 191.122 73.957 190.964 74.0402C190.807 74.1234 190.634 74.1746 190.456 74.1908C190.279 74.2071 190.099 74.1881 189.929 74.1349C189.759 74.0818 189.601 73.9955 189.464 73.8811C189.322 73.767 189.204 73.6254 189.118 73.4647C189.032 73.3041 188.979 73.1277 188.963 72.9462C188.946 72.7646 188.967 72.5817 189.023 72.4082C189.079 72.2348 189.169 72.0744 189.289 71.9368L192.996 67.4908C193.11 67.3535 193.25 67.2399 193.408 67.1568C193.565 67.0736 193.738 67.0224 193.916 67.0061C194.093 66.9899 194.272 67.0089 194.443 67.062C194.613 67.1152 194.771 67.2014 194.908 67.3159C195.05 67.43 195.168 67.5716 195.254 67.7322C195.34 67.8929 195.393 68.0692 195.409 68.2508C195.425 68.4323 195.405 68.6153 195.349 68.7887C195.293 68.9622 195.202 69.1225 195.083 69.2602Z" fill="#355BE1"/>
<path d="M179.678 42.3577L170.928 52.8698L170.462 53.4272L162.179 63.3496C162.328 63.5959 182.127 81.8463 191.428 69.9602C201.473 58.6379 179.956 42.4678 179.678 42.3577Z" fill="#355BE1"/>
<path d="M179.678 42.3577C179.752 42.3915 179.822 42.435 179.885 42.4873C180.021 42.578 180.216 42.7141 180.462 42.9085C180.967 43.2844 181.693 43.8613 182.601 44.6455C185.165 46.8455 187.504 49.2967 189.581 51.9625C191.024 53.8084 192.22 55.8346 193.139 57.9898C194.268 60.474 194.528 63.266 193.877 65.9161C193.474 67.3309 192.766 68.6404 191.804 69.7528C190.891 70.9815 189.746 72.0187 188.433 72.8054C187.043 73.5851 185.489 74.029 183.897 74.1016C182.27 74.1749 180.641 73.9978 179.068 73.5766C175.728 72.6266 172.552 71.171 169.652 69.2603C168.245 68.3659 166.91 67.4261 165.64 66.4605C164.992 65.9744 164.395 65.4818 163.806 64.9893L162.924 64.2375C162.633 63.9718 162.373 63.7644 162.062 63.4403L161.991 63.3626L162.075 63.2589C167.26 57.0695 171.661 51.8329 174.765 48.1257L178.381 43.8483L179.341 42.7271L179.593 42.4484C179.618 42.4155 179.647 42.3852 179.678 42.3577C179.656 42.3973 179.63 42.4343 179.6 42.4678L179.354 42.7724L178.414 43.939L174.862 48.2748L162.315 63.4274L162.211 63.3237L162.328 63.2524L162.367 63.2913L162.471 63.382L162.678 63.5764L163.099 63.9458L164 64.7236C164.596 65.2161 165.206 65.6957 165.834 66.1753C167.098 67.1345 168.427 68.0678 169.826 68.9556C172.702 70.8494 175.849 72.294 179.159 73.2396C180.699 73.6515 182.292 73.8264 183.884 73.7581C185.424 73.6835 186.926 73.2531 188.271 72.5007C189.55 71.7329 190.668 70.725 191.564 69.5325C192.5 68.454 193.19 67.1845 193.586 65.8124C194.223 63.2272 193.977 60.5029 192.886 58.0741C191.985 55.945 190.813 53.941 189.399 52.1116C187.344 49.4421 185.04 46.9746 182.516 44.7427C181.622 43.9844 180.915 43.3363 180.429 42.9604L179.872 42.5132L179.678 42.3577Z" fill="#263238"/>
<g opacity="0.3">
<path d="M179.678 42.3577C180.974 43.4205 182.199 44.3733 183.346 45.4167C191.091 52.4486 196.081 60.4072 193.288 67.1604L191.149 70.4009C191.149 70.4009 193.404 62.1182 189.205 56.1427C185.005 50.1673 179.224 43.3687 179.224 43.3687L179.678 42.3577Z" fill="black"/>
</g>
<path d="M206.34 71.0878L195.42 84.1665C194.995 83.8122 194.643 83.3775 194.386 82.8873C194.129 82.3971 193.97 81.861 193.921 81.3097C193.871 80.7583 193.93 80.2025 194.095 79.6741C194.26 79.1456 194.527 78.6549 194.882 78.2299L200.417 71.6258C200.771 71.2004 201.206 70.849 201.696 70.5917C202.186 70.3344 202.722 70.1763 203.274 70.1263C203.825 70.0764 204.381 70.1356 204.909 70.3006C205.438 70.4655 205.928 70.7331 206.353 71.0878H206.34Z" fill="#355BE1"/>
<path d="M207.968 68.8009L193.312 86.3926L201.776 93.4451L216.433 75.8535L207.968 68.8009Z" fill="#263238"/>
<path d="M207.975 73.2471L197.607 85.6902L201.755 89.1459L212.122 76.7028L207.975 73.2471Z" fill="#455A64"/>
<path d="M176.314 57.0499L180.397 58.035L183.527 55.2288L183.851 59.4155L187.494 61.5218L183.605 63.1291L182.73 67.2445L180.002 64.0429L175.821 64.4771L178.018 60.8931L176.314 57.0499Z" fill="white"/>
<path d="M186.975 71.9304L186.923 71.9758L186.774 72.0925C186.57 72.2371 186.353 72.3629 186.126 72.4683C185.777 72.6339 185.41 72.7558 185.031 72.8313C184.532 72.9336 184.023 72.9793 183.514 72.9674C182.897 72.9584 182.281 72.8955 181.674 72.7794L180.656 72.585C180.313 72.5072 179.963 72.41 179.6 72.3258C178.041 71.8932 176.523 71.325 175.063 70.6277C173.598 69.934 172.176 69.1527 170.805 68.2881C169.509 67.4974 168.42 66.7327 167.493 66.0911C166.567 65.4494 165.828 64.8986 165.322 64.5227L164.771 64.0755L164.616 63.9653L164.57 63.9199L164.622 63.9588L164.771 64.0755L165.361 64.4967C165.88 64.8661 166.625 65.3976 167.552 66.0392C168.478 66.6808 169.593 67.4391 170.863 68.2233C172.227 69.0834 173.64 69.8625 175.096 70.5565C176.556 71.2498 178.074 71.8157 179.632 72.248C179.995 72.3387 180.345 72.4359 180.689 72.5137L181.7 72.7146C182.305 72.8272 182.918 72.89 183.534 72.9026C184.04 72.9186 184.547 72.8773 185.044 72.7794C185.42 72.7067 185.785 72.5892 186.133 72.4295C186.359 72.3278 186.576 72.2064 186.781 72.0665L186.936 71.9563L186.975 71.9304Z" fill="white"/>
<path d="M189.671 72.3904C189.635 72.4817 189.611 72.5777 189.6 72.6755C189.593 72.7966 189.613 72.9176 189.659 73.0298C189.705 73.142 189.776 73.2424 189.866 73.3236C190.046 73.477 190.255 73.5917 190.481 73.6607C190.65 73.719 190.76 73.7514 190.76 73.7579C190.659 73.7573 190.558 73.7398 190.462 73.706C190.223 73.6479 190.001 73.5347 189.814 73.3755C189.727 73.2921 189.658 73.1913 189.612 73.0796C189.567 72.968 189.545 72.848 189.548 72.7274C189.558 72.6521 189.582 72.5795 189.62 72.5135L189.671 72.3904Z" fill="white"/>
<path d="M195.524 78.1909C195.524 78.1909 195.478 78.2492 195.4 78.3594C195.283 78.5091 195.177 78.6673 195.083 78.8325C194.765 79.3773 194.572 79.9862 194.519 80.6148C194.474 81.2446 194.564 81.8767 194.785 82.4684C194.854 82.6459 194.934 82.8191 195.025 82.9868C195.061 83.0462 195.092 83.1092 195.115 83.1748L195.083 83.1359L194.999 82.9998C194.901 82.8348 194.815 82.6638 194.739 82.4878C194.5 81.8942 194.4 81.2533 194.448 80.6148C194.518 79.78 194.842 78.9864 195.375 78.34L195.485 78.2233C195.485 78.2233 195.524 78.1844 195.524 78.1909Z" fill="white"/>
<path d="M191.953 73.7125C192.705 72.9758 193.301 72.0938 193.702 71.1201C193.898 70.6356 193.948 70.1043 193.846 69.5918C193.743 69.0793 193.493 68.608 193.126 68.2361L188.589 73.4209L193.67 80.0509C195.141 77.5233 193.936 74.5226 191.953 73.7125Z" fill="#FFBE9D"/>
<path d="M194.584 78.9817C194.584 78.9817 194.584 78.9428 194.584 78.865C194.584 78.7872 194.636 78.6771 194.655 78.5215C194.727 78.0815 194.727 77.6329 194.655 77.1929C194.545 76.518 194.291 75.8747 193.91 75.307C193.433 74.5814 192.758 74.0078 191.966 73.6543V73.7515C192.339 73.3522 192.689 72.9324 193.015 72.4942C193.373 72.0241 193.641 71.4926 193.806 70.9258C193.926 70.4339 193.926 69.9206 193.806 69.4287C193.706 68.9581 193.458 68.5315 193.1 68.2103L193.054 68.1714L193.015 68.2168L189.775 71.9757L188.848 73.0645L188.602 73.3627C188.544 73.434 188.518 73.4664 188.524 73.4728L188.615 73.3756L188.874 73.0969L189.833 72.0211L193.106 68.301H193.022C193.353 68.6087 193.579 69.012 193.67 69.4546C193.773 69.9281 193.76 70.4197 193.631 70.8869C193.473 71.4397 193.214 71.9583 192.866 72.4164C192.545 72.851 192.201 73.2685 191.836 73.6673L191.778 73.7256H191.855C192.643 74.0625 193.318 74.618 193.8 75.3264C194.177 75.881 194.435 76.5077 194.558 77.167C194.637 77.5945 194.652 78.0313 194.603 78.4632C194.636 78.8197 194.584 78.9817 194.584 78.9817Z" fill="#EB996E"/>
<path d="M194.824 78.6123C196.671 76.182 198.946 73.6544 200.793 71.2175L194.824 78.6123Z" fill="#355BE1"/>
<path d="M200.793 71.2043C199.964 72.5607 199.007 73.8347 197.935 75.0087C197.137 75.9614 196.412 76.8169 195.77 77.6011C195.495 77.978 195.178 78.3217 194.824 78.6251C195.651 77.2691 196.606 75.9952 197.675 74.8207L199.846 72.2283C200.126 71.8551 200.443 71.512 200.793 71.2043Z" fill="#263238"/>
<path d="M117.829 247.831L117.019 247.63C117.019 247.63 108.056 260.054 105.399 259.555L112.334 232.186L121.342 234.869C118.426 238.459 117.136 242.666 117.829 247.831Z" fill="#455A64"/>
<path d="M117.732 236.898C117.718 236.614 117.6 236.345 117.401 236.143C117.201 235.941 116.934 235.819 116.65 235.802C116.366 235.807 116.095 235.919 115.892 236.117C115.688 236.314 115.568 236.582 115.555 236.865C115.569 237.165 115.694 237.45 115.906 237.663C116.118 237.876 116.402 238.003 116.702 238.019C116.998 237.984 117.269 237.837 117.458 237.608C117.648 237.378 117.741 237.084 117.719 236.787" fill="white"/>
<path d="M112.334 232.186L114.498 232.834L107.091 258.823C107.091 258.823 106.248 259.905 105.425 259.555L112.334 232.186Z" fill="#263238"/>
<path d="M116.916 247.708C116.786 247.669 116.916 246.982 116.63 246.217C116.345 245.452 115.892 244.96 115.982 244.85C116.073 244.739 116.792 245.135 117.091 246.068C117.389 247.001 117.032 247.766 116.916 247.708Z" fill="#263238"/>
<path d="M115.004 250.274C114.868 250.274 114.783 249.626 114.356 249.043C113.928 248.46 113.338 248.161 113.377 248.032C113.416 247.902 114.194 248.032 114.738 248.758C115.282 249.484 115.133 250.307 115.004 250.274Z" fill="#263238"/>
<path d="M111.154 251.033C111.154 250.909 111.873 250.89 112.515 251.421C113.157 251.953 113.293 252.646 113.163 252.672C113.034 252.698 112.742 252.219 112.204 251.791C111.666 251.363 111.135 251.169 111.154 251.033Z" fill="#263238"/>
<path d="M146.197 306.374L145.886 307.093C145.886 307.093 155.925 317.242 155.056 319.608L130.973 309.057L134.823 301.189C136.237 302.817 137.984 304.123 139.946 305.018C141.909 305.912 144.04 306.375 146.197 306.374Z" fill="#455A64"/>
<path d="M136.138 304.786C135.876 304.754 135.61 304.82 135.394 304.972C135.177 305.124 135.024 305.351 134.965 305.609C134.925 305.87 134.985 306.137 135.134 306.355C135.284 306.573 135.511 306.726 135.769 306.782C136.048 306.813 136.328 306.74 136.556 306.577C136.784 306.415 136.945 306.174 137.007 305.901C137.021 305.624 136.928 305.353 136.747 305.144C136.566 304.935 136.31 304.804 136.035 304.779" fill="white"/>
<path d="M130.973 309.057L131.9 307.164L154.641 318.001C154.641 318.001 155.51 318.934 155.056 319.64L130.973 309.057Z" fill="#263238"/>
<path d="M145.976 307.197C145.918 307.313 145.328 307.112 144.564 307.236C143.799 307.359 143.267 307.715 143.203 307.624C143.138 307.534 143.591 306.925 144.499 306.788C145.406 306.652 146.015 307.112 145.976 307.197Z" fill="#263238"/>
<path d="M148.005 309.355C148.005 309.478 147.389 309.452 146.767 309.776C146.145 310.1 145.808 310.573 145.691 310.515C145.575 310.457 145.795 309.763 146.566 309.381C147.337 308.998 148.057 309.238 148.005 309.355Z" fill="#263238"/>
<path d="M148.115 313.004C147.999 313.004 148.115 312.356 148.673 311.811C149.23 311.267 149.923 311.286 149.93 311.409C149.936 311.533 149.444 311.721 148.971 312.148C148.498 312.576 148.238 313.049 148.115 313.004Z" fill="#263238"/>
<path d="M134.311 113.577C134.266 113.337 134.135 113.122 133.941 112.973C133.747 112.825 133.504 112.754 133.261 112.774H133.196C133.016 112.81 132.85 112.897 132.72 113.026C132.589 113.155 132.499 113.32 132.461 113.499C132.423 113.679 132.438 113.866 132.505 114.037C132.571 114.208 132.687 114.355 132.836 114.462C132.986 114.568 133.164 114.628 133.347 114.634C133.531 114.641 133.712 114.593 133.869 114.498C134.025 114.402 134.151 114.263 134.229 114.097C134.308 113.931 134.336 113.746 134.311 113.564V113.577Z" fill="#455A64"/>
<path d="M135.224 127.375L140.928 143.124L154.609 165.354L155.017 141.769L151.083 123.545H150.766L147.94 135.593L144.188 131.056L135.652 125.113L135.224 127.375Z" fill="#FAFAFA"/>
<path d="M153.268 133.675C152.942 133.353 152.651 132.999 152.399 132.618C152.14 132.288 151.829 131.892 151.466 131.465C151.09 130.995 150.655 130.576 150.17 130.22L150.422 130.11C150.369 130.33 150.302 130.547 150.221 130.758C149.664 132.152 149.022 133.318 148.608 134.193C148.193 135.068 147.992 135.619 147.96 135.612C148.007 135.082 148.159 134.567 148.407 134.096C148.763 133.195 149.379 131.996 149.917 130.642C149.992 130.451 150.055 130.257 150.105 130.058L150.163 129.825L150.358 129.955C150.874 130.329 151.331 130.779 151.712 131.29C152.069 131.737 152.36 132.158 152.6 132.508C152.873 132.866 153.097 133.258 153.268 133.675Z" fill="#263238"/>
<path d="M154.609 165.354C154.491 164.988 154.406 164.613 154.356 164.233C154.201 163.455 153.993 162.418 153.747 161.167C153.222 158.575 152.451 155.017 151.576 151.083C150.701 147.149 149.897 143.642 149.308 141.011C149.029 139.767 148.802 138.736 148.66 137.959C148.559 137.587 148.49 137.208 148.452 136.824C148.589 137.183 148.7 137.551 148.783 137.926C148.977 138.639 149.243 139.676 149.567 140.959C150.215 143.552 151.051 147.071 151.926 151.005C152.801 154.939 153.54 158.523 154.006 161.122C154.233 162.418 154.415 163.481 154.512 164.213C154.568 164.591 154.601 164.972 154.609 165.354Z" fill="#263238"/>
<path d="M151.952 122.281C148.161 125.049 139.871 125.554 136.365 125.327C131.641 124.997 126.534 123.052 121.997 121.834C117.272 120.596 112.923 120.674 108.212 121.348C103.5 122.022 97.881 125.237 95.1072 129.047L97.0515 131.128C97.0515 131.128 103.532 125.742 109.443 124.951C115.108 124.206 118.607 125.412 125.257 127.168C132.827 129.17 141.978 128.73 144.862 127.952C147.637 127.173 150.289 126.01 152.743 124.498L151.952 122.281Z" fill="#455A64"/>
<path d="M136.585 131.128C136.789 131.236 136.978 131.369 137.149 131.523C137.493 131.789 137.985 132.171 138.595 132.683C139.807 133.675 141.466 135.068 143.28 136.617L143.378 136.701L143.105 136.792C143.416 135.347 143.715 133.992 143.974 132.806L144.026 132.566L144.207 132.716C145.244 133.558 146.1 134.264 146.696 134.764C147.022 135.011 147.323 135.289 147.597 135.593C147.239 135.394 146.9 135.162 146.586 134.9C145.938 134.439 145.076 133.765 144.026 132.955L144.259 132.871L143.436 136.87L143.378 137.149L143.157 136.961L143.06 136.876C141.245 135.327 139.612 133.908 138.439 132.871C137.849 132.353 137.383 131.925 137.059 131.627C136.88 131.481 136.721 131.314 136.585 131.128Z" fill="#263238"/>
<path d="M90.0714 146.663C90.1103 146.41 88.7752 141.309 88.7752 141.309L82.2942 138.347L83.4348 144.258C84.1722 144.989 84.9466 145.681 85.755 146.332C85.8652 146.293 90.0714 146.663 90.0714 146.663Z" fill="#EB996E"/>
<path d="M99.8123 135.794C99.9575 137.498 99.5941 139.207 98.768 140.704C97.942 142.201 96.6905 143.42 95.1718 144.206C93.6531 144.992 91.9354 145.31 90.236 145.12C88.5366 144.929 86.9317 144.239 85.6244 143.137C84.3171 142.035 83.3661 140.569 82.8917 138.926C82.4172 137.284 82.4406 135.537 82.959 133.907C83.4773 132.278 84.4673 130.838 85.8037 129.771C87.14 128.704 88.7628 128.058 90.4668 127.913C92.751 127.719 95.0188 128.441 96.7714 129.918C98.5239 131.396 99.6178 133.51 99.8123 135.794Z" fill="#355BE1"/>
<g opacity="0.3">
<path d="M99.8123 135.794C99.9575 137.498 99.5941 139.207 98.768 140.704C97.942 142.201 96.6905 143.42 95.1718 144.206C93.6531 144.992 91.9354 145.31 90.236 145.12C88.5366 144.929 86.9317 144.239 85.6244 143.137C84.3171 142.035 83.3661 140.569 82.8917 138.926C82.4172 137.284 82.4406 135.537 82.959 133.907C83.4773 132.278 84.4673 130.838 85.8037 129.771C87.14 128.704 88.7628 128.058 90.4668 127.913C92.751 127.719 95.0188 128.441 96.7714 129.918C98.5239 131.396 99.6178 133.51 99.8123 135.794Z" fill="black"/>
</g>
<path d="M99.8123 134.673C99.9575 136.377 99.5941 138.085 98.768 139.583C97.942 141.08 96.6905 142.299 95.1718 143.085C93.6531 143.871 91.9354 144.189 90.236 143.999C88.5366 143.808 86.9317 143.118 85.6244 142.016C84.3171 140.914 83.3661 139.448 82.8917 137.805C82.4172 136.162 82.4406 134.416 82.959 132.786C83.4773 131.156 84.4673 129.717 85.8037 128.65C87.14 127.583 88.7628 126.937 90.4668 126.792C92.751 126.598 95.0188 127.319 96.7714 128.797C98.5239 130.275 99.6178 132.389 99.8123 134.673Z" fill="#355BE1"/>
<g opacity="0.3">
<path d="M85.1588 136.28C85.0098 134.518 85.5664 132.77 86.7064 131.418C87.8464 130.067 89.4763 129.223 91.2379 129.073H91.5166C90.6129 129.022 89.7082 129.155 88.8577 129.465C88.0072 129.775 87.2287 130.255 86.5698 130.875C85.9109 131.496 85.3853 132.244 85.0253 133.075C84.6652 133.905 84.4781 134.8 84.4755 135.705C84.4728 136.611 84.6547 137.507 85.0099 138.339C85.3651 139.172 85.8862 139.923 86.5415 140.548C87.1968 141.172 87.9724 141.657 88.8211 141.972C89.6698 142.286 90.5737 142.425 91.4777 142.379C89.8641 142.301 88.3336 141.64 87.1712 140.518C86.0088 139.396 85.2936 137.89 85.1588 136.28Z" fill="black"/>
</g>
<g opacity="0.3">
<path d="M94.8025 130.104L96.2218 128.373L97.3042 129.294L95.7811 130.875L94.8025 130.104Z" fill="white"/>
</g>
<path d="M97.8356 135.146C97.7329 134.611 97.5987 134.083 97.4338 133.564C96.9229 132.168 95.9633 130.981 94.7053 130.188C93.7802 129.61 92.7254 129.272 91.6365 129.205C90.5476 129.138 89.4594 129.345 88.4706 129.805C87.9016 130.067 87.3751 130.412 86.9087 130.829C86.4138 131.258 85.9915 131.763 85.6578 132.327C84.9357 133.505 84.6092 134.883 84.7257 136.26C84.8423 137.637 85.396 138.941 86.3059 139.981C86.7312 140.477 87.2321 140.904 87.7901 141.244C88.3207 141.58 88.9 141.831 89.5075 141.99C90.3901 142.227 91.3123 142.277 92.2156 142.139C93.1188 142 93.9834 141.675 94.7543 141.184C95.5253 140.694 96.1858 140.048 96.6939 139.289C97.2021 138.529 97.5467 137.672 97.706 136.773C97.7837 136.234 97.827 135.69 97.8356 135.146C97.924 135.693 97.924 136.251 97.8356 136.798C97.6925 137.737 97.3527 138.635 96.8385 139.433C96.3243 140.231 95.6473 140.911 94.8519 141.429C94.0565 141.948 93.1606 142.292 92.2228 142.44C91.2851 142.588 90.3267 142.536 89.4103 142.288C88.1068 141.942 86.9358 141.215 86.0467 140.201C85.0807 139.107 84.4933 137.73 84.3719 136.275C84.2505 134.82 84.6014 133.365 85.3727 132.126C85.721 131.541 86.1583 131.014 86.6689 130.564C87.1596 130.127 87.7149 129.768 88.315 129.501C89.4214 128.994 90.6432 128.793 91.8537 128.918C93.1397 129.054 94.3591 129.558 95.366 130.369C96.3729 131.181 97.1246 132.265 97.531 133.493C97.7249 134.023 97.8279 134.582 97.8356 135.146Z" fill="#263238"/>
<path d="M88.0235 128.094C88.0235 128.153 87.5439 128.282 86.8828 128.743C86.0448 129.375 85.3121 130.137 84.7117 130.998C84.0871 131.839 83.6456 132.802 83.4155 133.824C83.234 134.608 83.2275 135.12 83.1757 135.12C83.0756 134.678 83.0756 134.22 83.1757 133.778C83.3563 132.693 83.8014 131.669 84.4719 130.797C85.0923 129.902 85.8802 129.136 86.7921 128.542C87.154 128.283 87.5799 128.128 88.0235 128.094Z" fill="white"/>
<path d="M89.6696 127.511C89.6696 127.602 89.54 127.719 89.3197 127.784C89.0993 127.848 88.8984 127.784 88.8725 127.725C88.8466 127.667 89.0086 127.511 89.2289 127.453C89.4493 127.395 89.6502 127.421 89.6696 127.511Z" fill="white"/>
<path d="M94.0119 140.642C93.3528 141.084 92.601 141.368 91.8144 141.474C91.0279 141.58 90.2276 141.503 89.4752 141.251C89.4752 141.154 90.5316 141.316 91.7825 141.141C93.0333 140.966 93.973 140.551 94.0119 140.642Z" fill="white"/>
<path d="M97.8551 138.458C97.7774 138.406 97.92 138.03 98.0431 137.557C98.1662 137.084 98.2181 136.682 98.3153 136.675C98.4125 136.669 98.5097 137.11 98.3671 137.641C98.2246 138.172 97.9329 138.509 97.8551 138.458Z" fill="white"/>
<g opacity="0.3">
<path d="M92.087 133.195V139.171H90.7001V134.303H89.5076V133.195H92.087Z" fill="black"/>
</g>
<path d="M90.4732 145.904C89.2354 145.392 84.8218 144.854 84.8218 144.854L85.1718 142.819C85.1718 142.819 87.6475 142.08 88.3151 141.005C88.5042 140.664 88.6077 140.283 88.6168 139.893C88.6258 139.504 88.5401 139.118 88.3669 138.769L86.9994 139.158C87.6864 138.458 87.2911 137.09 87.2911 137.09L85.768 137.414C85.902 137.314 86.0133 137.187 86.0947 137.041C86.1762 136.895 86.2259 136.734 86.2405 136.568C86.2552 136.401 86.2346 136.233 86.18 136.076C86.1253 135.918 86.038 135.773 85.9236 135.651L84.744 136.034C85.4569 135.256 84.1867 134.407 84.1867 134.407C84.1867 134.407 78.8204 138.594 78.4704 139.171C78.1205 139.747 78.8917 141.283 78.8917 141.283C78.4635 141.78 78.1888 142.39 78.101 143.04C78.0686 143.934 79.2028 144.265 79.2028 144.265C79.1344 144.739 79.1653 145.222 79.2935 145.684C79.5139 146.423 83.0784 148.484 83.0784 148.484L87.7642 153.208L92.4759 146.766C92.4759 146.766 91.7111 146.416 90.4732 145.904Z" fill="#FFBE9D"/>
<path d="M88.2956 138.833C87.9401 139.063 87.5442 139.224 87.129 139.307C86.1642 139.547 85.216 139.851 84.2904 140.214C83.7985 140.426 83.3435 140.715 82.9423 141.069C82.5729 141.406 82.2942 141.718 82.0026 142.029C81.4711 142.599 81.0499 142.858 81.0239 142.819C80.998 142.78 81.348 142.476 81.8276 141.873C82.1066 141.512 82.4074 141.167 82.7284 140.843C83.1428 140.449 83.6233 140.131 84.1478 139.903C85.093 139.533 86.0719 139.255 87.0707 139.073C87.4714 138.959 87.8812 138.878 88.2956 138.833Z" fill="#EB996E"/>
<path d="M87.3883 145.314C87.3883 145.399 86.2736 145.152 84.7959 145.217H84.5691L84.6339 144.997C84.7182 144.699 84.8024 144.349 84.8672 144.038C84.9593 143.591 85.0199 143.138 85.0487 142.683V142.547H85.1913C85.7079 142.49 86.2116 142.347 86.6819 142.126C87.0448 141.977 87.2522 141.867 87.2717 141.899C87.2911 141.931 87.1161 142.087 86.7726 142.294C86.2927 142.591 85.7565 142.785 85.1977 142.865L85.3468 142.716C85.3312 143.188 85.277 143.658 85.1848 144.122C85.1204 144.455 85.036 144.784 84.932 145.107L84.77 144.893C85.6637 144.827 86.5604 144.972 87.3883 145.314Z" fill="#EB996E"/>
<path d="M80.3953 140.752C80.6111 140.434 80.8708 140.148 81.1665 139.903L82.0738 139.009C82.25 138.818 82.448 138.648 82.6636 138.503C82.8988 138.355 83.1459 138.227 83.4024 138.121C84.2878 137.777 85.2005 137.508 86.1309 137.317C86.5082 137.205 86.8978 137.14 87.291 137.123C86.9513 137.323 86.5815 137.468 86.1957 137.55C85.5088 137.771 84.5366 138.023 83.5385 138.432C83.298 138.529 83.066 138.646 82.8451 138.782C82.6436 138.912 82.4567 139.065 82.2877 139.235L81.335 140.071C81.0554 140.341 80.739 140.57 80.3953 140.752Z" fill="#EB996E"/>
<path d="M79.5009 139.378C79.4685 139.339 79.7667 139.034 80.2722 138.574L81.1666 137.784L81.7045 137.317L81.9896 137.077L82.1387 136.954C82.1978 136.91 82.2607 136.871 82.3266 136.837C83.1427 136.47 83.9829 136.158 84.8413 135.904C85.1862 135.763 85.5516 135.677 85.9236 135.651C85.6128 135.852 85.2773 136.011 84.9255 136.124C84.2774 136.39 83.396 136.708 82.4887 137.136L82.3461 137.22L82.197 137.336L81.9119 137.576L81.361 138.023L80.4212 138.762C80.1457 139.011 79.8358 139.218 79.5009 139.378Z" fill="#EB996E"/>
<path d="M99.3846 102.035L99.6244 101.438L99.9939 101.963C100.29 102.386 100.702 102.714 101.18 102.91L101.776 103.156L101.251 103.525C100.827 103.817 100.498 104.228 100.305 104.705L100.059 105.301L99.6893 104.776C99.3926 104.354 98.981 104.025 98.5032 103.83L97.907 103.584L98.4384 103.214C98.8589 102.918 99.187 102.509 99.3846 102.035Z" fill="#355BE1"/>
<path d="M180.177 170.532L180.416 169.936L180.786 170.461C181.082 170.883 181.494 171.212 181.972 171.407L182.568 171.654L182.037 172.023C181.616 172.321 181.288 172.732 181.09 173.209L180.851 173.799L180.481 173.274C180.185 172.851 179.773 172.523 179.295 172.328L178.699 172.081L179.23 171.712C179.651 171.416 179.979 171.007 180.177 170.532Z" fill="#355BE1"/>
<path d="M194.117 142.884L194.357 142.295L194.727 142.82C195.025 143.241 195.436 143.569 195.913 143.766L196.509 144.012L195.984 144.382C195.562 144.676 195.233 145.085 195.038 145.561L194.791 146.157L194.422 145.632C194.125 145.21 193.714 144.882 193.236 144.686L192.64 144.44L193.171 144.07C193.594 143.774 193.922 143.362 194.117 142.884Z" fill="#355BE1"/>
<path d="M76.1503 98.7746L76.2929 98.4312L76.5067 98.7358C76.6776 98.982 76.9163 99.1733 77.1937 99.2866L77.5372 99.4292L77.2326 99.6431C76.9864 99.814 76.795 100.053 76.6817 100.33L76.5391 100.674L76.3253 100.369C76.1544 100.123 75.9158 99.9314 75.6383 99.8181L75.2948 99.6755L75.5994 99.4616C75.8456 99.2908 76.037 99.0521 76.1503 98.7746Z" fill="#355BE1"/>
<path d="M181.013 150.312L181.155 149.968L181.369 150.273C181.54 150.519 181.779 150.711 182.056 150.824L182.406 150.966L182.095 151.18C181.852 151.353 181.663 151.591 181.551 151.867L181.408 152.21L181.194 151.906C181.02 151.663 180.782 151.472 180.507 151.355L180.157 151.219L180.462 150.998C180.71 150.829 180.901 150.59 181.013 150.312Z" fill="#355BE1"/>
<path d="M87.0707 80.5307L87.6476 79.6299L88.1401 80.5955C88.5353 81.3656 89.1424 82.0065 89.89 82.4426L90.8232 82.987L89.8641 83.4796C89.0933 83.8761 88.4507 84.4828 88.0105 85.2295L87.4661 86.1627L86.9735 85.2035C86.5794 84.4311 85.9721 83.7879 85.2237 83.35L84.2904 82.8056L85.2561 82.313C86.0201 81.9062 86.6502 81.2873 87.0707 80.5307Z" fill="#355BE1"/>
</svg>
